<svg width="22" height="22" viewBox="0 0 22 22" fill="none" xmlns="http://www.w3.org/2000/svg">
<path d="M10.5257 4.71C10.5257 4.89234 10.5982 5.0672 10.7271 5.19614C10.856 5.32507 11.0309 5.3975 11.2132 5.3975H15.6888L4.24197 16.8444C4.12934 16.9759 4.07049 17.1451 4.07717 17.3181C4.08386 17.4911 4.15558 17.6553 4.27802 17.7777C4.40046 17.9001 4.5646 17.9719 4.73763 17.9786C4.91065 17.9852 5.07983 17.9264 5.21135 17.8138L16.6445 6.38063V10.8219C16.6445 11.0042 16.7169 11.1791 16.8458 11.308C16.9748 11.4369 17.1496 11.5094 17.332 11.5094C17.5143 11.5094 17.6892 11.4369 17.8181 11.308C17.947 11.1791 18.0195 11.0042 18.0195 10.8219V4.63437C18.0195 4.47027 17.9543 4.31289 17.8382 4.19685C17.7222 4.08081 17.5648 4.01563 17.4007 4.01563H11.2132C11.1224 4.01562 11.0324 4.03363 10.9485 4.06861C10.8647 4.10359 10.7886 4.15484 10.7246 4.21941C10.6607 4.28398 10.6102 4.36059 10.5761 4.44479C10.5419 4.529 10.5248 4.61914 10.5257 4.71Z" fill="black"/>
</svg>
