<svg width="32" height="32" viewBox="0 0 32 32" fill="none" xmlns="http://www.w3.org/2000/svg">
<path d="M28.0001 2.66602L26.6667 3.99935" stroke="#5801C4" stroke-width="2" stroke-linecap="round" stroke-linejoin="round"/>
<path d="M4 2.66602L5.33333 3.99935" stroke="#5801C4" stroke-width="2" stroke-linecap="round" stroke-linejoin="round"/>
<path d="M28.0001 21.3333L26.6667 20" stroke="#5801C4" stroke-width="2" stroke-linecap="round" stroke-linejoin="round"/>
<path d="M4 21.3333L5.33333 20" stroke="#5801C4" stroke-width="2" stroke-linecap="round" stroke-linejoin="round"/>
<path d="M12 24H20" stroke="#5801C4" stroke-width="2" stroke-linecap="round" stroke-linejoin="round"/>
<path d="M13.3333 28H18.6666" stroke="#5801C4" stroke-width="2" stroke-linecap="round" stroke-linejoin="round"/>
<path d="M15.9998 4C10.6663 4 7.93589 6.60039 7.99988 10.6667C8.03107 12.6492 8.66635 14 9.99988 15.3333C11.3334 16.6667 12.0001 17.3333 11.9999 20H19.9998C20.0001 17.3335 20.6667 16.6667 21.9997 15.3335C23.3329 14.0001 23.9687 12.6492 23.9998 10.6667C24.0638 6.60039 21.3334 4 15.9998 4Z" stroke="#5801C4" stroke-width="2" stroke-linecap="round" stroke-linejoin="round"/>
</svg>
