<svg width="32" height="32" viewBox="0 0 32 32" fill="none" xmlns="http://www.w3.org/2000/svg">
<path d="M29 3H3C2.46957 3 1.96086 3.21071 1.58579 3.58579C1.21071 3.96086 1 4.46957 1 5V21C1 21.5304 1.21071 22.0391 1.58579 22.4142C1.96086 22.7893 2.46957 23 3 23H8L14 29V23H29C29.5304 23 30.0391 22.7893 30.4142 22.4142C30.7893 22.0391 31 21.5304 31 21V5C31 4.46957 30.7893 3.96086 30.4142 3.58579C30.0391 3.21071 29.5304 3 29 3Z" stroke="#BB3EEC" stroke-width="2" stroke-linecap="round" stroke-linejoin="round"/>
<path d="M7 9H25" stroke="#BB3EEC" stroke-width="2" stroke-linecap="round" stroke-linejoin="round"/>
<path d="M7 13H25" stroke="#BB3EEC" stroke-width="2" stroke-linecap="round" stroke-linejoin="round"/>
<path d="M7 17H25" stroke="#BB3EEC" stroke-width="2" stroke-linecap="round" stroke-linejoin="round"/>
</svg>
