<svg width="32" height="32" viewBox="0 0 32 32" fill="none" xmlns="http://www.w3.org/2000/svg">
<g clip-path="url(#clip0_5030_1406)">
<path d="M16 29C13.4288 29 10.9154 28.2376 8.77759 26.8091C6.63975 25.3807 4.97351 23.3503 3.98957 20.9749C3.00563 18.5995 2.74819 15.9856 3.2498 13.4638C3.75141 10.9421 4.98953 8.6257 6.80762 6.80762C8.6257 4.98953 10.9421 3.75141 13.4638 3.2498C15.9856 2.74819 18.5995 3.00563 20.9749 3.98957C23.3503 4.97351 25.3807 6.63975 26.8091 8.77759C28.2376 10.9154 29 13.4288 29 16C29 19.4478 27.6304 22.7544 25.1924 25.1924C22.7544 27.6304 19.4478 29 16 29ZM16 5.00001C13.8244 5.00001 11.6977 5.64514 9.88873 6.85384C8.07979 8.06254 6.66989 9.7805 5.83733 11.7905C5.00477 13.8005 4.78693 16.0122 5.21137 18.146C5.63581 20.2798 6.68345 22.2398 8.22183 23.7782C9.76021 25.3166 11.7202 26.3642 13.854 26.7886C15.9878 27.2131 18.1995 26.9952 20.2095 26.1627C22.2195 25.3301 23.9375 23.9202 25.1462 22.1113C26.3549 20.3023 27 18.1756 27 16C27 13.0826 25.8411 10.2847 23.7782 8.22183C21.7153 6.15893 18.9174 5.00001 16 5.00001Z" fill="#5801C4"/>
<path d="M21.5 22.5C21.3684 22.5008 21.2379 22.4755 21.1161 22.4258C20.9943 22.376 20.8835 22.3027 20.79 22.21L15.29 16.71C15.1973 16.6166 15.124 16.5057 15.0742 16.3839C15.0245 16.2621 14.9993 16.1316 15 16V8C15 7.73478 15.1054 7.48043 15.2929 7.29289C15.4804 7.10536 15.7348 7 16 7C16.2652 7 16.5196 7.10536 16.7071 7.29289C16.8947 7.48043 17 7.73478 17 8V15.59L22.21 20.79C22.3037 20.883 22.3781 20.9936 22.4289 21.1154C22.4797 21.2373 22.5058 21.368 22.5058 21.5C22.5058 21.632 22.4797 21.7627 22.4289 21.8846C22.3781 22.0064 22.3037 22.117 22.21 22.21C22.1166 22.3027 22.0058 22.376 21.8839 22.4258C21.7621 22.4755 21.6316 22.5008 21.5 22.5Z" fill="#5801C4"/>
</g>
<defs>
<clipPath id="clip0_5030_1406">
<rect width="32" height="32" fill="white"/>
</clipPath>
</defs>
</svg>
