<svg width="76" height="28" viewBox="0 0 76 28" fill="none" xmlns="http://www.w3.org/2000/svg">
<circle cx="2" cy="2" r="2" fill="#3E3E3E"/>
<circle cx="10" cy="2" r="2" fill="#3E3E3E"/>
<circle cx="18" cy="2" r="2" fill="#3E3E3E"/>
<circle cx="26" cy="2" r="2" fill="#3E3E3E"/>
<circle cx="34" cy="2" r="2" fill="#3E3E3E"/>
<circle cx="42" cy="2" r="2" fill="#3E3E3E"/>
<circle cx="50" cy="2" r="2" fill="#3E3E3E"/>
<circle cx="58" cy="2" r="2" fill="#3E3E3E"/>
<circle cx="66" cy="2" r="2" fill="#3E3E3E"/>
<circle cx="74" cy="2" r="2" fill="#3E3E3E"/>
<circle cx="2" cy="10" r="2" fill="#3E3E3E"/>
<circle cx="10" cy="10" r="2" fill="#3E3E3E"/>
<circle cx="18" cy="10" r="2" fill="#3E3E3E"/>
<circle cx="26" cy="10" r="2" fill="#3E3E3E"/>
<circle cx="34" cy="10" r="2" fill="#3E3E3E"/>
<circle cx="42" cy="10" r="2" fill="#3E3E3E"/>
<circle cx="50" cy="10" r="2" fill="#3E3E3E"/>
<circle cx="58" cy="10" r="2" fill="#3E3E3E"/>
<circle cx="66" cy="10" r="2" fill="#3E3E3E"/>
<circle cx="74" cy="10" r="2" fill="#3E3E3E"/>
<circle cx="2" cy="18" r="2" fill="#3E3E3E"/>
<circle cx="10" cy="18" r="2" fill="#3E3E3E"/>
<circle cx="18" cy="18" r="2" fill="#3E3E3E"/>
<circle cx="26" cy="18" r="2" fill="#3E3E3E"/>
<circle cx="34" cy="18" r="2" fill="#3E3E3E"/>
<circle cx="42" cy="18" r="2" fill="#3E3E3E"/>
<circle cx="50" cy="18" r="2" fill="#3E3E3E"/>
<circle cx="58" cy="18" r="2" fill="#3E3E3E"/>
<circle cx="66" cy="18" r="2" fill="#3E3E3E"/>
<circle cx="74" cy="18" r="2" fill="#3E3E3E"/>
<circle cx="2" cy="26" r="2" fill="#3E3E3E"/>
<circle cx="10" cy="26" r="2" fill="#3E3E3E"/>
<circle cx="18" cy="26" r="2" fill="#3E3E3E"/>
<circle cx="26" cy="26" r="2" fill="#3E3E3E"/>
<circle cx="34" cy="26" r="2" fill="#3E3E3E"/>
<circle cx="42" cy="26" r="2" fill="#3E3E3E"/>
<circle cx="50" cy="26" r="2" fill="#3E3E3E"/>
<circle cx="58" cy="26" r="2" fill="#3E3E3E"/>
<circle cx="66" cy="26" r="2" fill="#3E3E3E"/>
<circle cx="74" cy="26" r="2" fill="#3E3E3E"/>
</svg>
