<svg width="48" height="48" viewBox="0 0 48 48" fill="none" xmlns="http://www.w3.org/2000/svg">
<path d="M40.689 22.8967C42.3615 21.9202 43.5 20.1262 43.5 18.0547V15.6982C43.5 13.4827 41.697 11.6797 39.4815 11.6797H35.517C33.303 11.6797 31.5 13.4812 31.5 15.6967V18.0532C31.5 20.1217 32.6355 21.9127 34.302 22.8907C32.934 23.5147 31.791 24.5212 31.026 25.8082C30.267 25.2967 29.4465 24.8602 28.5675 24.5227C29.448 23.4787 30 22.1482 30 20.6797V19.3477C30 16.7737 27.906 14.6797 25.332 14.6797H22.6695C20.0955 14.6797 18.0015 16.7737 18.0015 19.3477V20.6797C18.0015 22.1497 18.5535 23.4787 19.4325 24.5227C18.5535 24.8602 17.733 25.2967 16.974 25.8082C16.209 24.5227 15.066 23.5162 13.698 22.8907C15.3645 21.9142 16.5 20.1232 16.5 18.0547V15.6982C16.5 13.4827 14.697 11.6797 12.4815 11.6797H8.5185C6.303 11.6797 4.5 13.4812 4.5 15.6967V18.0532C4.5 20.1262 5.6385 21.9202 7.311 22.8952C4.773 24.0652 3 26.5597 3 29.4652C3 30.2932 3.672 30.9652 4.5 30.9652C5.328 30.9652 6 30.2932 6 29.4652C6 27.1012 8.019 25.1797 10.5 25.1797C12.333 25.1797 13.98 26.2642 14.6625 27.8392C13.0005 29.7517 12 32.1787 12 34.8217C12 35.6497 12.672 36.3217 13.5 36.3217C14.328 36.3217 15 35.6497 15 34.8217C15 30.3322 19.0365 26.6782 24 26.6782C28.9635 26.6782 33 30.3322 33 34.8217C33 35.6497 33.672 36.3217 34.5 36.3217C35.328 36.3217 36 35.6497 36 34.8217C36 32.1787 34.9995 29.7517 33.3375 27.8392C34.02 26.2642 35.667 25.1797 37.5 25.1797C39.981 25.1797 42 27.1027 42 29.4652C42 30.2932 42.672 30.9652 43.5 30.9652C44.328 30.9652 45 30.2932 45 29.4652C45 26.5597 43.227 24.0652 40.689 22.8967ZM7.5 15.6967C7.5 15.1357 7.9575 14.6782 8.5185 14.6782H12.483C13.0425 14.6797 13.5 15.1357 13.5 15.6967V18.0532C13.5 19.5007 12.3225 20.6782 10.875 20.6782H10.125C8.6775 20.6797 7.5 19.5007 7.5 18.0547V15.6967ZM21 20.6797V19.3477C21 18.4282 21.7485 17.6797 22.668 17.6797H25.3305C26.25 17.6797 26.9985 18.4282 26.9985 19.3477V20.6797C26.9985 22.3342 25.653 23.6797 23.9985 23.6797C22.344 23.6797 21 22.3342 21 20.6797ZM34.5 15.6967C34.5 15.1357 34.9575 14.6782 35.5185 14.6782H39.483C40.044 14.6782 40.5015 15.1357 40.5015 15.6967V18.0532C40.5015 19.5007 39.324 20.6782 37.8765 20.6782H37.1265C35.679 20.6782 34.5015 19.5007 34.5015 18.0532L34.5 15.6967Z" fill="#5801C4"/>
</svg>
