<svg width="34" height="34" viewBox="0 0 34 34" fill="none" xmlns="http://www.w3.org/2000/svg">
<path d="M24.3079 9.69523C23.7555 9.14261 23.432 8.40181 23.4022 7.62098C23.3724 6.84015 23.6385 6.07686 24.1472 5.48374C24.1893 5.43441 24.2112 5.37101 24.2085 5.30623C24.2058 5.24145 24.1787 5.18009 24.1326 5.13445L21.2021 2.20062C21.1537 2.1522 21.088 2.125 21.0195 2.125C20.951 2.125 20.8853 2.1522 20.8369 2.20062L16.1659 6.87163C15.9935 7.04393 15.8637 7.25402 15.7867 7.48523C15.7099 7.71697 15.5803 7.92765 15.408 8.10055C15.2356 8.27345 15.0254 8.40382 14.7939 8.48132C14.5625 8.55842 14.3523 8.68822 14.1796 8.8605L2.20062 20.8369C2.1522 20.8853 2.125 20.951 2.125 21.0195C2.125 21.088 2.1522 21.1537 2.20062 21.2021L5.13113 24.1326C5.17677 24.1787 5.23813 24.2058 5.30291 24.2085C5.36769 24.2112 5.43109 24.1893 5.48042 24.1472C6.07341 23.638 6.83687 23.3714 7.61797 23.4011C8.39907 23.4307 9.14015 23.7542 9.69287 24.307C10.2456 24.8597 10.5691 25.6008 10.5988 26.3819C10.6284 27.163 10.3619 27.9264 9.85261 28.5194C9.81053 28.5687 9.78866 28.6321 9.79137 28.6969C9.79408 28.7617 9.82117 28.8231 9.86722 28.8687L12.7977 31.7992C12.8462 31.8476 12.9119 31.8748 12.9803 31.8748C13.0488 31.8748 13.1145 31.8476 13.163 31.7992L25.1426 19.8202C25.3149 19.6476 25.4447 19.4373 25.5218 19.2059C25.5986 18.9742 25.7282 18.7635 25.9005 18.5906C26.0729 18.4177 26.2831 18.2873 26.5146 18.2098C26.7458 18.1328 26.9559 18.003 27.1282 17.8307L31.7992 13.1596C31.8476 13.1112 31.8748 13.0455 31.8748 12.977C31.8748 12.9085 31.8476 12.8428 31.7992 12.7944L28.8687 9.8639C28.8231 9.81785 28.7617 9.79076 28.6969 9.78805C28.6321 9.78534 28.5687 9.80721 28.5194 9.84929C27.9271 10.3589 27.1643 10.6261 26.3835 10.5975C25.6027 10.569 24.8614 10.2467 24.3079 9.69523Z" stroke="#FF9E2C" stroke-width="2" stroke-miterlimit="10"/>
<path d="M16.6347 9.32684L15.5383 8.23047" stroke="#FF9E2C" stroke-width="2" stroke-miterlimit="10" stroke-linecap="round"/>
<path d="M19.558 12.25L18.8269 11.5195" stroke="#FF9E2C" stroke-width="2" stroke-miterlimit="10" stroke-linecap="round"/>
<path d="M22.4812 15.1725L21.7507 14.4414" stroke="#FF9E2C" stroke-width="2" stroke-miterlimit="10" stroke-linecap="round"/>
<path d="M25.7702 18.4616L24.6738 17.3652" stroke="#FF9E2C" stroke-width="2" stroke-miterlimit="10" stroke-linecap="round"/>
</svg>
