<svg width="30" height="30" viewBox="0 0 30 30" fill="none" xmlns="http://www.w3.org/2000/svg">
<g clip-path="url(#clip0_4858_43)">
<path d="M7.5 22.5001C7.5 23.1876 8.0625 23.7501 8.75 23.7501H10V28.1251C10 29.1626 10.8375 30.0001 11.875 30.0001C12.9125 30.0001 13.75 29.1626 13.75 28.1251V23.7501H16.25V28.1251C16.25 29.1626 17.0875 30.0001 18.125 30.0001C19.1625 30.0001 20 29.1626 20 28.1251V23.7501H21.25C21.9375 23.7501 22.5 23.1876 22.5 22.5001V10.0001H7.5V22.5001ZM4.375 10.0001C3.3375 10.0001 2.5 10.8376 2.5 11.8751V20.6251C2.5 21.6626 3.3375 22.5001 4.375 22.5001C5.4125 22.5001 6.25 21.6626 6.25 20.6251V11.8751C6.25 10.8376 5.4125 10.0001 4.375 10.0001ZM25.625 10.0001C24.5875 10.0001 23.75 10.8376 23.75 11.8751V20.6251C23.75 21.6626 24.5875 22.5001 25.625 22.5001C26.6625 22.5001 27.5 21.6626 27.5 20.6251V11.8751C27.5 10.8376 26.6625 10.0001 25.625 10.0001ZM19.4125 2.7001L21.0437 1.06885C21.2875 0.825098 21.2875 0.431348 21.0437 0.187598C20.8 -0.0561523 20.4062 -0.0561523 20.1625 0.187598L18.3125 2.03135C17.3125 1.5376 16.1938 1.2501 15 1.2501C13.8 1.2501 12.675 1.5376 11.6687 2.0376L9.8125 0.181348C9.56875 -0.0624023 9.175 -0.0624023 8.93125 0.181348C8.6875 0.425098 8.6875 0.818848 8.93125 1.0626L10.5688 2.7001C8.7125 4.06885 7.5 6.26885 7.5 8.7501H22.5C22.5 6.2626 21.2812 4.0626 19.4125 2.7001ZM12.5 6.2501H11.25V5.0001H12.5V6.2501ZM18.75 6.2501H17.5V5.0001H18.75V6.2501Z" fill="#667682"/>
</g>
<defs>
<clipPath id="clip0_4858_43">
<rect width="30" height="30" fill="white"/>
</clipPath>
</defs>
</svg>
