<svg width="30" height="30" viewBox="0 0 30 30" fill="none" xmlns="http://www.w3.org/2000/svg">
  <g clip-path="url(#clip0_4858_9)">
    <path d="M15 22.6763C13.4766 22.6763 12.09 22.2656 10.8394 21.4462C9.58875 20.6259 8.65125 19.5713 8.02688 18.2822L1.875 7.5C0.585938 9.80531 0 12.3834 0 15C0 18.75 1.22063 22.0219 3.66188 24.8147C6.10313 27.6075 9.14063 29.2772 12.7734 29.8247L17.1244 22.2956C16.6866 22.4241 15.9563 22.6763 15 22.6763Z" fill="#808080"/>
    <path d="M10.2838 8.93531C11.6694 7.86188 13.2425 7.5 15.0004 7.5C15.2347 7.5 27.891 7.5 27.891 7.5C26.5625 5.235 24.756 3.32063 22.4713 1.99219C20.1857 0.664688 17.6957 0 15.0004 0C12.6566 0 10.4685 0.497812 8.43785 1.49437C6.40629 2.49 4.5266 3.94031 3.14941 5.80125L7.50035 13.125C7.92973 11.4459 8.89629 10.0106 10.2838 8.93531Z" fill="#808080"/>
    <path d="M28.8717 9.375H20.1558C21.6792 10.8984 22.6758 12.8522 22.6758 15C22.6758 16.6022 22.2267 18.0666 21.3277 19.395L15.1758 30C19.2773 29.9606 22.7733 28.4766 25.6645 25.5469C28.5539 22.6172 29.9995 19.1016 29.9995 15C29.9995 13.0866 29.677 11.0738 28.8717 9.375Z" fill="#808080"/>
    <path d="M15 20.625C18.1066 20.625 20.625 18.1066 20.625 15C20.625 11.8934 18.1066 9.375 15 9.375C11.8934 9.375 9.375 11.8934 9.375 15C9.375 18.1066 11.8934 20.625 15 20.625Z" fill="#808080"/>
  </g>
  <defs>
    <clipPath id="clip0_4858_9">
      <rect width="30" height="30" fill="white"/>
    </clipPath>
  </defs>
</svg>
