<svg width="30" height="30" viewBox="0 0 30 30" fill="none" xmlns="http://www.w3.org/2000/svg">
<g clip-path="url(#clip0_4858_29)">
<path d="M15.0989 0C15.1439 0 15.1902 0 15.2352 0.00125C18.9202 0.035 22.5839 1.35875 25.2864 3.6325C28.1427 6.03625 29.7164 9.29875 29.7164 12.8175C29.7164 16.5063 26.1252 19.5075 21.7114 19.5075C20.6002 19.5075 19.5252 19.3212 18.5152 18.9525C18.2389 18.8512 18.0402 18.6313 17.9714 18.3487C17.9002 18.06 17.9764 17.765 18.1802 17.5425C18.8789 16.775 19.2639 15.78 19.2639 14.7413C19.2639 13.7438 18.8764 12.685 18.4889 11.7762C18.0539 10.7562 17.4389 9.7875 16.6639 8.99125C14.9964 7.28 12.7127 6.4125 9.87641 6.4125C7.03891 6.4125 3.19391 7.12 0.995156 10.4875C0.987656 10.4988 0.980156 10.51 0.972656 10.5225C2.79266 4.435 8.44641 0 15.0989 0Z" fill="#667682"/>
<path d="M4.55352 25.6388C1.76602 22.8263 0.249772 19.0963 0.284772 15.1338C0.289772 15.0476 0.373522 13.6363 1.18602 12.0813C1.43102 11.6126 1.72602 11.1663 2.06102 10.7563C3.54352 8.94883 5.79602 8.05258 8.07977 7.80008C10.3385 7.55008 12.7685 7.74508 14.7323 8.98883C14.7348 8.99008 14.736 8.99133 14.7385 8.99258C15.8035 9.67008 16.711 10.6826 17.3148 11.7888L17.3173 11.7926C16.6373 11.3438 15.831 11.0913 14.9773 11.1001C14.306 11.1076 13.661 11.3176 13.0448 11.5676C11.0848 12.3663 9.55852 13.8513 8.61477 15.8851C7.69102 17.8763 7.42477 20.2138 7.86477 22.4676C8.31227 24.7563 9.47602 26.7826 11.1435 28.1738C11.5835 28.5413 12.0623 28.8676 12.5635 29.1438C13.2148 29.5026 13.916 29.7838 14.6323 29.9838C14.6485 29.9888 14.6635 29.9938 14.6798 29.9976C10.8473 29.9138 7.26227 28.3726 4.55352 25.6388Z" fill="#667682"/>
<path d="M28.0214 23.12C25.9651 26.3775 22.6489 28.745 18.9176 29.6175C18.5114 29.6362 18.1064 29.6375 17.7014 29.6162C16.1064 29.5362 14.5139 29.1212 13.1439 28.2862C12.8077 28.0812 12.4701 27.8412 12.1639 27.585C10.6326 26.3062 9.5614 24.4375 9.14765 22.3225C8.73765 20.2262 8.9839 18.0562 9.84015 16.2112C10.1764 15.4862 10.6126 14.8062 11.1426 14.2087C11.3376 13.9887 11.5464 13.78 11.7664 13.585C11.5101 14.1525 11.3739 14.78 11.3864 15.4237C11.4351 17.8462 12.5851 20.1125 14.6264 21.8062C16.6514 23.4862 19.3277 24.4125 22.1614 24.4125C24.2051 24.4125 26.1939 23.925 27.9126 23.0025C27.9277 22.995 27.9677 22.9737 28.0114 23.02C28.0552 23.0662 28.0301 23.105 28.0214 23.12Z" fill="#667682"/>
</g>
<defs>
<clipPath id="clip0_4858_29">
<rect width="30" height="30" fill="white"/>
</clipPath>
</defs>
</svg>
