<svg width="32" height="32" viewBox="0 0 32 32" fill="none" xmlns="http://www.w3.org/2000/svg">
<path d="M26.1299 4.85974C26.0462 4.77712 25.9616 4.69555 25.876 4.61499C25.9602 4.69637 26.045 4.77793 26.1299 4.85974Z" fill="#3DFF1F"/>
<path d="M1.40302 13.0498C1.40302 13.0498 1.35995 13.1025 1.29514 13.1903C1.28589 13.2382 1.27633 13.2861 1.26758 13.3342C1.30833 13.2207 1.35327 13.1245 1.40302 13.0498Z" fill="#667682"/>
<path d="M5.68827 6.12855C5.71602 6.10037 5.74314 6.07168 5.77114 6.04368C7.06283 4.75199 8.56677 3.73793 10.2413 3.02974C11.9745 2.29662 13.8161 1.92487 15.7148 1.92487C17.5071 1.92487 19.2484 2.25649 20.8958 2.91024C21.8581 3.07649 23.1407 3.39662 24.2093 4.00412C21.8113 2.30112 18.88 1.2998 15.7148 1.2998C11.6112 1.2998 7.90127 2.98343 5.23633 5.69681C5.36033 5.84749 5.50964 5.99281 5.68827 6.12855Z" fill="#667682"/>
<path d="M10.9023 17.1749C10.8001 17.0897 10.7127 16.9987 10.6382 16.9037C10.6131 17.1135 10.5965 17.3392 10.5966 17.5762C10.5965 18.0177 10.6517 18.4943 10.8026 18.9667C10.9537 19.4394 11.199 19.9082 11.5858 20.3434C11.8438 20.6335 12.1653 20.9091 12.5675 21.1596L12.545 21.1958C13.3003 21.2095 14.5295 21.195 15.1523 20.9874C16.0898 20.6749 17.5898 19.4874 17.5898 19.4874C17.9648 19.1124 18.4023 19.2999 18.7773 19.2999C19.1523 19.2999 19.2773 18.7374 18.7773 18.1749C18.2773 17.6124 16.5273 17.0499 15.2148 17.9249C13.9023 18.7999 12.0273 18.1124 10.9023 17.1749ZM11.8083 8.92649C11.7247 9.23799 11.6522 9.63331 11.6523 10.0632C11.6524 10.4971 11.7251 10.9638 11.9292 11.4229C12.0929 11.7912 12.2475 12.0613 12.388 12.2782C12.4868 12.4306 12.5789 12.5566 12.6651 12.6739C12.841 12.5119 13.0467 12.3495 13.2149 12.2374C13.5899 11.9874 15.0274 11.2999 15.2149 11.1124C15.4024 10.9249 15.7774 9.92487 15.4649 9.61237C15.1524 9.29987 13.1524 9.48737 12.5274 9.36237C12.264 9.30968 12.012 9.12387 11.8083 8.92649ZM12.2119 15.042C12.2138 15.0469 12.2148 15.0498 12.2148 15.0498C12.2173 15.045 12.2193 15.0399 12.2217 15.035L12.2119 15.042ZM30.7148 12.2373C30.7148 12.7454 30.256 13.4573 30.1672 13.5902C30.1857 13.5431 30.2148 13.3942 30.2148 12.9248C30.2148 12.2373 30.4023 10.4873 29.5273 8.5498C28.6523 6.6123 27.3398 5.6748 27.3398 5.6748V6.1123C27.1523 5.4873 25.4023 4.2998 25.4023 4.2998V4.9248C28.5273 7.7998 28.8398 9.7998 28.8398 9.7998C28.2773 7.9873 26.6523 6.6123 25.2773 5.2998C23.9023 3.9873 21.0273 3.2998 21.0273 3.2998C24.0898 5.0498 25.5898 7.7998 25.5898 7.7998C24.0273 6.2998 22.7773 6.4248 22.7773 6.4248C23.7148 7.1123 24.1523 7.8623 25.0273 9.2373C25.9023 10.6123 25.8398 13.8623 25.8398 13.8623C25.4023 12.7998 24.5273 12.3623 24.5273 12.3623C24.5273 12.3623 24.7148 14.2373 24.8398 15.2998C24.9648 16.3623 24.4023 18.3623 24.4023 18.3623C24.4023 17.6123 23.9648 17.4248 23.9648 17.4248C23.9648 17.4248 24.0898 17.8623 23.4648 19.8623C22.8398 21.8623 21.6523 22.5498 21.4648 22.4873C21.2773 22.4248 21.4648 22.1123 21.4648 22.1123C21.4648 22.1123 21.1523 21.8623 20.7148 22.5498C20.3458 23.1296 19.7101 23.4427 19.5201 23.5266C19.7239 23.4109 19.7773 22.9873 19.7773 22.9873C19.7773 22.9873 19.3398 23.2373 17.3398 23.5498C15.3398 23.8623 14.4023 22.9873 14.4023 22.9873C14.5898 22.7998 15.4648 22.9873 15.4648 22.9873C15.4648 22.7998 14.4648 22.4873 13.4648 22.3623C12.6518 22.2607 12.2577 21.8836 12.069 21.5812C11.6941 21.3292 11.3796 21.052 11.1187 20.7586C10.8197 20.4224 10.5914 20.0652 10.4212 19.7027C10.0804 18.977 9.97166 18.2332 9.97159 17.5761C9.97172 16.9556 10.0682 16.41 10.1647 16.0164C10.2612 15.6229 10.3581 15.3812 10.3625 15.3704L10.3758 15.3758C10.4932 15.0146 10.7236 14.7242 10.9963 14.6059C10.9108 14.5475 10.823 14.4932 10.7323 14.4453C10.3242 14.2271 9.8616 14.1364 9.40691 14.2119C8.95122 14.2841 8.51497 14.5099 8.12722 14.8062C7.75516 15.0901 7.45903 15.4943 7.26478 15.9404C7.06916 16.3881 6.97116 16.8821 6.97122 17.3786C6.97078 17.8754 7.06853 18.3746 7.24872 18.8447C7.42841 19.3155 7.68928 19.7571 8.00459 20.1569C8.31997 20.5574 8.68922 20.9167 9.08978 21.2373C8.67203 20.9394 8.28103 20.5997 7.93884 20.2117C7.59684 19.8244 7.30416 19.388 7.09059 18.9103C6.87672 18.4334 6.74359 17.9152 6.71453 17.3858C6.68509 16.8569 6.75941 16.3176 6.94722 15.8127C7.13541 15.3087 7.43453 14.8371 7.86028 14.4719C8.06597 14.2996 8.28984 14.1431 8.53291 14.0136C8.77566 13.8841 9.03953 13.783 9.31728 13.7261C9.59466 13.6691 9.88528 13.6583 10.1687 13.6978C10.4523 13.7364 10.7272 13.8236 10.9816 13.9444C11.2365 14.0653 11.4718 14.2188 11.6873 14.3934C11.7951 14.4808 11.8981 14.5735 11.9963 14.6717C12.0455 14.7207 12.0934 14.7712 12.1403 14.8234C12.1793 14.8673 12.2153 14.9089 12.2543 14.9583C12.477 14.381 12.3209 13.416 12.2843 13.2134C12.1665 13.0466 11.9992 12.8361 11.8108 12.5356C11.6687 12.3088 11.5151 12.0306 11.3578 11.6767C11.1118 11.1233 11.0271 10.5662 11.0272 10.0631C11.0273 9.47549 11.1415 8.95905 11.2552 8.58643C11.2903 8.47155 11.3253 8.37037 11.3573 8.28493C11.7105 6.74862 13.4022 5.2373 13.4022 5.2373C11.0272 4.9248 9.40216 7.1123 9.40216 7.1123C9.39559 7.10824 9.38884 7.10462 9.38222 7.10062C9.21378 7.2873 8.64284 7.95505 8.58966 8.4873C8.58966 8.4873 8.60941 7.5308 8.84859 6.86205C7.94241 6.5733 6.87584 6.72418 6.32884 6.83755L6.33241 6.85743C5.77191 6.95799 5.25997 7.17368 4.80516 7.44518C4.35053 7.71649 3.95397 8.04337 3.62809 8.35999C2.97709 8.99187 2.60959 9.58205 2.60578 9.58862L2.60584 9.58887L2.58822 9.57799C1.43791 11.2451 0.714844 14.7999 0.714844 14.7999C0.839844 14.2374 1.40234 13.5499 1.40234 13.5499C0.777344 14.4874 0.902344 18.7999 0.902344 18.7999C0.902344 18.1124 1.27734 17.2999 1.27734 17.2999C1.40234 18.7374 2.02734 23.3624 6.08984 26.8624C10.1523 30.3624 13.5898 30.6749 13.5898 30.6749C12.7773 30.4249 12.5898 30.0499 12.5898 30.0499C15.2148 31.1124 16.8398 30.9249 16.8398 30.9249C16.4023 30.6749 16.3398 30.4874 16.3398 30.4874C19.1523 30.6124 22.9023 29.6124 23.7773 28.9874C24.6523 28.3624 25.4023 27.1124 25.4023 27.1124C27.6523 26.0499 29.2148 23.8624 29.6523 22.7374C30.0898 21.6124 29.6523 20.4249 29.6523 20.4249C29.6523 20.4249 29.6523 20.3624 30.7148 17.9874C31.7773 15.6124 30.7148 12.2373 30.7148 12.2373ZM4.47303 6.91568C4.73666 6.75749 5.02122 6.61468 5.32472 6.4968C4.12141 5.49462 4.21484 4.17487 4.21484 4.17487C3.01084 5.33737 2.71703 7.29937 2.65541 8.48587C2.67241 8.46593 2.68934 8.44599 2.70709 8.42562C3.11441 7.95712 3.70891 7.37456 4.47303 6.91568Z" fill="#667682"/>
</svg>
