<svg width="40" height="40" viewBox="0 0 40 40" fill="none" xmlns="http://www.w3.org/2000/svg">
<g clip-path="url(#clip0_4858_50)">
<path d="M25.7541 8.08106C25.4723 8.94578 25.0164 9.74722 24.467 10.4138V10.415C23.9126 11.0854 23.172 11.6781 22.3482 12.0711C21.5921 12.4318 20.7632 12.626 19.9385 12.5617L19.6861 12.5421L19.6528 12.2907C19.5457 11.4802 19.6694 10.6597 19.93 9.90036C20.2333 9.01675 20.7245 8.21051 21.2516 7.59958L21.2515 7.59949C21.7969 6.96054 22.5284 6.40461 23.3118 6.00181C24.0978 5.59763 24.942 5.3449 25.7103 5.31359L26.0007 5.30176L26.0325 5.59191C26.1256 6.44051 26.0124 7.28817 25.7541 8.08106Z" fill="#667682"/>
<path d="M31.0944 15.7044C30.8159 15.8766 28.1247 17.5419 28.1581 20.8985C28.1933 24.945 31.6244 26.3477 31.8138 26.4251H31.815L31.8232 26.4285L32.0924 26.54L32.0002 26.8155C31.9947 26.8318 32.0009 26.8144 31.9929 26.8401C31.9054 27.1205 31.3119 29.0219 29.9712 30.981C29.3629 31.8696 28.7431 32.7569 28.0112 33.4413C27.2535 34.15 26.3882 34.6283 25.3191 34.6482C24.3115 34.6671 23.6518 34.3817 22.9661 34.085C22.3122 33.802 21.6322 33.5078 20.5681 33.5078C19.4502 33.5078 18.7357 33.8122 18.0474 34.1054C17.3995 34.3814 16.7729 34.6484 15.8702 34.6844H15.8689C14.8266 34.7231 13.9227 34.215 13.1194 33.4624C12.3508 32.7424 11.6775 31.7995 11.0639 30.912C9.67877 28.912 8.47418 26.002 8.10201 23.043C7.7959 20.6091 8.05177 18.1366 9.22849 16.0947C9.88539 14.9522 10.8035 14.0198 11.8769 13.3693C12.9454 12.7217 14.1679 12.3531 15.4404 12.334V12.334C16.5545 12.3138 17.6049 12.7307 18.5241 13.0954C19.1746 13.3536 19.7541 13.5836 20.1886 13.5836C20.5725 13.5836 21.1383 13.3605 21.7979 13.1004C22.9119 12.6612 24.2748 12.124 25.7159 12.2673C26.3211 12.2936 27.5816 12.4386 28.8702 13.1369C29.691 13.5818 30.5236 14.2497 31.2081 15.2514L31.3885 15.5155L31.119 15.6896C31.1045 15.6989 31.1186 15.6894 31.0944 15.7044Z" fill="#667682"/>
</g>
<defs>
<clipPath id="clip0_4858_50">
<rect width="40" height="40" fill="white"/>
</clipPath>
</defs>
</svg>
