<svg width="280" height="163" viewBox="0 0 280 163" fill="none" xmlns="http://www.w3.org/2000/svg">
<g clip-path="url(#clip0_2469_20)">
<path d="M323.73 122.44H68.72C41.85 122.44 20 100.58 20 73.72C20 46.85 41.85 25 68.72 25H323.73V122.44Z" fill="#FB7044"/>
</g>
<g clip-path="url(#clip1_2469_20)">
<path d="M303.23 141.94H48.72C22.1262 141.94 0.5 120.304 0.5 93.72C0.5 67.1261 22.1261 45.5 48.72 45.5H303.23V141.94Z" stroke="#6E225B"/>
</g>
<circle cx="167.295" cy="69.1947" r="1.80508" fill="#6E225B"/>
<circle cx="176.922" cy="69.1947" r="1.80508" fill="#6E225B"/>
<circle cx="186.549" cy="69.1947" r="1.80508" fill="#6E225B"/>
<circle cx="196.176" cy="69.1947" r="1.80508" fill="#6E225B"/>
<circle cx="205.803" cy="69.1947" r="1.80508" fill="#6E225B"/>
<circle cx="215.43" cy="69.1947" r="1.80508" fill="#6E225B"/>
<circle cx="225.059" cy="69.1947" r="1.80508" fill="#6E225B"/>
<circle cx="234.686" cy="69.1947" r="1.80508" fill="#6E225B"/>
<circle cx="244.313" cy="69.1947" r="1.80508" fill="#6E225B"/>
<circle cx="253.94" cy="69.1947" r="1.80508" fill="#6E225B"/>
<circle cx="263.567" cy="69.1947" r="1.80508" fill="#6E225B"/>
<circle cx="273.194" cy="69.1947" r="1.80508" fill="#6E225B"/>
<circle cx="167.295" cy="59.5678" r="1.80508" fill="#6E225B"/>
<circle cx="176.922" cy="59.5678" r="1.80508" fill="#6E225B"/>
<circle cx="186.549" cy="59.5678" r="1.80508" fill="#6E225B"/>
<circle cx="196.176" cy="59.5678" r="1.80508" fill="#6E225B"/>
<circle cx="205.803" cy="59.5678" r="1.80508" fill="#6E225B"/>
<circle cx="215.43" cy="59.5678" r="1.80508" fill="#6E225B"/>
<circle cx="225.059" cy="59.5678" r="1.80508" fill="#6E225B"/>
<circle cx="234.686" cy="59.5678" r="1.80508" fill="#6E225B"/>
<circle cx="244.313" cy="59.5678" r="1.80508" fill="#6E225B"/>
<circle cx="253.94" cy="59.5678" r="1.80508" fill="#6E225B"/>
<circle cx="263.567" cy="59.5678" r="1.80508" fill="#6E225B"/>
<circle cx="273.194" cy="59.5678" r="1.80508" fill="#6E225B"/>
<circle cx="167.295" cy="49.9403" r="1.80508" fill="#6E225B"/>
<circle cx="176.922" cy="49.9403" r="1.80508" fill="#6E225B"/>
<circle cx="186.549" cy="49.9403" r="1.80508" fill="#6E225B"/>
<circle cx="196.176" cy="49.9403" r="1.80508" fill="#6E225B"/>
<circle cx="205.803" cy="49.9403" r="1.80508" fill="#6E225B"/>
<circle cx="215.43" cy="49.9403" r="1.80508" fill="#6E225B"/>
<circle cx="225.059" cy="49.9403" r="1.80508" fill="#6E225B"/>
<circle cx="234.686" cy="49.9403" r="1.80508" fill="#6E225B"/>
<circle cx="244.313" cy="49.9403" r="1.80508" fill="#6E225B"/>
<circle cx="253.94" cy="49.9403" r="1.80508" fill="#6E225B"/>
<circle cx="263.567" cy="49.9403" r="1.80508" fill="#6E225B"/>
<circle cx="273.194" cy="49.9403" r="1.80508" fill="#6E225B"/>
<circle cx="167.295" cy="40.3134" r="1.80508" fill="#6E225B"/>
<circle cx="176.922" cy="40.3134" r="1.80508" fill="#6E225B"/>
<circle cx="186.549" cy="40.3134" r="1.80508" fill="#6E225B"/>
<circle cx="196.176" cy="40.3134" r="1.80508" fill="#6E225B"/>
<circle cx="205.803" cy="40.3134" r="1.80508" fill="#6E225B"/>
<circle cx="215.43" cy="40.3134" r="1.80508" fill="#6E225B"/>
<circle cx="225.059" cy="40.3134" r="1.80508" fill="#6E225B"/>
<circle cx="234.686" cy="40.3134" r="1.80508" fill="#6E225B"/>
<circle cx="244.313" cy="40.3134" r="1.80508" fill="#6E225B"/>
<circle cx="253.94" cy="40.3134" r="1.80508" fill="#6E225B"/>
<circle cx="263.567" cy="40.3134" r="1.80508" fill="#6E225B"/>
<circle cx="273.194" cy="40.3134" r="1.80508" fill="#6E225B"/>
<circle cx="167.295" cy="30.6864" r="1.80508" fill="#6E225B"/>
<circle cx="176.922" cy="30.6864" r="1.80508" fill="#6E225B"/>
<circle cx="186.549" cy="30.6864" r="1.80508" fill="#6E225B"/>
<circle cx="196.176" cy="30.6864" r="1.80508" fill="#6E225B"/>
<circle cx="205.803" cy="30.6864" r="1.80508" fill="#6E225B"/>
<circle cx="215.43" cy="30.6864" r="1.80508" fill="#6E225B"/>
<circle cx="225.059" cy="30.6864" r="1.80508" fill="#6E225B"/>
<circle cx="234.686" cy="30.6864" r="1.80508" fill="#6E225B"/>
<circle cx="244.313" cy="30.6864" r="1.80508" fill="#6E225B"/>
<circle cx="253.94" cy="30.6864" r="1.80508" fill="#6E225B"/>
<circle cx="263.567" cy="30.6864" r="1.80508" fill="#6E225B"/>
<circle cx="273.194" cy="30.6864" r="1.80508" fill="#6E225B"/>
<circle cx="167.295" cy="21.0595" r="1.80508" fill="#6E225B"/>
<circle cx="176.922" cy="21.0595" r="1.80508" fill="#6E225B"/>
<circle cx="186.549" cy="21.0595" r="1.80508" fill="#6E225B"/>
<circle cx="196.176" cy="21.0595" r="1.80508" fill="#6E225B"/>
<circle cx="205.803" cy="21.0595" r="1.80508" fill="#6E225B"/>
<circle cx="215.43" cy="21.0595" r="1.80508" fill="#6E225B"/>
<circle cx="225.059" cy="21.0595" r="1.80508" fill="#6E225B"/>
<circle cx="234.686" cy="21.0595" r="1.80508" fill="#6E225B"/>
<circle cx="244.313" cy="21.0595" r="1.80508" fill="#6E225B"/>
<circle cx="253.94" cy="21.0595" r="1.80508" fill="#6E225B"/>
<circle cx="263.567" cy="21.0595" r="1.80508" fill="#6E225B"/>
<circle cx="273.194" cy="21.0595" r="1.80508" fill="#6E225B"/>
<circle cx="167.295" cy="11.432" r="1.80508" fill="#6E225B"/>
<circle cx="176.922" cy="11.432" r="1.80508" fill="#6E225B"/>
<circle cx="186.549" cy="11.432" r="1.80508" fill="#6E225B"/>
<circle cx="196.176" cy="11.432" r="1.80508" fill="#6E225B"/>
<circle cx="205.803" cy="11.432" r="1.80508" fill="#6E225B"/>
<circle cx="215.43" cy="11.432" r="1.80508" fill="#6E225B"/>
<circle cx="225.059" cy="11.432" r="1.80508" fill="#6E225B"/>
<circle cx="234.686" cy="11.432" r="1.80508" fill="#6E225B"/>
<circle cx="244.313" cy="11.432" r="1.80508" fill="#6E225B"/>
<circle cx="253.94" cy="11.432" r="1.80508" fill="#6E225B"/>
<circle cx="263.567" cy="11.432" r="1.80508" fill="#6E225B"/>
<circle cx="273.194" cy="11.432" r="1.80508" fill="#6E225B"/>
<circle cx="167.295" cy="1.80508" r="1.80508" fill="#6E225B"/>
<circle cx="176.922" cy="1.80508" r="1.80508" fill="#6E225B"/>
<circle cx="186.549" cy="1.80508" r="1.80508" fill="#6E225B"/>
<circle cx="196.176" cy="1.80508" r="1.80508" fill="#6E225B"/>
<circle cx="205.803" cy="1.80508" r="1.80508" fill="#6E225B"/>
<circle cx="215.43" cy="1.80508" r="1.80508" fill="#6E225B"/>
<circle cx="225.059" cy="1.80508" r="1.80508" fill="#6E225B"/>
<circle cx="234.686" cy="1.80508" r="1.80508" fill="#6E225B"/>
<circle cx="244.313" cy="1.80508" r="1.80508" fill="#6E225B"/>
<circle cx="253.94" cy="1.80508" r="1.80508" fill="#6E225B"/>
<circle cx="263.567" cy="1.80508" r="1.80508" fill="#6E225B"/>
<circle cx="273.194" cy="1.80508" r="1.80508" fill="#6E225B"/>
<defs>
<clipPath id="clip0_2469_20">
<rect width="303.73" height="117.05" fill="white" transform="translate(20 25)"/>
</clipPath>
<clipPath id="clip1_2469_20">
<rect width="303.73" height="117.05" fill="white" transform="translate(0 45)"/>
</clipPath>
</defs>
</svg>
