<svg width="1440" height="682" viewBox="0 0 1440 682" fill="none" xmlns="http://www.w3.org/2000/svg">
<path d="M1440 0H0V681H1440V0Z" fill="#F5F5F5"/>
<mask id="mask0_2057_184" style="mask-type:luminance" maskUnits="userSpaceOnUse" x="1180" y="124" width="304" height="118">
<path d="M1483.73 124H1180V241.05H1483.73V124Z" fill="white"/>
</mask>
<g mask="url(#mask0_2057_184)">
<path d="M1483.73 221.44H1228.72C1201.85 221.44 1180 199.58 1180 172.72C1180 145.85 1201.85 124 1228.72 124H1483.73V221.44Z" fill="#FB7044"/>
</g>
<mask id="mask1_2057_184" style="mask-type:luminance" maskUnits="userSpaceOnUse" x="1160" y="144" width="304" height="118">
<path d="M1463.73 144H1160V261.05H1463.73V144Z" fill="white"/>
</mask>
<g mask="url(#mask1_2057_184)">
<path d="M1463.23 240.94H1208.72C1182.13 240.94 1160.5 219.304 1160.5 192.72C1160.5 166.126 1182.13 144.5 1208.72 144.5H1463.23V240.94Z" stroke="#6E225B"/>
</g>
<path d="M1327.3 170C1328.3 170 1329.11 169.192 1329.11 168.195C1329.11 167.198 1328.3 166.39 1327.3 166.39C1326.3 166.39 1325.5 167.198 1325.5 168.195C1325.5 169.192 1326.3 170 1327.3 170Z" fill="#6E225B"/>
<path d="M1336.92 170C1337.92 170 1338.73 169.192 1338.73 168.195C1338.73 167.198 1337.92 166.39 1336.92 166.39C1335.92 166.39 1335.12 167.198 1335.12 168.195C1335.12 169.192 1335.92 170 1336.92 170Z" fill="#6E225B"/>
<path d="M1346.55 170C1347.55 170 1348.36 169.192 1348.36 168.195C1348.36 167.198 1347.55 166.39 1346.55 166.39C1345.55 166.39 1344.75 167.198 1344.75 168.195C1344.75 169.192 1345.55 170 1346.55 170Z" fill="#6E225B"/>
<path d="M1356.18 170C1357.18 170 1357.99 169.192 1357.99 168.195C1357.99 167.198 1357.18 166.39 1356.18 166.39C1355.18 166.39 1354.38 167.198 1354.38 168.195C1354.38 169.192 1355.18 170 1356.18 170Z" fill="#6E225B"/>
<path d="M1365.8 170C1366.8 170 1367.61 169.192 1367.61 168.195C1367.61 167.198 1366.8 166.39 1365.8 166.39C1364.8 166.39 1364 167.198 1364 168.195C1364 169.192 1364.8 170 1365.8 170Z" fill="#6E225B"/>
<path d="M1375.43 170C1376.43 170 1377.24 169.192 1377.24 168.195C1377.24 167.198 1376.43 166.39 1375.43 166.39C1374.43 166.39 1373.62 167.198 1373.62 168.195C1373.62 169.192 1374.43 170 1375.43 170Z" fill="#6E225B"/>
<path d="M1385.06 170C1386.06 170 1386.87 169.192 1386.87 168.195C1386.87 167.198 1386.06 166.39 1385.06 166.39C1384.06 166.39 1383.25 167.198 1383.25 168.195C1383.25 169.192 1384.06 170 1385.06 170Z" fill="#6E225B"/>
<path d="M1394.68 170C1395.68 170 1396.49 169.192 1396.49 168.195C1396.49 167.198 1395.68 166.39 1394.68 166.39C1393.68 166.39 1392.88 167.198 1392.88 168.195C1392.88 169.192 1393.68 170 1394.68 170Z" fill="#6E225B"/>
<path d="M1404.31 170C1405.31 170 1406.12 169.192 1406.12 168.195C1406.12 167.198 1405.31 166.39 1404.31 166.39C1403.31 166.39 1402.5 167.198 1402.5 168.195C1402.5 169.192 1403.31 170 1404.31 170Z" fill="#6E225B"/>
<path d="M1413.94 170C1414.94 170 1415.74 169.192 1415.74 168.195C1415.74 167.198 1414.94 166.39 1413.94 166.39C1412.94 166.39 1412.13 167.198 1412.13 168.195C1412.13 169.192 1412.94 170 1413.94 170Z" fill="#6E225B"/>
<path d="M1423.57 170C1424.57 170 1425.37 169.192 1425.37 168.195C1425.37 167.198 1424.57 166.39 1423.57 166.39C1422.57 166.39 1421.76 167.198 1421.76 168.195C1421.76 169.192 1422.57 170 1423.57 170Z" fill="#6E225B"/>
<path d="M1433.19 170C1434.19 170 1434.99 169.192 1434.99 168.195C1434.99 167.198 1434.19 166.39 1433.19 166.39C1432.19 166.39 1431.38 167.198 1431.38 168.195C1431.38 169.192 1432.19 170 1433.19 170Z" fill="#6E225B"/>
<path d="M1327.3 160.373C1328.3 160.373 1329.11 159.565 1329.11 158.568C1329.11 157.571 1328.3 156.763 1327.3 156.763C1326.3 156.763 1325.5 157.571 1325.5 158.568C1325.5 159.565 1326.3 160.373 1327.3 160.373Z" fill="#6E225B"/>
<path d="M1336.92 160.373C1337.92 160.373 1338.73 159.565 1338.73 158.568C1338.73 157.571 1337.92 156.763 1336.92 156.763C1335.92 156.763 1335.12 157.571 1335.12 158.568C1335.12 159.565 1335.92 160.373 1336.92 160.373Z" fill="#6E225B"/>
<path d="M1346.55 160.373C1347.55 160.373 1348.36 159.565 1348.36 158.568C1348.36 157.571 1347.55 156.763 1346.55 156.763C1345.55 156.763 1344.75 157.571 1344.75 158.568C1344.75 159.565 1345.55 160.373 1346.55 160.373Z" fill="#6E225B"/>
<path d="M1356.18 160.373C1357.18 160.373 1357.99 159.565 1357.99 158.568C1357.99 157.571 1357.18 156.763 1356.18 156.763C1355.18 156.763 1354.38 157.571 1354.38 158.568C1354.38 159.565 1355.18 160.373 1356.18 160.373Z" fill="#6E225B"/>
<path d="M1365.8 160.373C1366.8 160.373 1367.61 159.565 1367.61 158.568C1367.61 157.571 1366.8 156.763 1365.8 156.763C1364.8 156.763 1364 157.571 1364 158.568C1364 159.565 1364.8 160.373 1365.8 160.373Z" fill="#6E225B"/>
<path d="M1375.43 160.373C1376.43 160.373 1377.24 159.565 1377.24 158.568C1377.24 157.571 1376.43 156.763 1375.43 156.763C1374.43 156.763 1373.62 157.571 1373.62 158.568C1373.62 159.565 1374.43 160.373 1375.43 160.373Z" fill="#6E225B"/>
<path d="M1385.06 160.373C1386.06 160.373 1386.87 159.565 1386.87 158.568C1386.87 157.571 1386.06 156.763 1385.06 156.763C1384.06 156.763 1383.25 157.571 1383.25 158.568C1383.25 159.565 1384.06 160.373 1385.06 160.373Z" fill="#6E225B"/>
<path d="M1394.68 160.373C1395.68 160.373 1396.49 159.565 1396.49 158.568C1396.49 157.571 1395.68 156.763 1394.68 156.763C1393.68 156.763 1392.88 157.571 1392.88 158.568C1392.88 159.565 1393.68 160.373 1394.68 160.373Z" fill="#6E225B"/>
<path d="M1404.31 160.373C1405.31 160.373 1406.12 159.565 1406.12 158.568C1406.12 157.571 1405.31 156.763 1404.31 156.763C1403.31 156.763 1402.5 157.571 1402.5 158.568C1402.5 159.565 1403.31 160.373 1404.31 160.373Z" fill="#6E225B"/>
<path d="M1413.94 160.373C1414.94 160.373 1415.74 159.565 1415.74 158.568C1415.74 157.571 1414.94 156.763 1413.94 156.763C1412.94 156.763 1412.13 157.571 1412.13 158.568C1412.13 159.565 1412.94 160.373 1413.94 160.373Z" fill="#6E225B"/>
<path d="M1423.57 160.373C1424.57 160.373 1425.37 159.565 1425.37 158.568C1425.37 157.571 1424.57 156.763 1423.57 156.763C1422.57 156.763 1421.76 157.571 1421.76 158.568C1421.76 159.565 1422.57 160.373 1423.57 160.373Z" fill="#6E225B"/>
<path d="M1433.19 160.373C1434.19 160.373 1434.99 159.565 1434.99 158.568C1434.99 157.571 1434.19 156.763 1433.19 156.763C1432.19 156.763 1431.38 157.571 1431.38 158.568C1431.38 159.565 1432.19 160.373 1433.19 160.373Z" fill="#6E225B"/>
<path d="M1327.3 150.746C1328.3 150.746 1329.11 149.938 1329.11 148.941C1329.11 147.944 1328.3 147.136 1327.3 147.136C1326.3 147.136 1325.5 147.944 1325.5 148.941C1325.5 149.938 1326.3 150.746 1327.3 150.746Z" fill="#6E225B"/>
<path d="M1336.92 150.746C1337.92 150.746 1338.73 149.938 1338.73 148.941C1338.73 147.944 1337.92 147.136 1336.92 147.136C1335.92 147.136 1335.12 147.944 1335.12 148.941C1335.12 149.938 1335.92 150.746 1336.92 150.746Z" fill="#6E225B"/>
<path d="M1346.55 150.746C1347.55 150.746 1348.36 149.938 1348.36 148.941C1348.36 147.944 1347.55 147.136 1346.55 147.136C1345.55 147.136 1344.75 147.944 1344.75 148.941C1344.75 149.938 1345.55 150.746 1346.55 150.746Z" fill="#6E225B"/>
<path d="M1356.18 150.746C1357.18 150.746 1357.99 149.938 1357.99 148.941C1357.99 147.944 1357.18 147.136 1356.18 147.136C1355.18 147.136 1354.38 147.944 1354.38 148.941C1354.38 149.938 1355.18 150.746 1356.18 150.746Z" fill="#6E225B"/>
<path d="M1365.8 150.746C1366.8 150.746 1367.61 149.938 1367.61 148.941C1367.61 147.944 1366.8 147.136 1365.8 147.136C1364.8 147.136 1364 147.944 1364 148.941C1364 149.938 1364.8 150.746 1365.8 150.746Z" fill="#6E225B"/>
<path d="M1375.43 150.746C1376.43 150.746 1377.24 149.938 1377.24 148.941C1377.24 147.944 1376.43 147.136 1375.43 147.136C1374.43 147.136 1373.62 147.944 1373.62 148.941C1373.62 149.938 1374.43 150.746 1375.43 150.746Z" fill="#6E225B"/>
<path d="M1385.06 150.746C1386.06 150.746 1386.87 149.938 1386.87 148.941C1386.87 147.944 1386.06 147.136 1385.06 147.136C1384.06 147.136 1383.25 147.944 1383.25 148.941C1383.25 149.938 1384.06 150.746 1385.06 150.746Z" fill="#6E225B"/>
<path d="M1394.68 150.746C1395.68 150.746 1396.49 149.938 1396.49 148.941C1396.49 147.944 1395.68 147.136 1394.68 147.136C1393.68 147.136 1392.88 147.944 1392.88 148.941C1392.88 149.938 1393.68 150.746 1394.68 150.746Z" fill="#6E225B"/>
<path d="M1404.31 150.746C1405.31 150.746 1406.12 149.938 1406.12 148.941C1406.12 147.944 1405.31 147.136 1404.31 147.136C1403.31 147.136 1402.5 147.944 1402.5 148.941C1402.5 149.938 1403.31 150.746 1404.31 150.746Z" fill="#6E225B"/>
<path d="M1413.94 150.746C1414.94 150.746 1415.74 149.938 1415.74 148.941C1415.74 147.944 1414.94 147.136 1413.94 147.136C1412.94 147.136 1412.13 147.944 1412.13 148.941C1412.13 149.938 1412.94 150.746 1413.94 150.746Z" fill="#6E225B"/>
<path d="M1423.57 150.746C1424.57 150.746 1425.37 149.938 1425.37 148.941C1425.37 147.944 1424.57 147.136 1423.57 147.136C1422.57 147.136 1421.76 147.944 1421.76 148.941C1421.76 149.938 1422.57 150.746 1423.57 150.746Z" fill="#6E225B"/>
<path d="M1433.19 150.746C1434.19 150.746 1434.99 149.938 1434.99 148.941C1434.99 147.944 1434.19 147.136 1433.19 147.136C1432.19 147.136 1431.38 147.944 1431.38 148.941C1431.38 149.938 1432.19 150.746 1433.19 150.746Z" fill="#6E225B"/>
<path d="M1327.3 141.119C1328.3 141.119 1329.11 140.311 1329.11 139.314C1329.11 138.317 1328.3 137.509 1327.3 137.509C1326.3 137.509 1325.5 138.317 1325.5 139.314C1325.5 140.311 1326.3 141.119 1327.3 141.119Z" fill="#6E225B"/>
<path d="M1336.92 141.119C1337.92 141.119 1338.73 140.311 1338.73 139.314C1338.73 138.317 1337.92 137.509 1336.92 137.509C1335.92 137.509 1335.12 138.317 1335.12 139.314C1335.12 140.311 1335.92 141.119 1336.92 141.119Z" fill="#6E225B"/>
<path d="M1346.55 141.119C1347.55 141.119 1348.36 140.311 1348.36 139.314C1348.36 138.317 1347.55 137.509 1346.55 137.509C1345.55 137.509 1344.75 138.317 1344.75 139.314C1344.75 140.311 1345.55 141.119 1346.55 141.119Z" fill="#6E225B"/>
<path d="M1356.18 141.119C1357.18 141.119 1357.99 140.311 1357.99 139.314C1357.99 138.317 1357.18 137.509 1356.18 137.509C1355.18 137.509 1354.38 138.317 1354.38 139.314C1354.38 140.311 1355.18 141.119 1356.18 141.119Z" fill="#6E225B"/>
<path d="M1365.8 141.119C1366.8 141.119 1367.61 140.311 1367.61 139.314C1367.61 138.317 1366.8 137.509 1365.8 137.509C1364.8 137.509 1364 138.317 1364 139.314C1364 140.311 1364.8 141.119 1365.8 141.119Z" fill="#6E225B"/>
<path d="M1375.43 141.119C1376.43 141.119 1377.24 140.311 1377.24 139.314C1377.24 138.317 1376.43 137.509 1375.43 137.509C1374.43 137.509 1373.62 138.317 1373.62 139.314C1373.62 140.311 1374.43 141.119 1375.43 141.119Z" fill="#6E225B"/>
<path d="M1385.06 141.119C1386.06 141.119 1386.87 140.311 1386.87 139.314C1386.87 138.317 1386.06 137.509 1385.06 137.509C1384.06 137.509 1383.25 138.317 1383.25 139.314C1383.25 140.311 1384.06 141.119 1385.06 141.119Z" fill="#6E225B"/>
<path d="M1394.68 141.119C1395.68 141.119 1396.49 140.311 1396.49 139.314C1396.49 138.317 1395.68 137.509 1394.68 137.509C1393.68 137.509 1392.88 138.317 1392.88 139.314C1392.88 140.311 1393.68 141.119 1394.68 141.119Z" fill="#6E225B"/>
<path d="M1404.31 141.119C1405.31 141.119 1406.12 140.311 1406.12 139.314C1406.12 138.317 1405.31 137.509 1404.31 137.509C1403.31 137.509 1402.5 138.317 1402.5 139.314C1402.5 140.311 1403.31 141.119 1404.31 141.119Z" fill="#6E225B"/>
<path d="M1413.94 141.119C1414.94 141.119 1415.74 140.311 1415.74 139.314C1415.74 138.317 1414.94 137.509 1413.94 137.509C1412.94 137.509 1412.13 138.317 1412.13 139.314C1412.13 140.311 1412.94 141.119 1413.94 141.119Z" fill="#6E225B"/>
<path d="M1423.57 141.119C1424.57 141.119 1425.37 140.311 1425.37 139.314C1425.37 138.317 1424.57 137.509 1423.57 137.509C1422.57 137.509 1421.76 138.317 1421.76 139.314C1421.76 140.311 1422.57 141.119 1423.57 141.119Z" fill="#6E225B"/>
<path d="M1433.19 141.119C1434.19 141.119 1434.99 140.311 1434.99 139.314C1434.99 138.317 1434.19 137.509 1433.19 137.509C1432.19 137.509 1431.38 138.317 1431.38 139.314C1431.38 140.311 1432.19 141.119 1433.19 141.119Z" fill="#6E225B"/>
<path d="M1327.3 131.491C1328.3 131.491 1329.11 130.683 1329.11 129.686C1329.11 128.689 1328.3 127.881 1327.3 127.881C1326.3 127.881 1325.5 128.689 1325.5 129.686C1325.5 130.683 1326.3 131.491 1327.3 131.491Z" fill="#6E225B"/>
<path d="M1336.92 131.491C1337.92 131.491 1338.73 130.683 1338.73 129.686C1338.73 128.689 1337.92 127.881 1336.92 127.881C1335.92 127.881 1335.12 128.689 1335.12 129.686C1335.12 130.683 1335.92 131.491 1336.92 131.491Z" fill="#6E225B"/>
<path d="M1346.55 131.491C1347.55 131.491 1348.36 130.683 1348.36 129.686C1348.36 128.689 1347.55 127.881 1346.55 127.881C1345.55 127.881 1344.75 128.689 1344.75 129.686C1344.75 130.683 1345.55 131.491 1346.55 131.491Z" fill="#6E225B"/>
<path d="M1356.18 131.491C1357.18 131.491 1357.99 130.683 1357.99 129.686C1357.99 128.689 1357.18 127.881 1356.18 127.881C1355.18 127.881 1354.38 128.689 1354.38 129.686C1354.38 130.683 1355.18 131.491 1356.18 131.491Z" fill="#6E225B"/>
<path d="M1365.8 131.491C1366.8 131.491 1367.61 130.683 1367.61 129.686C1367.61 128.689 1366.8 127.881 1365.8 127.881C1364.8 127.881 1364 128.689 1364 129.686C1364 130.683 1364.8 131.491 1365.8 131.491Z" fill="#6E225B"/>
<path d="M1375.43 131.491C1376.43 131.491 1377.24 130.683 1377.24 129.686C1377.24 128.689 1376.43 127.881 1375.43 127.881C1374.43 127.881 1373.62 128.689 1373.62 129.686C1373.62 130.683 1374.43 131.491 1375.43 131.491Z" fill="#6E225B"/>
<path d="M1385.06 131.491C1386.06 131.491 1386.87 130.683 1386.87 129.686C1386.87 128.689 1386.06 127.881 1385.06 127.881C1384.06 127.881 1383.25 128.689 1383.25 129.686C1383.25 130.683 1384.06 131.491 1385.06 131.491Z" fill="#6E225B"/>
<path d="M1394.68 131.491C1395.68 131.491 1396.49 130.683 1396.49 129.686C1396.49 128.689 1395.68 127.881 1394.68 127.881C1393.68 127.881 1392.88 128.689 1392.88 129.686C1392.88 130.683 1393.68 131.491 1394.68 131.491Z" fill="#6E225B"/>
<path d="M1404.31 131.491C1405.31 131.491 1406.12 130.683 1406.12 129.686C1406.12 128.689 1405.31 127.881 1404.31 127.881C1403.31 127.881 1402.5 128.689 1402.5 129.686C1402.5 130.683 1403.31 131.491 1404.31 131.491Z" fill="#6E225B"/>
<path d="M1413.94 131.491C1414.94 131.491 1415.74 130.683 1415.74 129.686C1415.74 128.689 1414.94 127.881 1413.94 127.881C1412.94 127.881 1412.13 128.689 1412.13 129.686C1412.13 130.683 1412.94 131.491 1413.94 131.491Z" fill="#6E225B"/>
<path d="M1423.57 131.491C1424.57 131.491 1425.37 130.683 1425.37 129.686C1425.37 128.689 1424.57 127.881 1423.57 127.881C1422.57 127.881 1421.76 128.689 1421.76 129.686C1421.76 130.683 1422.57 131.491 1423.57 131.491Z" fill="#6E225B"/>
<path d="M1433.19 131.491C1434.19 131.491 1434.99 130.683 1434.99 129.686C1434.99 128.689 1434.19 127.881 1433.19 127.881C1432.19 127.881 1431.38 128.689 1431.38 129.686C1431.38 130.683 1432.19 131.491 1433.19 131.491Z" fill="#6E225B"/>
<path d="M1327.3 121.864C1328.3 121.864 1329.11 121.056 1329.11 120.059C1329.11 119.062 1328.3 118.254 1327.3 118.254C1326.3 118.254 1325.5 119.062 1325.5 120.059C1325.5 121.056 1326.3 121.864 1327.3 121.864Z" fill="#6E225B"/>
<path d="M1336.92 121.864C1337.92 121.864 1338.73 121.056 1338.73 120.059C1338.73 119.062 1337.92 118.254 1336.92 118.254C1335.92 118.254 1335.12 119.062 1335.12 120.059C1335.12 121.056 1335.92 121.864 1336.92 121.864Z" fill="#6E225B"/>
<path d="M1346.55 121.864C1347.55 121.864 1348.36 121.056 1348.36 120.059C1348.36 119.062 1347.55 118.254 1346.55 118.254C1345.55 118.254 1344.75 119.062 1344.75 120.059C1344.75 121.056 1345.55 121.864 1346.55 121.864Z" fill="#6E225B"/>
<path d="M1356.18 121.864C1357.18 121.864 1357.99 121.056 1357.99 120.059C1357.99 119.062 1357.18 118.254 1356.18 118.254C1355.18 118.254 1354.38 119.062 1354.38 120.059C1354.38 121.056 1355.18 121.864 1356.18 121.864Z" fill="#6E225B"/>
<path d="M1365.8 121.864C1366.8 121.864 1367.61 121.056 1367.61 120.059C1367.61 119.062 1366.8 118.254 1365.8 118.254C1364.8 118.254 1364 119.062 1364 120.059C1364 121.056 1364.8 121.864 1365.8 121.864Z" fill="#6E225B"/>
<path d="M1375.43 121.864C1376.43 121.864 1377.24 121.056 1377.24 120.059C1377.24 119.062 1376.43 118.254 1375.43 118.254C1374.43 118.254 1373.62 119.062 1373.62 120.059C1373.62 121.056 1374.43 121.864 1375.43 121.864Z" fill="#6E225B"/>
<path d="M1385.06 121.864C1386.06 121.864 1386.87 121.056 1386.87 120.059C1386.87 119.062 1386.06 118.254 1385.06 118.254C1384.06 118.254 1383.25 119.062 1383.25 120.059C1383.25 121.056 1384.06 121.864 1385.06 121.864Z" fill="#6E225B"/>
<path d="M1394.68 121.864C1395.68 121.864 1396.49 121.056 1396.49 120.059C1396.49 119.062 1395.68 118.254 1394.68 118.254C1393.68 118.254 1392.88 119.062 1392.88 120.059C1392.88 121.056 1393.68 121.864 1394.68 121.864Z" fill="#6E225B"/>
<path d="M1404.31 121.864C1405.31 121.864 1406.12 121.056 1406.12 120.059C1406.12 119.062 1405.31 118.254 1404.31 118.254C1403.31 118.254 1402.5 119.062 1402.5 120.059C1402.5 121.056 1403.31 121.864 1404.31 121.864Z" fill="#6E225B"/>
<path d="M1413.94 121.864C1414.94 121.864 1415.74 121.056 1415.74 120.059C1415.74 119.062 1414.94 118.254 1413.94 118.254C1412.94 118.254 1412.13 119.062 1412.13 120.059C1412.13 121.056 1412.94 121.864 1413.94 121.864Z" fill="#6E225B"/>
<path d="M1423.57 121.864C1424.57 121.864 1425.37 121.056 1425.37 120.059C1425.37 119.062 1424.57 118.254 1423.57 118.254C1422.57 118.254 1421.76 119.062 1421.76 120.059C1421.76 121.056 1422.57 121.864 1423.57 121.864Z" fill="#6E225B"/>
<path d="M1433.19 121.864C1434.19 121.864 1434.99 121.056 1434.99 120.059C1434.99 119.062 1434.19 118.254 1433.19 118.254C1432.19 118.254 1431.38 119.062 1431.38 120.059C1431.38 121.056 1432.19 121.864 1433.19 121.864Z" fill="#6E225B"/>
<path d="M1327.3 112.237C1328.3 112.237 1329.11 111.429 1329.11 110.432C1329.11 109.435 1328.3 108.627 1327.3 108.627C1326.3 108.627 1325.5 109.435 1325.5 110.432C1325.5 111.429 1326.3 112.237 1327.3 112.237Z" fill="#6E225B"/>
<path d="M1336.92 112.237C1337.92 112.237 1338.73 111.429 1338.73 110.432C1338.73 109.435 1337.92 108.627 1336.92 108.627C1335.92 108.627 1335.12 109.435 1335.12 110.432C1335.12 111.429 1335.92 112.237 1336.92 112.237Z" fill="#6E225B"/>
<path d="M1346.55 112.237C1347.55 112.237 1348.36 111.429 1348.36 110.432C1348.36 109.435 1347.55 108.627 1346.55 108.627C1345.55 108.627 1344.75 109.435 1344.75 110.432C1344.75 111.429 1345.55 112.237 1346.55 112.237Z" fill="#6E225B"/>
<path d="M1356.18 112.237C1357.18 112.237 1357.99 111.429 1357.99 110.432C1357.99 109.435 1357.18 108.627 1356.18 108.627C1355.18 108.627 1354.38 109.435 1354.38 110.432C1354.38 111.429 1355.18 112.237 1356.18 112.237Z" fill="#6E225B"/>
<path d="M1365.8 112.237C1366.8 112.237 1367.61 111.429 1367.61 110.432C1367.61 109.435 1366.8 108.627 1365.8 108.627C1364.8 108.627 1364 109.435 1364 110.432C1364 111.429 1364.8 112.237 1365.8 112.237Z" fill="#6E225B"/>
<path d="M1375.43 112.237C1376.43 112.237 1377.24 111.429 1377.24 110.432C1377.24 109.435 1376.43 108.627 1375.43 108.627C1374.43 108.627 1373.62 109.435 1373.62 110.432C1373.62 111.429 1374.43 112.237 1375.43 112.237Z" fill="#6E225B"/>
<path d="M1385.06 112.237C1386.06 112.237 1386.87 111.429 1386.87 110.432C1386.87 109.435 1386.06 108.627 1385.06 108.627C1384.06 108.627 1383.25 109.435 1383.25 110.432C1383.25 111.429 1384.06 112.237 1385.06 112.237Z" fill="#6E225B"/>
<path d="M1394.68 112.237C1395.68 112.237 1396.49 111.429 1396.49 110.432C1396.49 109.435 1395.68 108.627 1394.68 108.627C1393.68 108.627 1392.88 109.435 1392.88 110.432C1392.88 111.429 1393.68 112.237 1394.68 112.237Z" fill="#6E225B"/>
<path d="M1404.31 112.237C1405.31 112.237 1406.12 111.429 1406.12 110.432C1406.12 109.435 1405.31 108.627 1404.31 108.627C1403.31 108.627 1402.5 109.435 1402.5 110.432C1402.5 111.429 1403.31 112.237 1404.31 112.237Z" fill="#6E225B"/>
<path d="M1413.94 112.237C1414.94 112.237 1415.74 111.429 1415.74 110.432C1415.74 109.435 1414.94 108.627 1413.94 108.627C1412.94 108.627 1412.13 109.435 1412.13 110.432C1412.13 111.429 1412.94 112.237 1413.94 112.237Z" fill="#6E225B"/>
<path d="M1423.57 112.237C1424.57 112.237 1425.37 111.429 1425.37 110.432C1425.37 109.435 1424.57 108.627 1423.57 108.627C1422.57 108.627 1421.76 109.435 1421.76 110.432C1421.76 111.429 1422.57 112.237 1423.57 112.237Z" fill="#6E225B"/>
<path d="M1433.19 112.237C1434.19 112.237 1434.99 111.429 1434.99 110.432C1434.99 109.435 1434.19 108.627 1433.19 108.627C1432.19 108.627 1431.38 109.435 1431.38 110.432C1431.38 111.429 1432.19 112.237 1433.19 112.237Z" fill="#6E225B"/>
<path d="M1327.3 102.61C1328.3 102.61 1329.11 101.802 1329.11 100.805C1329.11 99.8082 1328.3 99 1327.3 99C1326.3 99 1325.5 99.8082 1325.5 100.805C1325.5 101.802 1326.3 102.61 1327.3 102.61Z" fill="#6E225B"/>
<path d="M1336.92 102.61C1337.92 102.61 1338.73 101.802 1338.73 100.805C1338.73 99.8082 1337.92 99 1336.92 99C1335.92 99 1335.12 99.8082 1335.12 100.805C1335.12 101.802 1335.92 102.61 1336.92 102.61Z" fill="#6E225B"/>
<path d="M1346.55 102.61C1347.55 102.61 1348.36 101.802 1348.36 100.805C1348.36 99.8082 1347.55 99 1346.55 99C1345.55 99 1344.75 99.8082 1344.75 100.805C1344.75 101.802 1345.55 102.61 1346.55 102.61Z" fill="#6E225B"/>
<path d="M1356.18 102.61C1357.18 102.61 1357.99 101.802 1357.99 100.805C1357.99 99.8082 1357.18 99 1356.18 99C1355.18 99 1354.38 99.8082 1354.38 100.805C1354.38 101.802 1355.18 102.61 1356.18 102.61Z" fill="#6E225B"/>
<path d="M1365.8 102.61C1366.8 102.61 1367.61 101.802 1367.61 100.805C1367.61 99.8082 1366.8 99 1365.8 99C1364.8 99 1364 99.8082 1364 100.805C1364 101.802 1364.8 102.61 1365.8 102.61Z" fill="#6E225B"/>
<path d="M1375.43 102.61C1376.43 102.61 1377.24 101.802 1377.24 100.805C1377.24 99.8082 1376.43 99 1375.43 99C1374.43 99 1373.62 99.8082 1373.62 100.805C1373.62 101.802 1374.43 102.61 1375.43 102.61Z" fill="#6E225B"/>
<path d="M1385.06 102.61C1386.06 102.61 1386.87 101.802 1386.87 100.805C1386.87 99.8082 1386.06 99 1385.06 99C1384.06 99 1383.25 99.8082 1383.25 100.805C1383.25 101.802 1384.06 102.61 1385.06 102.61Z" fill="#6E225B"/>
<path d="M1394.68 102.61C1395.68 102.61 1396.49 101.802 1396.49 100.805C1396.49 99.8082 1395.68 99 1394.68 99C1393.68 99 1392.88 99.8082 1392.88 100.805C1392.88 101.802 1393.68 102.61 1394.68 102.61Z" fill="#6E225B"/>
<path d="M1404.31 102.61C1405.31 102.61 1406.12 101.802 1406.12 100.805C1406.12 99.8082 1405.31 99 1404.31 99C1403.31 99 1402.5 99.8082 1402.5 100.805C1402.5 101.802 1403.31 102.61 1404.31 102.61Z" fill="#6E225B"/>
<path d="M1413.94 102.61C1414.94 102.61 1415.74 101.802 1415.74 100.805C1415.74 99.8082 1414.94 99 1413.94 99C1412.94 99 1412.13 99.8082 1412.13 100.805C1412.13 101.802 1412.94 102.61 1413.94 102.61Z" fill="#6E225B"/>
<path d="M1423.57 102.61C1424.57 102.61 1425.37 101.802 1425.37 100.805C1425.37 99.8082 1424.57 99 1423.57 99C1422.57 99 1421.76 99.8082 1421.76 100.805C1421.76 101.802 1422.57 102.61 1423.57 102.61Z" fill="#6E225B"/>
<path d="M1433.19 102.61C1434.19 102.61 1434.99 101.802 1434.99 100.805C1434.99 99.8082 1434.19 99 1433.19 99C1432.19 99 1431.38 99.8082 1431.38 100.805C1431.38 101.802 1432.19 102.61 1433.19 102.61Z" fill="#6E225B"/>
<mask id="mask2_2057_184" style="mask-type:luminance" maskUnits="userSpaceOnUse" x="1324" y="594" width="131" height="88">
<path d="M1454.68 594H1324V681.12H1454.68V594Z" fill="white"/>
</mask>
<g mask="url(#mask2_2057_184)">
<path d="M1463.68 681.12H1333V594H1376.56C1424.68 594 1463.68 633.01 1463.68 681.12Z" fill="#FFDB68"/>
</g>
<mask id="mask3_2057_184" style="mask-type:luminance" maskUnits="userSpaceOnUse" x="1190" y="490" width="233" height="191">
<path d="M1422.72 490H1190V681H1422.72V490Z" fill="white"/>
</mask>
<g mask="url(#mask3_2057_184)">
<path d="M1422.72 641C1422.72 663.091 1404.81 681 1382.72 681H1230C1207.91 681 1190 663.091 1190 641V540.419C1190 512.575 1242.1 490 1306.36 490C1370.62 490 1422.72 512.575 1422.72 540.419V641Z" fill="#F8EBD8"/>
</g>
<mask id="mask4_2057_184" style="mask-type:luminance" maskUnits="userSpaceOnUse" x="1368" y="467" width="73" height="155">
<path d="M1440.35 467.95H1368V621.881H1440.35V467.95Z" fill="white"/>
</mask>
<g mask="url(#mask4_2057_184)">
<path d="M1440.35 621.882H1368V467.95C1407.96 467.95 1440.35 501.858 1440.35 543.691V621.882Z" fill="#F5945C"/>
</g>
<mask id="mask5_2057_184" style="mask-type:luminance" maskUnits="userSpaceOnUse" x="1142" y="632" width="78" height="49">
<path d="M1219.81 632.309H1142V681H1219.81V632.309Z" fill="white"/>
</mask>
<g mask="url(#mask5_2057_184)">
<path d="M1219.81 632.309H1142V681H1219.81V632.309Z" fill="#2E417B"/>
</g>
<mask id="mask6_2057_184" style="mask-type:luminance" maskUnits="userSpaceOnUse" x="1111" y="628" width="79" height="53">
<path d="M1189.81 628H1111V681H1189.81V628Z" fill="white"/>
</mask>
<g mask="url(#mask6_2057_184)">
<path d="M1189.31 628.157H1111.5V680.843H1189.31V628.157Z" stroke="#FF7F5C" stroke-width="2" stroke-miterlimit="10"/>
</g>
<mask id="mask7_2057_184" style="mask-type:luminance" maskUnits="userSpaceOnUse" x="1384" y="561" width="4" height="90">
<path d="M1387.75 561H1384V650.59H1387.75V561Z" fill="white"/>
</mask>
<g mask="url(#mask7_2057_184)">
<path d="M1387.75 562.87C1387.75 561.84 1386.91 561 1385.87 561C1384.84 561 1384 561.84 1384 562.87C1384 563.9 1384.84 564.74 1385.87 564.74C1386.91 564.75 1387.75 563.91 1387.75 562.87Z" fill="#2E417B"/>
<path d="M1387.75 575.14C1387.75 574.11 1386.91 573.27 1385.88 573.27C1384.84 573.26 1384 574.1 1384 575.14C1384 576.17 1384.84 577.01 1385.87 577.01C1386.91 577.01 1387.75 576.17 1387.75 575.14Z" fill="#2E417B"/>
<path d="M1387.75 587.4C1387.75 586.37 1386.91 585.53 1385.88 585.53C1384.84 585.53 1384 586.36 1384 587.4C1384 588.43 1384.84 589.27 1385.87 589.27C1386.91 589.27 1387.75 588.43 1387.75 587.4Z" fill="#2E417B"/>
<path d="M1387.75 599.66C1387.75 598.63 1386.91 597.79 1385.88 597.79C1384.84 597.79 1384 598.63 1384 599.66C1384 600.69 1384.84 601.53 1385.87 601.53C1386.91 601.53 1387.75 600.7 1387.75 599.66Z" fill="#2E417B"/>
<path d="M1387.75 611.92C1387.75 610.89 1386.91 610.05 1385.88 610.05C1384.84 610.05 1384 610.89 1384 611.92C1384 612.95 1384.84 613.79 1385.87 613.79C1386.91 613.8 1387.75 612.96 1387.75 611.92Z" fill="#2E417B"/>
<path d="M1387.75 624.19C1387.75 623.16 1386.91 622.32 1385.88 622.32C1384.84 622.31 1384 623.15 1384 624.19C1384 625.22 1384.84 626.06 1385.87 626.06C1386.91 626.06 1387.75 625.22 1387.75 624.19Z" fill="#2E417B"/>
<path d="M1387.75 636.45C1387.75 635.42 1386.91 634.58 1385.88 634.58C1384.84 634.58 1384 635.41 1384 636.45C1384 637.48 1384.84 638.32 1385.87 638.32C1386.91 638.32 1387.75 637.48 1387.75 636.45Z" fill="#2E417B"/>
<path d="M1387.75 648.71C1387.75 647.68 1386.91 646.84 1385.88 646.84C1384.84 646.84 1384 647.68 1384 648.71C1384 649.74 1384.84 650.58 1385.87 650.58C1386.91 650.59 1387.75 649.75 1387.75 648.71Z" fill="#2E417B"/>
</g>
<mask id="mask8_2057_184" style="mask-type:luminance" maskUnits="userSpaceOnUse" x="1371" y="561" width="4" height="90">
<path d="M1374.75 561H1371V650.59H1374.75V561Z" fill="white"/>
</mask>
<g mask="url(#mask8_2057_184)">
<path d="M1374.75 562.87C1374.75 561.84 1373.91 561 1372.87 561C1371.84 561 1371 561.84 1371 562.87C1371 563.9 1371.84 564.74 1372.87 564.74C1373.91 564.75 1374.75 563.91 1374.75 562.87Z" fill="#2E417B"/>
<path d="M1374.75 575.14C1374.75 574.11 1373.91 573.27 1372.88 573.27C1371.84 573.26 1371 574.1 1371 575.14C1371 576.17 1371.84 577.01 1372.87 577.01C1373.91 577.01 1374.75 576.17 1374.75 575.14Z" fill="#2E417B"/>
<path d="M1374.75 587.4C1374.75 586.37 1373.91 585.53 1372.88 585.53C1371.84 585.53 1371 586.36 1371 587.4C1371 588.43 1371.84 589.27 1372.87 589.27C1373.91 589.27 1374.75 588.43 1374.75 587.4Z" fill="#2E417B"/>
<path d="M1374.75 599.66C1374.75 598.63 1373.91 597.79 1372.88 597.79C1371.84 597.79 1371 598.63 1371 599.66C1371 600.69 1371.84 601.53 1372.87 601.53C1373.91 601.53 1374.75 600.7 1374.75 599.66Z" fill="#2E417B"/>
<path d="M1374.75 611.92C1374.75 610.89 1373.91 610.05 1372.88 610.05C1371.84 610.05 1371 610.89 1371 611.92C1371 612.95 1371.84 613.79 1372.87 613.79C1373.91 613.8 1374.75 612.96 1374.75 611.92Z" fill="#2E417B"/>
<path d="M1374.75 624.19C1374.75 623.16 1373.91 622.32 1372.88 622.32C1371.84 622.31 1371 623.15 1371 624.19C1371 625.22 1371.84 626.06 1372.87 626.06C1373.91 626.06 1374.75 625.22 1374.75 624.19Z" fill="#2E417B"/>
<path d="M1374.75 636.45C1374.75 635.42 1373.91 634.58 1372.88 634.58C1371.84 634.58 1371 635.41 1371 636.45C1371 637.48 1371.84 638.32 1372.87 638.32C1373.91 638.32 1374.75 637.48 1374.75 636.45Z" fill="#2E417B"/>
<path d="M1374.75 648.71C1374.75 647.68 1373.91 646.84 1372.88 646.84C1371.84 646.84 1371 647.68 1371 648.71C1371 649.74 1371.84 650.58 1372.87 650.58C1373.91 650.59 1374.75 649.75 1374.75 648.71Z" fill="#2E417B"/>
</g>
<mask id="mask9_2057_184" style="mask-type:luminance" maskUnits="userSpaceOnUse" x="1358" y="561" width="4" height="90">
<path d="M1361.75 561H1358V650.59H1361.75V561Z" fill="white"/>
</mask>
<g mask="url(#mask9_2057_184)">
<path d="M1361.75 562.87C1361.75 561.84 1360.91 561 1359.87 561C1358.84 561 1358 561.84 1358 562.87C1358 563.9 1358.84 564.74 1359.87 564.74C1360.91 564.75 1361.75 563.91 1361.75 562.87Z" fill="#2E417B"/>
<path d="M1361.75 575.14C1361.75 574.11 1360.91 573.27 1359.88 573.27C1358.84 573.26 1358 574.1 1358 575.14C1358 576.17 1358.84 577.01 1359.87 577.01C1360.91 577.01 1361.75 576.17 1361.75 575.14Z" fill="#2E417B"/>
<path d="M1361.75 587.4C1361.75 586.37 1360.91 585.53 1359.88 585.53C1358.84 585.53 1358 586.36 1358 587.4C1358 588.43 1358.84 589.27 1359.87 589.27C1360.91 589.27 1361.75 588.43 1361.75 587.4Z" fill="#2E417B"/>
<path d="M1361.75 599.66C1361.75 598.63 1360.91 597.79 1359.88 597.79C1358.84 597.79 1358 598.63 1358 599.66C1358 600.69 1358.84 601.53 1359.87 601.53C1360.91 601.53 1361.75 600.7 1361.75 599.66Z" fill="#2E417B"/>
<path d="M1361.75 611.92C1361.75 610.89 1360.91 610.05 1359.88 610.05C1358.84 610.05 1358 610.89 1358 611.92C1358 612.95 1358.84 613.79 1359.87 613.79C1360.91 613.8 1361.75 612.96 1361.75 611.92Z" fill="#2E417B"/>
<path d="M1361.75 624.19C1361.75 623.16 1360.91 622.32 1359.88 622.32C1358.84 622.31 1358 623.15 1358 624.19C1358 625.22 1358.84 626.06 1359.87 626.06C1360.91 626.06 1361.75 625.22 1361.75 624.19Z" fill="#2E417B"/>
<path d="M1361.75 636.45C1361.75 635.42 1360.91 634.58 1359.88 634.58C1358.84 634.58 1358 635.41 1358 636.45C1358 637.48 1358.84 638.32 1359.87 638.32C1360.91 638.32 1361.75 637.48 1361.75 636.45Z" fill="#2E417B"/>
<path d="M1361.75 648.71C1361.75 647.68 1360.91 646.84 1359.88 646.84C1358.84 646.84 1358 647.68 1358 648.71C1358 649.74 1358.84 650.58 1359.87 650.58C1360.91 650.59 1361.75 649.75 1361.75 648.71Z" fill="#2E417B"/>
</g>
</svg>
