<svg width="31" height="31" viewBox="0 0 31 31" fill="none" xmlns="http://www.w3.org/2000/svg">
<path d="M6.45833 12.916H3.875V23.2493H6.45833V12.916Z" fill="black"/>
<path d="M27.1248 12.916H24.5415V23.2493H27.1248V12.916Z" fill="black"/>
<path d="M22.2168 1.80859L19.0522 6.03234C17.9555 5.46808 16.7399 5.17372 15.5066 5.17372C14.2732 5.17372 13.0577 5.46808 11.961 6.03234L8.78346 1.80859L6.7168 3.35859L9.8943 7.58234C8.52203 9.01985 7.75444 10.9296 7.75013 12.9169V23.2503H10.3335V28.4169H12.9168V23.2503H18.0835V28.4169H20.6668V23.2503H23.2501V12.9169C23.2458 10.9296 22.4782 9.01985 21.106 7.58234L24.2835 3.35859L22.2168 1.80859ZM20.6668 20.6669H10.3335V12.9169C10.3335 11.5466 10.8778 10.2325 11.8467 9.26354C12.8157 8.2946 14.1298 7.75026 15.5001 7.75026C16.8704 7.75026 18.1846 8.2946 19.1535 9.26354C20.1225 10.2325 20.6668 11.5466 20.6668 12.9169V20.6669Z" fill="black"/>
</svg>
