<svg width="28" height="28" viewBox="0 0 28 28" fill="none" xmlns="http://www.w3.org/2000/svg">
<path d="M10.5001 27.4166C8.63347 27.4166 7.23347 25.4332 6.4168 24.1499C4.08347 20.7666 2.80014 15.1666 4.90014 11.5499C6.0668 9.56657 8.05014 8.28324 10.2668 8.28324C11.3168 8.28324 12.1335 8.63324 12.9501 8.98324C13.4168 9.0999 13.8835 9.33324 14.1168 9.33324C14.3501 9.33324 14.8168 9.0999 15.2835 8.98324C16.2168 8.51657 17.5001 8.0499 18.6668 8.16657C19.3668 8.16657 21.8168 8.51657 23.3335 10.7332C23.4501 10.8499 23.4501 10.9666 23.4501 11.1999C23.4501 11.3166 23.3335 11.4332 23.2168 11.5499C22.6335 11.8999 20.8835 13.1832 21.0001 15.6332C21.0001 18.6666 23.4501 19.8332 23.8001 19.9499C24.0335 20.0666 24.2668 20.4166 24.1501 20.6499C24.0335 21.2332 23.4501 22.6332 22.4001 24.1499C21.4668 25.5499 20.3001 27.2999 18.3168 27.2999C17.3835 27.2999 16.8001 27.0666 16.2168 26.8332C15.6335 26.5999 15.1668 26.3666 14.3501 26.3666C13.5335 26.3666 12.9501 26.5999 12.4835 26.8332C12.0168 27.1832 11.4335 27.4166 10.5001 27.4166ZM10.3835 9.4499C8.63347 9.4499 6.88347 10.4999 5.95014 12.1332C3.9668 15.6332 5.60014 20.8832 7.4668 23.5666C8.40014 24.8499 9.33347 26.2499 10.5001 26.2499V26.8332L10.6168 26.2499C11.2001 26.2499 11.6668 26.0166 12.1335 25.7832C12.7168 25.5499 13.4168 25.1999 14.4668 25.1999C15.5168 25.1999 16.2168 25.5499 16.8001 25.7832C17.2668 26.0166 17.7335 26.1332 18.3168 26.1332C19.6001 26.1332 20.5335 24.9666 21.4668 23.4499C22.1668 22.3999 22.6335 21.3499 22.8668 20.6499C21.9335 20.0666 19.8335 18.5499 19.8335 15.5166C19.8335 13.0666 21.2335 11.5499 22.1668 10.8499C20.8835 9.56657 19.1335 9.33324 18.6668 9.33324C18.5501 9.33324 18.4335 9.33324 18.3168 9.33324C17.5001 9.33324 16.5668 9.68324 15.8668 10.0332C15.1668 10.2666 14.5835 10.4999 14.1168 10.4999C13.6501 10.4999 13.0668 10.2666 12.4835 10.0332C11.7835 9.68324 11.0835 9.4499 10.3835 9.4499Z" fill="#9F9F9F"/>
<path d="M14.2334 7.69922C14.1167 7.69922 14 7.69922 13.8834 7.69922C13.65 7.69922 13.4167 7.46589 13.3 7.23255C13.0667 5.48255 13.8834 3.84922 14.8167 2.79922C15.8667 1.63255 17.5 0.699219 18.9 0.699219C19.25 0.699219 19.4834 0.932552 19.4834 1.16589C19.6 2.68255 19.1334 4.43255 18.0834 5.71589C17.15 6.88255 15.6334 7.69922 14.2334 7.69922ZM18.4334 1.86589C17.5 2.09922 16.45 2.68255 15.75 3.49922C15.1667 4.19922 14.5834 5.36589 14.4667 6.53255C15.4 6.41589 16.45 5.83255 17.15 4.89922C17.9667 3.96589 18.4334 2.91589 18.4334 1.86589Z" fill="#9F9F9F"/>
</svg>
