<svg width="33" height="33" viewBox="0 0 33 33" fill="none" xmlns="http://www.w3.org/2000/svg">
<g clip-path="url(#clip0_5070_660)">
<path d="M16.5 28.875C23.3345 28.875 28.875 23.3345 28.875 16.5C28.875 9.66548 23.3345 4.125 16.5 4.125C9.66548 4.125 4.125 9.66548 4.125 16.5C4.125 23.3345 9.66548 28.875 16.5 28.875Z" stroke="#9F9F9F" stroke-linecap="round" stroke-linejoin="round"/>
<path d="M16.5 21.1406C19.0629 21.1406 21.1406 19.0629 21.1406 16.5C21.1406 13.9371 19.0629 11.8594 16.5 11.8594C13.9371 11.8594 11.8594 13.9371 11.8594 16.5C11.8594 19.0629 13.9371 21.1406 16.5 21.1406Z" stroke="#9F9F9F" stroke-linecap="round" stroke-linejoin="round"/>
<path d="M16.5 11.8594H27.9727" stroke="#9F9F9F" stroke-linecap="round" stroke-linejoin="round"/>
<path d="M12.478 18.8195L6.7417 8.88086" stroke="#9F9F9F" stroke-linecap="round" stroke-linejoin="round"/>
<path d="M20.522 18.8203L14.7856 28.759" stroke="#9F9F9F" stroke-linecap="round" stroke-linejoin="round"/>
</g>
<defs>
<clipPath id="clip0_5070_660">
<rect width="33" height="33" fill="white"/>
</clipPath>
</defs>
</svg>
