<svg width="32" height="32" viewBox="0 0 32 32" fill="none" xmlns="http://www.w3.org/2000/svg">
<path fill-rule="evenodd" clip-rule="evenodd" d="M28.6667 23.3327H19.4634C19.8601 25.5333 21.1787 27.0473 22.3974 27.9993H24.0001C24.3687 27.9993 24.6667 28.2973 24.6667 28.666C24.6667 29.0347 24.3687 29.3327 24.0001 29.3327H8.00008C7.63141 29.3327 7.33342 29.0347 7.33342 28.666C7.33342 28.2973 7.63141 27.9993 8.00008 27.9993H9.60208C10.8201 27.0473 12.1401 25.5333 12.5361 23.3327H3.33341C1.86075 23.3327 0.666748 22.1387 0.666748 20.666V5.33268C0.666748 3.86002 1.86075 2.66602 3.33341 2.66602H28.6667C30.1394 2.66602 31.3334 3.86002 31.3334 5.33268V20.666C31.3334 22.1387 30.1394 23.3327 28.6667 23.3327ZM11.5981 27.9993H20.4014C19.3381 26.878 18.3914 25.3487 18.0954 23.3327H13.9041C13.6081 25.3487 12.6614 26.878 11.5981 27.9993ZM30.0001 5.33268C30.0001 4.59668 29.4027 3.99935 28.6667 3.99935H3.33341C2.59741 3.99935 2.00008 4.59668 2.00008 5.33268V17.9993H30.0001V5.33268ZM30.0001 19.3327H2.00008V20.666C2.00008 21.402 2.59741 21.9993 3.33341 21.9993H12.6667H19.3334H28.6667C29.4027 21.9993 30.0001 21.402 30.0001 20.666V19.3327ZM16.0001 21.3327C15.6314 21.3327 15.3334 21.0347 15.3334 20.666C15.3334 20.2973 15.6314 19.9993 16.0001 19.9993C16.3687 19.9993 16.6667 20.2973 16.6667 20.666C16.6667 21.0347 16.3687 21.3327 16.0001 21.3327Z" fill="#9F9F9F"/>
</svg>
