<svg width="16" height="16" viewBox="0 0 16 16" fill="none" xmlns="http://www.w3.org/2000/svg">
<path d="M14.6699 6.90997C12.492 6.9089 10.314 6.90944 8.13604 6.90969C8.13632 7.81305 8.13497 8.71641 8.13657 9.61948C9.3979 9.6192 10.6592 9.61895 11.9203 9.61948C11.7741 10.4851 11.2597 11.2768 10.5301 11.7641C10.0715 12.0725 9.54463 12.2726 9.00141 12.3678C8.45469 12.4611 7.88977 12.473 7.34441 12.3626C6.78982 12.2519 6.26043 12.0209 5.79861 11.6952C5.06015 11.1764 4.49659 10.4173 4.20723 9.56304C3.91135 8.69414 3.90918 7.72731 4.20858 6.85923C4.41633 6.24741 4.7621 5.68223 5.21633 5.2223C5.77662 4.64872 6.50506 4.23868 7.28989 4.07053C7.96191 3.92708 8.67053 3.95445 9.32847 4.1535C9.88769 4.32329 10.4032 4.62972 10.8255 5.03299C11.2523 4.60856 11.677 4.1817 12.1031 3.75648C12.3266 3.5276 12.5614 3.30874 12.7778 3.07362C12.1307 2.4748 11.3722 1.99345 10.5434 1.68916C9.05131 1.14002 7.36854 1.12836 5.8664 1.64827C4.17359 2.22781 2.73218 3.49373 1.93299 5.0938C1.65475 5.64515 1.45161 6.23363 1.32957 6.83894C1.02258 8.34704 1.23655 9.95498 1.93217 11.3286C2.38426 12.2251 3.0324 13.0222 3.81861 13.647C4.56034 14.2385 5.42489 14.6754 6.34154 14.9192C7.49819 15.2294 8.7294 15.2224 9.89367 14.9574C10.9459 14.7153 11.9415 14.2125 12.7363 13.4786C13.5765 12.7065 14.1758 11.6893 14.4931 10.5961C14.8392 9.40364 14.8869 8.13063 14.6699 6.90997Z" fill="white"/>
</svg>
