<svg width="156" height="60" viewBox="0 0 156 60" fill="none" xmlns="http://www.w3.org/2000/svg">
<circle cx="2" cy="2" r="2" fill="#D1D1D1"/>
<circle cx="21" cy="2" r="2" fill="#D1D1D1"/>
<circle cx="40" cy="2" r="2" fill="#D1D1D1"/>
<circle cx="59" cy="2" r="2" fill="#D1D1D1"/>
<circle cx="78" cy="2" r="2" fill="#D1D1D1"/>
<circle cx="97" cy="2" r="2" fill="#D1D1D1"/>
<circle cx="116" cy="2" r="2" fill="#D1D1D1"/>
<circle cx="135" cy="2" r="2" fill="#D1D1D1"/>
<circle cx="154" cy="2" r="2" fill="#D1D1D1"/>
<circle cx="2" cy="16" r="2" fill="#D1D1D1"/>
<circle cx="21" cy="16" r="2" fill="#D1D1D1"/>
<circle cx="40" cy="16" r="2" fill="#D1D1D1"/>
<circle cx="59" cy="16" r="2" fill="#D1D1D1"/>
<circle cx="78" cy="16" r="2" fill="#D1D1D1"/>
<circle cx="97" cy="16" r="2" fill="#D1D1D1"/>
<circle cx="116" cy="16" r="2" fill="#D1D1D1"/>
<circle cx="135" cy="16" r="2" fill="#D1D1D1"/>
<circle cx="154" cy="16" r="2" fill="#D1D1D1"/>
<circle cx="2" cy="30" r="2" fill="#D1D1D1"/>
<circle cx="21" cy="30" r="2" fill="#D1D1D1"/>
<circle cx="40" cy="30" r="2" fill="#D1D1D1"/>
<circle cx="59" cy="30" r="2" fill="#D1D1D1"/>
<circle cx="78" cy="30" r="2" fill="#D1D1D1"/>
<circle cx="97" cy="30" r="2" fill="#D1D1D1"/>
<circle cx="116" cy="30" r="2" fill="#D1D1D1"/>
<circle cx="135" cy="30" r="2" fill="#D1D1D1"/>
<circle cx="154" cy="30" r="2" fill="#D1D1D1"/>
<circle cx="2" cy="44" r="2" fill="#D1D1D1"/>
<circle cx="21" cy="44" r="2" fill="#D1D1D1"/>
<circle cx="40" cy="44" r="2" fill="#D1D1D1"/>
<circle cx="59" cy="44" r="2" fill="#D1D1D1"/>
<circle cx="78" cy="44" r="2" fill="#D1D1D1"/>
<circle cx="97" cy="44" r="2" fill="#D1D1D1"/>
<circle cx="116" cy="44" r="2" fill="#D1D1D1"/>
<circle cx="135" cy="44" r="2" fill="#D1D1D1"/>
<circle cx="154" cy="44" r="2" fill="#D1D1D1"/>
<circle cx="2" cy="58" r="2" fill="#D1D1D1"/>
<circle cx="21" cy="58" r="2" fill="#D1D1D1"/>
<circle cx="40" cy="58" r="2" fill="#D1D1D1"/>
<circle cx="59" cy="58" r="2" fill="#D1D1D1"/>
<circle cx="78" cy="58" r="2" fill="#D1D1D1"/>
<circle cx="97" cy="58" r="2" fill="#D1D1D1"/>
<circle cx="116" cy="58" r="2" fill="#D1D1D1"/>
<circle cx="135" cy="58" r="2" fill="#D1D1D1"/>
<circle cx="154" cy="58" r="2" fill="#D1D1D1"/>
</svg>
