<svg width="22" height="22" viewBox="0 0 22 22" fill="none" xmlns="http://www.w3.org/2000/svg">
<path d="M20.5528 8.6075C20.3912 8.1235 19.9828 7.77631 19.4878 7.70069L14.4629 6.94788L12.201 2.14638C11.9762 1.67063 11.5163 1.375 11 1.375C10.4837 1.375 10.0237 1.67063 9.79891 2.14638L7.57003 6.93069L2.51209 7.70069C2.01709 7.77631 1.60941 8.1235 1.44716 8.6075C1.28147 9.10456 1.40384 9.64356 1.76684 10.0141L5.42503 13.7582L4.56084 19.0355C4.47491 19.5628 4.68803 20.0791 5.11841 20.3823C5.53228 20.6759 6.06441 20.7048 6.50716 20.4607L10.9683 17.9692L15.4928 20.4607C15.9369 20.7048 16.4677 20.6745 16.8815 20.3823C17.3119 20.0791 17.5257 19.5628 17.4391 19.0355L16.5735 13.7514L20.2331 10.0141C20.5961 9.64356 20.7185 9.10456 20.5528 8.6075Z" fill="white"/>
</svg>
