<svg width="36" height="36" viewBox="0 0 36 36" fill="none" xmlns="http://www.w3.org/2000/svg">
<path d="M18 16.0005C19.6569 16.0005 21 14.6574 21 13.0005C21 11.3436 19.6569 10.0005 18 10.0005C16.3431 10.0005 15 11.3436 15 13.0005C15 14.6574 16.3431 16.0005 18 16.0005Z" fill="white"/>
<path d="M28.396 17.886C29.2256 16.1331 29.5985 14.1989 29.48 12.2632C29.3614 10.3275 28.7553 8.45324 27.718 6.81466C26.6807 5.17609 25.2459 3.82644 23.547 2.89122C21.8481 1.956 19.9403 1.46559 18.001 1.46559C16.0616 1.46559 14.1538 1.956 12.4549 2.89122C10.756 3.82644 9.32119 5.17609 8.28388 6.81466C7.24658 8.45324 6.64048 10.3275 6.52195 12.2632C6.40343 14.1989 6.77632 16.1331 7.60595 17.886L1.86695 24.519C1.68948 24.7244 1.57107 24.9741 1.52434 25.2415C1.47762 25.5089 1.50433 25.784 1.60163 26.0374C1.69893 26.2908 1.86317 26.513 2.07685 26.6805C2.29052 26.8479 2.54562 26.9542 2.81495 26.988L8.32295 27.678L9.01295 33.186C9.0501 33.4825 9.17497 33.7612 9.37154 33.9862C9.56811 34.2113 9.82742 34.3725 10.1162 34.4492C10.405 34.526 10.7102 34.5147 10.9925 34.4168C11.2749 34.3189 11.5216 34.139 11.701 33.9L18.001 25.5L24.301 33.9C24.4803 34.139 24.727 34.3189 25.0094 34.4168C25.2917 34.5147 25.5969 34.526 25.8857 34.4492C26.1745 34.3725 26.4338 34.2113 26.6304 33.9862C26.8269 33.7612 26.9518 33.4825 26.989 33.186L27.679 27.678L33.187 26.988C33.4563 26.9542 33.7114 26.8479 33.9251 26.6805C34.1387 26.513 34.303 26.2908 34.4003 26.0374C34.4976 25.784 34.5243 25.5089 34.4776 25.2415C34.4308 24.9741 34.3124 24.7244 34.135 24.519L28.396 17.886ZM11.5285 29.13L11.1565 26.148C11.1153 25.8166 10.9647 25.5085 10.7286 25.2724C10.4925 25.0363 10.1843 24.8857 9.85295 24.8445L5.97095 24.36L9.30095 20.5065C9.30995 20.5185 9.32195 20.526 9.33095 20.5365C10.0968 21.4156 10.9908 22.1741 11.983 22.7865L12.0175 22.806C12.9917 23.4026 14.05 23.8495 15.157 24.132C15.1885 24.141 15.2185 24.156 15.25 24.1635L11.5285 29.13ZM19.9705 21.261C19.765 21.309 19.558 21.3495 19.348 21.3825C19.234 21.4005 19.1215 21.4215 19.0045 21.435C18.3382 21.521 17.6637 21.521 16.9975 21.435C16.8805 21.4215 16.768 21.4005 16.654 21.3825C16.444 21.3495 16.237 21.309 16.0315 21.261C15.895 21.228 15.76 21.195 15.6265 21.156C15.4465 21.1035 15.271 21.042 15.0955 20.9775C14.92 20.913 14.743 20.847 14.572 20.772C14.3515 20.6745 14.134 20.571 13.924 20.4555C13.774 20.3775 13.6465 20.289 13.51 20.2035C13.3735 20.118 13.2325 20.028 13.099 19.932C12.9655 19.836 12.8575 19.7565 12.7405 19.6635C12.562 19.5135 12.388 19.3725 12.2215 19.2135C12.16 19.1565 12.0955 19.104 12.037 19.0455C11.7933 18.8034 11.5644 18.547 11.3515 18.2775C11.3335 18.2565 11.3185 18.2325 11.3005 18.21C11.0908 17.9384 10.8969 17.6549 10.72 17.361C9.94293 16.0714 9.52237 14.5985 9.50129 13.0931C9.4802 11.5876 9.85934 10.1036 10.5999 8.79269C11.3405 7.48183 12.416 6.39118 13.7164 5.6323C15.0167 4.87341 16.4953 4.47352 18.001 4.47352C19.5066 4.47352 20.9852 4.87341 22.2855 5.6323C23.5859 6.39118 24.6614 7.48183 25.402 8.79269C26.1426 10.1036 26.5217 11.5876 26.5006 13.0931C26.4795 14.5985 26.059 16.0714 25.282 17.361C25.105 17.6549 24.9111 17.9384 24.7015 18.21C24.6835 18.2325 24.6685 18.2565 24.6505 18.2775C24.4375 18.547 24.2086 18.8034 23.965 19.0455C23.9065 19.104 23.8405 19.158 23.779 19.215C23.6125 19.365 23.44 19.515 23.2615 19.665C23.1445 19.758 23.0245 19.8465 22.903 19.9335C22.7815 20.0205 22.6315 20.118 22.492 20.205C22.3525 20.292 22.2205 20.379 22.078 20.457C21.868 20.5725 21.6505 20.676 21.43 20.7735C21.259 20.8485 21.0835 20.9145 20.9065 20.979C20.7295 21.0435 20.5555 21.105 20.3755 21.1575C20.242 21.195 20.101 21.228 19.9705 21.261ZM26.149 24.8445C25.8176 24.8857 25.5094 25.0363 25.2733 25.2724C25.0372 25.5085 24.8866 25.8166 24.8455 26.148L24.4735 29.13L20.7475 24.162C20.779 24.162 20.809 24.1395 20.8405 24.1305C21.9474 23.848 23.0057 23.4011 23.98 22.8045L24.0145 22.785C25.0066 22.1726 25.9006 21.4141 26.6665 20.535C26.6755 20.5245 26.6875 20.517 26.6965 20.505L30.031 24.36L26.149 24.8445Z" fill="white"/>
</svg>
