<svg width="200" height="115" viewBox="0 0 200 115" fill="none" xmlns="http://www.w3.org/2000/svg">
<g clip-path="url(#clip0_2373_159)">
<path d="M124.649 63.6474C123.094 64.6986 121.061 65.0096 119.256 64.4781C119.055 64.4191 118.834 64.3324 118.743 64.1435C118.605 63.86 118.826 63.5372 118.866 63.2262C118.98 62.3246 117.693 61.9349 117.287 61.1278C117.125 60.8089 117.113 60.4349 117.085 60.0806C116.836 56.9114 115.178 54.0572 113.785 51.199C113.686 50.9904 113.579 50.766 113.623 50.5376C113.666 50.3093 113.927 50.1125 114.128 50.2266C113.978 50.766 114.31 51.3919 114.839 51.573C115.08 50.6518 115.214 49.4393 114.385 48.9668C114.105 48.8054 113.765 48.7779 113.441 48.7621C112.162 48.6991 110.875 48.77 109.612 48.9747C109.399 49.0101 109.17 49.0416 108.984 48.9353C108.822 48.8409 108.739 48.6558 108.625 48.5023C108.313 48.0889 107.488 47.8645 107.05 48.2228C106.564 48.6243 106.935 49.4983 105.999 49.6164C105.47 49.6833 104.961 49.4156 104.499 49.1519C104.002 48.8723 103.497 48.581 103.133 48.1401C103.007 47.9826 102.893 47.8055 102.719 47.6992C102.387 47.4905 101.965 47.6047 101.574 47.6007C101.183 47.5968 100.709 47.3133 100.812 46.9393C100.844 46.8252 100.93 46.7307 100.998 46.6283C101.487 45.8803 100.84 44.8095 99.9829 44.5378C99.1262 44.2662 98.2024 44.5378 97.3457 44.8056C96.0627 45.2111 94.7796 45.6126 93.4926 46.0181C93.007 46.1717 92.4977 46.3252 91.9963 46.2346C91.566 46.1559 91.116 45.9039 90.7251 46.0929C90.1922 46.3488 90.279 47.1401 89.9592 47.6362C89.6513 48.1086 88.9959 48.2621 88.6801 48.7306C88.313 49.2739 88.5301 49.9944 88.4946 50.6479C88.4196 51.9037 87.3813 52.8604 86.4693 53.7344C85.5573 54.6084 84.6335 55.7422 84.8665 56.9823C84.9375 57.3642 85.1191 57.7224 85.1467 58.1083C85.1665 58.4271 85.0836 58.7421 84.9967 59.0531C84.7283 60.0294 84.4638 61.0019 84.1953 61.9782C85.0915 63.5608 86.0863 65.0883 87.1641 66.5489C87.6971 67.2694 88.2616 67.9859 88.9999 68.4977C89.7381 69.0095 90.6777 69.2929 91.5463 69.0646C91.9332 68.9622 92.2964 68.7575 92.6991 68.7181C93.2557 68.6591 93.8045 68.9228 94.3651 68.8992C95.0204 68.8717 95.585 68.4662 96.11 68.0764C96.6351 67.6867 97.2076 67.2851 97.859 67.2654C98.5143 67.2457 99.217 67.8126 99.0788 68.4504C99.0473 68.5882 98.9802 68.7299 98.9999 68.8677C99.0433 69.1709 99.4381 69.2772 99.7381 69.2339C100.042 69.1945 100.366 69.0803 100.642 69.2142C101.017 69.3992 101.061 69.9267 100.934 70.3244C100.765 70.8637 100.405 71.3204 100.165 71.8322C99.9237 72.344 99.825 72.9936 100.168 73.4424C100.346 73.6746 100.615 73.8203 100.832 74.0132C101.199 74.336 101.416 74.7888 101.594 75.2415C102.356 77.1824 102.521 79.3437 102.099 81.3791C101.913 82.2807 101.337 83.0129 101.155 83.8436C100.954 84.7806 101.7 85.8278 102.142 86.5915C102.814 87.7529 103.208 89.0718 103.295 90.4103C103.327 90.9418 103.319 91.5008 103.564 91.9772C103.749 92.3315 104.057 92.6071 104.314 92.9141C105.289 94.1031 105.411 95.7526 105.494 97.2841C105.699 97.5557 106.126 97.5557 106.434 97.4101C106.746 97.2644 106.994 97.0124 107.294 96.851C108.052 96.4455 108.976 96.6581 109.829 96.5597C111.298 96.3943 112.589 95.1818 112.841 93.7291C112.912 93.3275 112.912 92.9023 113.086 92.5323C113.347 91.9732 113.978 91.5953 114.061 90.9851C114.093 90.7449 114.033 90.493 114.085 90.2528C114.251 89.5009 115.407 89.2647 115.506 88.497C115.553 88.1308 115.328 87.7923 115.186 87.4498C114.76 86.4341 115.119 85.1506 116.007 84.501C116.339 84.257 116.73 84.0995 117.069 83.8633C118.704 82.7334 118.668 80.2807 117.977 78.4225C117.709 77.6981 117.362 76.9659 117.413 76.1903C117.444 75.6825 117.65 75.1982 117.887 74.7494C118.487 73.6156 119.316 72.6038 120.307 71.7928C120.954 71.2653 121.7 70.7889 122.067 70.0409C122.292 69.5842 122.356 69.0646 122.533 68.5843C122.857 67.7103 123.528 67.0253 124.053 66.2576C124.602 65.4938 124.993 64.5096 124.649 63.6474ZM115.127 82.5287C115.084 82.8476 114.724 83.1468 114.448 82.9814C114.436 82.1311 114.255 81.2886 114.073 80.4579C113.986 80.0603 113.895 79.6587 113.808 79.2611C113.769 79.076 113.71 78.8674 113.544 78.7768C113.425 78.7138 113.272 78.7217 113.161 78.643C112.995 78.5249 113.007 78.269 112.873 78.1154C112.695 77.9186 112.36 77.9895 112.135 77.8477C111.909 77.7099 111.858 77.4107 111.827 77.1509L111.487 74.2652C111.475 74.1549 111.463 74.0329 111.523 73.9384C111.59 73.8321 111.72 73.7888 111.838 73.7455C112.344 73.5526 112.77 73.1629 113.007 72.6786C113.106 72.47 113.173 72.2495 113.311 72.0645C113.804 71.3991 114.464 71.596 114.519 72.2495C114.598 73.155 114.235 73.0408 113.726 73.3597C113.335 73.6038 112.664 74.0132 112.395 74.4227C111.988 75.0368 112.348 75.21 112.628 75.8045C112.885 76.3596 112.64 77.1037 113.046 77.5603C113.311 77.8556 113.749 77.9107 114.085 78.1233C114.61 78.454 114.803 79.1272 114.839 79.7414C114.874 80.3595 114.791 80.9894 114.949 81.5878C115.028 81.9027 115.17 82.2098 115.127 82.5287Z" fill="#E6E6E6"/>
<path d="M120.212 83.8475C119.88 84.4538 120.559 85.1585 120.504 85.8475C120.449 86.5561 119.655 86.997 119.49 87.6899C119.422 87.9734 119.47 88.2726 119.537 88.556C119.663 89.0993 119.853 89.6308 120.101 90.1347C120.18 90.2961 120.271 90.4575 120.401 90.5796C120.808 90.9575 121.511 90.8315 121.906 90.4418C122.3 90.052 122.454 89.4773 122.537 88.93C122.62 88.3789 122.652 87.812 122.873 87.3041C123.193 86.56 123.899 85.9341 123.86 85.127C123.84 84.7255 123.627 84.3554 123.536 83.9656C123.441 83.572 123.52 83.072 123.891 82.9066C123.931 83.1625 123.97 83.4224 124.01 83.6783C125.06 83.3515 123.773 79.8949 122.632 81.6429C122.17 82.3555 122.628 82.8358 121.704 83.2019C121.215 83.3987 120.512 83.3003 120.212 83.8475Z" fill="#E6E6E6"/>
<path d="M199.988 22.2355C199.96 22.1174 199.866 22.0268 199.775 21.9441C199.143 21.3654 198.44 20.8654 197.682 20.4678C198.16 20.4285 198.654 20.3812 199.076 20.1529C199.502 19.9285 199.842 19.4757 199.779 18.9994C199.672 18.1884 198.519 17.7159 198.634 16.9049C198.689 16.5388 199.005 16.1727 198.835 15.8459C198.713 15.6215 198.425 15.5625 198.168 15.531C196.834 15.3538 195.503 15.1727 194.165 14.9956C194.224 15.5034 194.082 16.0664 193.671 16.3735C193.257 16.6766 192.558 16.5782 192.361 16.1058C192.294 15.9404 192.29 15.7475 192.175 15.6058C191.938 15.3026 191.457 15.4798 191.089 15.6176C190.304 15.9207 189.408 15.9207 188.626 15.6137C188.476 15.5507 188.31 15.468 188.247 15.3184C188.152 15.094 188.31 14.8499 188.322 14.6098C188.342 14.1964 187.915 13.8775 187.501 13.8381C187.09 13.8027 186.688 13.968 186.293 14.098C185.144 14.468 183.778 14.5192 182.834 13.7673C182.554 13.5468 182.325 13.2633 182.021 13.0744C181.595 12.8067 181.074 12.7515 180.576 12.7004C179.289 12.5705 178.002 12.4405 176.715 12.3067C176.593 12.2949 176.451 12.287 176.344 12.3579C176.178 12.4799 176.206 12.7279 176.151 12.9248C176.048 13.3066 175.614 13.5074 175.219 13.535C174.82 13.5625 174.421 13.4681 174.027 13.5153C173.734 13.5468 173.446 13.657 173.154 13.6373C172.858 13.6216 172.534 13.4129 172.542 13.1216C172.171 13.3539 171.926 13.7712 171.915 14.2082C171.164 14.2909 170.221 13.7555 170.387 13.0193C170.43 12.8303 170.541 12.661 170.56 12.4681C170.659 11.2713 167.69 11.0036 167.019 11.5193C166.838 11.661 166.695 11.85 166.522 11.9996C165.791 12.6334 164.489 12.3815 164.046 11.5193C162.996 11.3894 161.93 11.3973 160.876 11.5311C160.45 10.8067 159.337 11.1492 158.626 11.602C157.915 12.0547 156.877 12.4957 156.336 11.8539C158.132 11.4484 159.834 10.6335 161.279 9.49969C161.425 9.38552 161.583 9.23198 161.547 9.04695C161.528 8.92097 161.417 8.83042 161.31 8.75562C160.643 8.29501 159.826 8.05092 159.013 8.07061C158.421 8.08242 157.714 8.19265 157.339 7.73597C157.106 7.45645 157.078 7.02733 156.794 6.79506C156.522 6.57459 156.131 6.62577 155.787 6.68483C155.025 6.82262 154.26 6.96041 153.494 7.0982C153.375 7.11788 153.245 7.14544 153.162 7.23205C153.055 7.35016 153.063 7.52732 153.051 7.68873C152.984 8.69263 151.717 9.40521 150.821 8.93672C150.541 8.78712 150.304 8.55484 150 8.46036C149.617 8.34619 149.206 8.4761 148.827 8.60996C147.244 9.15718 145.661 9.70441 144.078 10.2516C144.504 10.539 145.057 10.6335 145.554 10.5036C145.704 10.7674 145.318 11.0036 145.018 11.0666C143.809 11.3185 142.605 11.5705 141.393 11.8185C142.084 12.3421 142.755 12.8972 143.395 13.4799C143.707 13.2633 143.999 13.8263 143.881 14.1885C143.766 14.5507 143.549 14.9995 143.825 15.2554C143.454 15.1334 143.138 14.8578 142.957 14.5074C143.15 14.3657 143.336 14.22 143.529 14.0783C143.107 14.1649 142.645 13.8893 142.519 13.4799C141.749 13.3303 141.014 12.9996 140.395 12.5193C140.272 12.8067 140.438 13.1885 140.738 13.2948C140.454 13.3342 140.17 13.3657 139.885 13.4011C139.98 13.8421 140.375 14.2003 140.825 14.2515C140.26 14.3972 139.625 14.2633 139.163 13.9051C139.585 13.2712 138.965 12.2673 138.207 12.3539C138.642 12.413 138.717 13.035 138.523 13.4287C138.33 13.8263 137.99 14.1806 137.998 14.6176C138.006 15.153 138.507 15.7987 138.089 16.1412C138.598 16.5664 139.542 15.7948 139.968 16.2947C140.098 16.4522 140.114 16.6687 140.17 16.8656C140.335 17.4561 140.983 17.8655 141.587 17.7593C141.239 18.3104 140.41 17.7671 140.031 17.2356C139.656 16.7042 138.808 16.1766 138.476 16.7396C138.369 16.9246 138.389 17.149 138.389 17.3577C138.369 18.8891 136.565 20.1056 135.132 19.5505C135.677 18.8773 136.96 19.145 137.378 18.3892C137.548 18.0781 137.501 17.7002 137.449 17.3538C137.28 16.216 137.114 15.0822 136.944 13.9444C137.043 13.4208 137.082 12.8854 137.059 12.3539C136.459 12.5626 135.491 12.535 135.511 11.9012C135.002 12.7437 134.489 13.5862 133.979 14.4287C133.667 14.9365 133.434 15.7318 133.963 15.9995C134.319 15.8538 134.733 16.153 134.832 16.527C134.935 16.8971 134.804 17.2868 134.635 17.6333C133.869 15.5192 129.992 16.4916 128.981 14.4838C128.519 14.6609 128.942 15.3735 129.408 15.5428C129.877 15.7121 130.521 16.0113 130.347 16.4758C130.217 16.842 129.712 16.842 129.325 16.8144C128.207 16.7357 127.063 16.9916 126.083 17.5427C125.997 17.149 125.906 16.7593 125.823 16.3735C125.01 16.9483 124.188 17.523 123.375 18.1018C122.976 18.3813 122.558 18.6687 122.072 18.7198C121.591 18.7671 121.034 18.4797 120.971 17.9994C120.908 17.5191 121.611 17.0979 121.922 17.4679C122.057 16.5861 120.849 15.8499 120.122 16.3735C120.604 17.1845 120.616 18.2553 120.15 19.0781C119.976 19.3852 119.712 19.6726 119.364 19.7277C119.017 19.7789 118.614 19.4797 118.689 19.1372C118.247 19.5269 117.998 20.1214 118.03 20.708C117.311 20.9402 116.455 20.6647 116.008 20.0505C116.064 20.393 116.119 20.7277 116.174 21.0702C115.657 21.6253 114.524 21.2237 114.473 20.4678C114.457 20.2434 114.516 20.023 114.516 19.7986C114.516 19.0348 113.841 18.4679 113.225 18.0073C114.145 18.3537 115.069 18.7041 115.989 19.0505C116.506 19.2474 117.059 19.4482 117.599 19.3419C118.393 19.1923 118.906 18.1254 118.2 17.5742C116.932 16.5861 115.472 15.842 113.924 15.3971C113.478 15.2711 113 15.1649 112.562 15.3066C112.203 15.4207 111.721 15.6491 111.528 15.3263C111.887 15.3774 112.274 15.2397 112.519 14.968C111.768 14.8027 111.01 14.6964 110.245 14.657C109.36 15.4404 108.76 16.5467 109.017 17.6648C109.412 19.3812 111.646 20.8221 110.829 22.3811C111.599 22.2079 112.404 22.0386 113.166 22.2315C113.577 22.33 113.975 22.574 114.244 22.8969C114.24 22.8811 114.244 22.8614 114.248 22.8457C114.477 22.7709 114.721 22.6922 114.954 22.7551C115.187 22.8181 115.377 23.0898 115.258 23.3024C115.179 23.452 114.97 23.574 115.045 23.7276C115.093 23.822 115.223 23.8378 115.322 23.8693C115.606 23.9559 115.764 24.322 115.633 24.5858C115.227 24.5622 114.82 24.5425 114.41 24.5228C114.271 24.8181 114.086 25.1015 113.956 25.3968C113.407 26.633 113.806 28.0502 113.853 29.4006C113.873 30.0935 113.715 30.8651 113.371 31.4635C113.454 31.4478 113.537 31.4281 113.62 31.4163C115.156 31.1564 116.913 31.5422 117.852 32.7824C118.792 34.0225 118.476 36.1523 117.035 36.735C116.486 36.9554 115.847 36.9476 115.345 37.2625C115.14 37.3846 114.99 37.605 114.919 37.8373C115.851 37.3098 116.81 36.8058 117.864 36.609C117.631 37.105 117.173 37.483 116.644 37.6129C116.822 37.7271 116.763 38.0223 116.585 38.1365C116.407 38.2507 116.178 38.231 115.973 38.1877C115.768 38.1444 115.551 38.0932 115.349 38.1444C115.172 38.1877 115.029 38.3255 114.958 38.4948C114.923 38.5696 114.907 38.6522 114.907 38.7349C114.907 38.794 114.919 38.8451 114.935 38.9003C115.472 38.4515 116.324 38.4396 116.873 38.8766C117.082 39.0459 117.248 39.2664 117.473 39.416C117.722 39.5813 118.046 39.6561 118.235 39.8924C118.421 40.1286 118.29 40.6049 117.998 40.5419C117.986 40.6915 118.144 40.7978 118.286 40.8254C118.432 40.8529 118.59 40.8411 118.721 40.9081C119.025 41.0655 118.969 41.5537 118.705 41.7702C118.44 41.9828 118.069 42.0025 117.726 42.0025C116.83 42.0143 115.898 42.0222 115.077 41.66C114.69 41.4907 114.342 41.2388 113.94 41.097C113.541 40.9553 113.059 40.9435 112.736 41.2151C112.586 41.3411 112.483 41.5222 112.337 41.66C111.99 41.9946 111.397 42.0379 111.003 41.7584C110.679 41.5262 110.521 41.0892 110.596 40.6994C110.225 41.0734 109.905 41.5104 109.676 41.9789C109.873 42.5379 110.071 43.1009 110.268 43.6599C110.335 43.841 110.395 44.0221 110.462 44.1993C110.651 44.7465 110.963 45.3882 111.539 45.4237C112.27 45.4709 113.004 44.4788 113.584 45.3764C113.695 45.5496 113.731 45.7544 113.731 45.963C113.727 46.3685 114.287 46.8803 114.587 46.5614C114.552 46.2701 114.52 45.9551 114.654 45.6914C114.789 45.4315 115.16 45.2662 115.393 45.4512C115.551 45.5733 115.582 45.7977 115.594 45.9945C115.61 46.2858 115.594 46.585 115.554 46.8724C115.464 47.5653 115.187 48.2858 114.603 48.6558C114.145 48.9432 113.486 49.1519 113.861 49.766C113.948 49.8999 114.295 49.7463 114.394 49.8763C114.611 50.1794 114.461 50.4983 114.489 50.8565C114.548 51.6164 115.412 51.9982 115.886 52.6006C116.541 53.4273 116.403 54.6123 116.727 55.6162C117.386 57.6713 119.984 58.9901 119.838 61.1436C119.779 61.9821 119.368 63.0294 120.059 63.5136C120.521 63.8325 121.153 63.6081 121.666 63.3679C122.621 62.927 123.581 62.4821 124.544 62.0373C124.935 61.8601 125.349 61.6554 125.551 61.2735C125.653 61.0727 125.689 60.8405 125.835 60.6672C126.048 60.4153 126.419 60.3798 126.731 60.2775C127.438 60.0413 127.911 59.3759 128.267 58.7185C128.65 58.0059 128.95 57.25 129.163 56.4666C129.218 56.2619 129.269 56.0414 129.218 55.8328C129.033 55.0729 127.694 54.9981 127.627 54.2186C127.599 53.8919 127.828 53.6005 127.935 53.2935C128.042 52.9825 127.923 52.5258 127.596 52.5297C127.398 53.1084 127.185 53.7108 126.747 54.136C126.305 54.5611 125.558 54.7422 125.077 54.3682C124.718 54.0927 124.599 53.6124 124.354 53.2344C123.983 52.6478 123.304 52.2935 122.98 51.6833C122.657 51.0691 123.13 50.0377 123.774 50.3014C124.09 51.4628 124.887 52.4825 125.941 53.0651C126.593 52.8447 127.22 52.5494 127.809 52.1833C128.101 51.951 128.488 52.388 128.519 52.7581C128.551 53.1321 128.492 53.5887 128.796 53.8053C128.95 53.9194 129.159 53.9273 129.352 53.9273C130.935 53.9273 132.511 53.7462 134.05 53.384C133.734 54.3013 134.583 55.4036 135.551 55.3328C135.432 55.7068 135.057 55.9863 134.662 55.9902C134.852 56.3603 135.053 56.7461 135.393 56.9941C135.732 57.2382 136.245 57.2933 136.541 57.002C136.822 56.7304 136.857 56.2225 137.22 56.0729C137.643 55.8957 138.061 56.4233 138.026 56.88C137.99 57.3327 137.706 57.7225 137.552 58.1555C137.244 59.0334 137.532 59.998 137.813 60.8838C138.361 62.5924 138.93 64.3443 140.055 65.7497C140.458 65.3718 140.864 64.9939 141.267 64.6159C141.812 64.7104 141.832 65.4899 141.658 66.0096C141.48 66.5371 141.318 67.2418 141.792 67.5292C142.218 67.7851 142.787 67.3757 142.882 66.8914C142.976 66.4072 142.755 65.9269 142.538 65.482C142.258 64.9151 141.982 64.3403 141.705 63.7695C141.611 63.5726 141.508 63.364 141.528 63.1435C141.543 62.9546 141.634 62.7853 141.713 62.612C141.962 62.0569 142.041 61.4231 141.93 60.8247C143.411 60.0728 144.65 58.8563 145.416 57.3799C145.535 57.1595 145.645 56.9272 145.847 56.7776C146.455 56.3367 147.477 56.9548 148.014 56.4312C148.764 56.7107 149.396 57.2815 149.751 57.998C150.012 58.5216 150.252 59.2185 150.837 59.2618C149.941 59.6279 149.337 60.5964 149.404 61.557C150.304 61.7853 151.299 60.9349 151.208 60.0137C151.559 59.8129 152.025 60.057 152.215 60.4153C152.4 60.7735 152.38 61.1987 152.357 61.6003C152.29 62.8168 152.215 64.0293 152.147 65.2379C152.128 65.6001 152.112 65.9899 152.313 66.2891C152.503 66.5725 152.862 66.73 152.992 67.045C153.19 67.5095 152.795 68.0961 153.051 68.5331C153.19 68.7654 153.462 68.8677 153.671 69.0291C154.121 69.3717 154.271 69.9779 154.595 70.4425C154.919 70.907 155.669 71.2102 156.02 70.7653C155.27 70.1787 154.793 69.2654 154.741 68.3126C154.729 68.0961 154.737 67.8678 154.646 67.6709C154.536 67.4229 154.299 67.2615 154.098 67.0804C152.925 66.0096 153.067 64.1592 153.308 62.5884C153.853 63.3837 154.725 63.9466 155.681 64.112C155.373 64.7419 155.641 65.5844 156.249 65.9308C156.289 65.3127 156.755 64.7498 157.351 64.5884C157.611 64.5175 157.888 64.5136 158.132 64.4073C158.867 64.0923 158.946 63.1002 158.91 62.305C158.898 61.99 158.879 61.6633 158.709 61.4034C158.425 60.9743 157.852 60.8719 157.402 60.62C156.597 60.1672 156.202 59.0964 156.53 58.2264C156.849 57.3603 157.848 56.8052 158.756 56.9863C159.056 57.1162 158.922 57.5925 158.661 57.7894C158.401 57.9862 158.042 58.1043 157.919 58.4075C157.746 58.8287 158.259 59.2972 158.705 59.1988C159.151 59.1043 159.435 58.6358 159.467 58.1791C159.494 57.7264 159.329 57.2855 159.163 56.8563C160.122 57.065 161.18 56.7304 161.839 56.006C162.025 55.8013 162.191 55.565 162.432 55.4273C162.898 55.1556 163.565 55.3052 163.948 54.9194C164.24 54.6281 164.22 54.1596 164.311 53.7541C164.481 53.0021 165.061 52.4274 165.404 51.7423C165.744 51.0573 166.08 50.0022 165.898 49.2464C165.768 48.6952 165.479 48.1952 165.282 47.6677C165.14 47.2937 165.045 46.9039 164.994 46.5024C164.974 46.341 164.958 46.1599 165.033 46.0181C165.168 45.7583 165.499 45.6992 165.748 45.5457C166.119 45.3174 166.312 44.841 166.202 44.4237C165.175 44.7662 163.975 44.5064 163.186 43.7702C163.415 43.3292 163.92 43.1245 164.358 42.8883C164.8 42.656 165.258 42.2781 165.239 41.7781C165.519 41.7781 165.795 41.7781 166.072 41.7742C166.091 42.2269 165.878 42.6875 165.519 42.9671C165.898 43.2938 166.47 42.9828 166.916 42.7505C167.363 42.5182 168.109 42.5182 168.164 43.0143C168.215 43.4946 167.489 43.8174 167.588 44.2898C168.097 44.1166 168.646 44.7977 168.369 45.2583C168.294 45.3804 168.172 45.5024 168.192 45.6481C168.215 45.8252 168.425 45.8921 168.579 45.9788C169.009 46.2071 169.198 46.7976 168.977 47.2307C169.277 46.9984 169.577 46.7661 169.877 46.5299C169.945 46.8055 170.256 46.9905 170.537 46.9275C170.813 46.8606 171.006 46.5535 170.943 46.278C170.884 46.0063 170.631 45.8173 170.549 45.5536C170.426 45.156 170.706 44.715 170.568 44.3253C170.462 44.0182 170.134 43.8568 169.866 43.6639C169.601 43.471 169.36 43.1245 169.522 42.8371C169.617 42.66 169.826 42.5891 169.996 42.4868C170.841 41.9631 171.022 40.4711 172.017 40.4396C172.218 40.4317 172.416 40.4947 172.609 40.4671C173.174 40.3884 173.371 39.7034 173.64 39.1955C174.228 38.0696 175.594 37.5224 176.214 36.4082C176.688 35.5539 176.632 34.5106 176.913 33.5697C177.118 32.8887 177.505 32.18 177.264 31.5068C176.968 30.6683 175.61 30.5029 175.12 31.247C175.199 30.8257 175.278 30.4084 175.361 29.9832C175.065 30.936 173.091 30.0777 174.808 29.1447C175.953 28.5266 176.98 27.6762 177.805 26.6684C178.085 26.3259 178.35 25.9598 178.717 25.7117C180.067 24.8023 181.926 25.9283 183.506 25.5346C183.561 25.6881 183.612 25.8456 183.667 25.9991C183.241 26.1763 182.823 26.3534 182.4 26.5306C183.292 26.9479 184.252 25.9598 185.235 25.9991C185.523 26.0109 185.937 26.0109 185.953 25.7314C185.689 25.6921 185.345 25.5464 185.393 25.2826C185.408 25.1881 185.479 25.1094 185.547 25.0425C185.803 24.7708 186.06 24.5031 186.32 24.2315C186.751 23.7787 187.449 23.2945 187.943 23.6882C188.314 23.9874 188.144 24.7078 187.674 24.8063C187.982 25.1133 188.504 24.8338 188.811 24.5228C189.119 24.2157 189.514 23.8457 189.925 24.0031C190.039 23.7748 190.039 23.4953 189.933 23.2709C190.26 23.0898 190.663 23.0465 191.022 23.1567C190.805 23.3378 190.655 23.6055 190.612 23.885C190.58 24.0661 190.596 24.2551 190.541 24.4283C190.343 25.0818 189.467 25.1566 188.847 25.4598C187.757 25.9873 187.374 27.381 186.395 28.0857C186.155 28.2628 185.882 28.3927 185.681 28.6132C185.25 29.0896 185.306 29.8297 185.503 30.4399C185.708 31.0501 186.04 31.6367 186.076 32.2745C186.083 32.3965 186.08 32.5147 186.068 32.6328C186.024 33.0579 186.549 33.2981 186.849 32.995C186.92 32.9201 186.995 32.8454 187.066 32.7745C187.414 32.4162 187.777 32.0462 187.955 31.5816C188.077 31.2509 188.132 30.8494 188.436 30.6761C188.661 30.5502 188.942 30.6053 189.194 30.558C189.451 30.5187 189.723 30.2588 189.593 30.0305C189.175 29.7352 189.25 28.9872 189.712 28.7707C189.905 28.8612 190.098 28.9518 190.292 29.0463C190.75 28.8376 190.059 28.0857 190.308 27.6487C190.402 27.4794 190.635 27.377 190.627 27.1841C190.62 26.944 190.28 26.9007 190.039 26.94C189.881 26.1566 190.422 25.3023 191.196 25.1094C191.18 25.2708 191.168 25.4362 191.157 25.5976C191.539 25.3574 191.922 25.1173 192.305 24.8692C192.372 25.0543 192.44 25.2393 192.507 25.4322C192.965 25.6684 193.324 24.6252 193.802 24.8181C193.904 24.8614 193.975 24.9559 194.062 25.0228C194.406 25.3023 195.018 25.0897 195.112 24.6567C195.468 23.0229 197.457 22.948 199.123 22.8103C199.546 22.7827 200.079 22.6134 199.988 22.2355ZM126.356 42.16C126.076 42.412 125.673 42.4789 125.298 42.4198C125.207 42.4946 125.274 42.6521 125.373 42.7112C125.472 42.7741 125.598 42.7899 125.685 42.8726C125.839 43.0222 125.779 43.2741 125.803 43.4867C125.847 43.8292 126.143 44.093 126.222 44.4276C126.364 45.03 125.712 45.5851 125.089 45.589C123.79 45.6008 122.878 44.5497 122.542 43.4198C122.349 42.7741 121.978 41.0222 122.973 40.9238C122.672 40.5301 122.988 40.0971 122.799 39.6758C122.696 39.4475 122.44 39.3373 122.266 39.1562C121.922 38.79 121.974 38.1759 122.266 37.7664C122.558 37.357 123.028 37.1169 123.498 36.9318C123.956 36.7547 124.477 36.6169 124.927 36.8019C125.381 36.9869 125.657 37.6326 125.318 37.9869C124.95 38.3688 124.2 38.1483 123.869 38.5617C123.659 38.8176 123.731 39.2191 123.94 39.475C124.153 39.7309 124.473 39.8727 124.781 39.9908C124.954 40.0577 125.14 40.1404 125.207 40.3057C125.314 40.5577 125.097 40.8136 124.958 41.0459C124.824 41.2821 124.852 41.6954 125.124 41.6954C125.389 41.6915 125.432 41.3175 125.578 41.097C125.783 40.786 126.32 40.8372 126.53 41.1482C126.743 41.4632 126.632 41.912 126.356 42.16ZM158.772 30.121C158.713 30.2352 158.642 30.3494 158.602 30.4714C158.563 30.6092 158.563 30.7588 158.527 30.8966C158.425 31.31 158.042 31.5777 157.694 31.8296C157.453 32.0029 157.213 32.1958 157.07 32.4517C157.011 32.558 156.972 32.6761 156.905 32.7824C156.561 33.3571 155.539 33.4752 156.182 32.6721C156.581 32.1721 157.173 31.4399 157.667 31.0068C157.836 30.8572 158.042 30.7352 158.156 30.5423C158.342 30.2273 158.239 29.8297 158.251 29.4636C158.263 29.0974 158.539 28.6605 158.894 28.7628C159.025 29.2077 158.981 29.7037 158.772 30.121ZM114.619 23.763C114.623 23.8024 114.623 23.8378 114.619 23.8811C114.607 24.0228 114.579 24.1567 114.532 24.2866C114.587 24.2905 114.639 24.2905 114.682 24.2866C114.761 24.1094 114.71 23.9401 114.619 23.763ZM111.922 32.4989C112.578 32.4517 113.067 32.0383 113.395 31.4674C112.771 31.617 112.159 31.9202 111.922 32.4989Z" fill="#E6E6E6"/>
<path d="M117.054 36.7428C116.506 36.9633 115.866 36.9554 115.365 37.2704C115.159 37.3924 115.009 37.6129 114.938 37.8452C114.855 37.8885 114.773 37.9397 114.69 37.983C113.233 38.8097 113.778 36.9909 112.416 37.0027C111.085 37.0145 111.468 39.2349 110.876 39.038C110.726 39.3766 110.971 39.7782 110.864 40.1325C110.825 40.2545 110.75 40.3648 110.694 40.4789C110.659 40.5498 110.635 40.6285 110.623 40.7073C110.252 41.0813 109.932 41.5183 109.703 41.9868C109.688 41.9356 109.668 41.8883 109.652 41.8372C109.328 41.5183 108.732 41.8568 108.63 42.2978C108.527 42.7387 108.72 43.1914 108.851 43.6245C108.981 44.0576 109.028 44.589 108.701 44.9079C108.531 45.0772 108.255 45.1953 108.499 45.5811C108.586 45.7229 108.76 45.778 108.926 45.7543C109.277 45.7032 109.577 46.3528 109.234 46.3724C108.598 46.4472 108.132 45.7819 107.931 45.1756C107.733 44.5694 107.595 43.8646 107.062 43.5143C106.802 43.341 106.442 43.2584 106.316 42.9749C106.103 42.4946 106.723 41.9356 106.494 41.4632C106.269 41.0025 105.515 41.1718 105.128 40.8293C104.8 40.538 104.844 39.975 104.528 39.6758C104.366 39.5223 104.141 39.4632 103.936 39.3845C103.28 39.1325 102.739 38.6089 102.463 37.9672C102.088 38.0341 102.143 38.5932 102.321 38.9317C103.012 40.2191 104.109 41.286 105.42 41.9435C104.994 42.156 104.784 42.6403 104.611 43.0852C104.346 43.7465 104.082 44.4119 103.821 45.0772C103.422 45.03 103.004 44.9709 102.68 44.7308C102.36 44.4906 102.187 43.9985 102.424 43.6757C102.862 44.1009 103.711 43.9473 103.975 43.4001C104.236 42.845 103.825 42.097 103.217 42.0261C103.474 41.3017 102.656 40.6679 101.938 40.3963C101.219 40.1246 100.339 39.7782 100.252 39.0184C99.9245 38.727 99.3955 38.8727 99.0402 39.1286C98.6849 39.3884 98.3888 39.7427 97.9703 39.8845C97.5558 40.0262 96.9636 39.79 96.9912 39.3491C96.778 39.5341 96.5649 39.7191 96.3477 39.9042C96.8333 40.0419 96.557 40.8214 96.1109 41.0498C95.6608 41.2781 95.0489 41.4199 94.9383 41.9159C94.8949 42.1127 94.9541 42.3175 94.9502 42.5261C94.9462 42.8371 94.8002 43.1285 94.662 43.408C94.3106 44.093 93.8566 44.8567 93.0986 44.9985C92.6525 45.0811 91.9735 45.1284 92.0366 45.5733C91.3931 45.0142 90.497 44.7583 89.6561 44.8922C89.7074 44.4985 89.7587 44.1087 89.8061 43.719C89.5179 43.6757 89.2218 43.6324 88.9336 43.593C89.3837 42.9749 89.5455 42.1521 89.3639 41.408C89.2652 40.9907 89.1428 40.4041 89.5455 40.2585C89.3284 40.0656 89.1705 39.8057 89.0915 39.5262C89.6955 39.2624 90.3983 39.2349 91.0299 39.4435C91.3023 39.5341 91.5629 39.6679 91.8392 39.7506C92.6209 39.9829 93.5605 39.7231 94.0066 39.0499C94.4567 38.3727 94.2672 37.3176 93.5526 36.9279C93.1776 36.7232 92.7196 36.7074 92.3525 36.487C91.9893 36.2665 91.7998 35.6602 92.1669 35.4437C92.467 35.9004 93.1578 36.0421 93.6118 35.7429C93.3987 35.3768 93.3039 34.9476 93.3473 34.5264C93.6829 34.3886 94.1132 34.7035 94.0737 35.0657C94.6659 35.0775 95.2463 34.6721 95.4358 34.113C95.5068 33.9201 95.5305 33.7075 95.6687 33.55C95.8463 33.3414 96.1582 33.3099 96.4188 33.2115C97.0623 32.9713 97.4413 32.1879 97.2321 31.5422C98.0611 31.1604 98.9849 30.9871 99.8929 31.0383C99.5731 30.4478 99.2415 29.8139 99.2731 29.1407C99.3047 28.4675 99.8535 27.7746 100.525 27.8376C100.627 28.2313 100.619 28.6486 100.509 29.0423C100.706 29.0856 100.9 29.1289 101.097 29.1722C100.671 29.5226 100.24 30.2037 100.683 30.5305C101.034 30.7903 101.539 30.4557 101.97 30.5462C102.167 30.5856 102.337 30.7194 102.53 30.7627C103.403 30.9793 104.251 29.5462 104.99 30.062C105.238 30.2352 105.337 30.5856 105.763 30.5344C105.996 30.5029 106.202 30.3572 106.316 30.1486C106.561 29.7234 106.482 29.2352 106.529 28.7667C106.573 28.3612 106.766 27.9085 107.165 27.8022C107.599 27.6841 108.018 28.0424 108.468 28.0896C109.226 28.1762 109.818 27.1408 109.36 26.5345C108.788 26.9715 108.053 27.1881 107.331 27.129C107.118 26.7589 107.564 26.3534 107.951 26.1802C109.293 25.5857 110.817 25.4007 112.262 25.6645C112.522 25.4243 112.147 25.0464 111.831 24.8929C111.516 24.7433 111.16 24.3378 111.433 24.1173C110.481 23.7354 109.644 25.0661 108.614 25.1173C107.56 25.1684 106.948 23.763 107.339 22.7866C107.733 21.8103 108.709 21.2158 109.624 20.6922C109.02 19.7434 107.437 19.6686 106.746 20.5544C106.833 21.2788 106.541 22.0347 105.988 22.5111C105.42 22.9992 104.488 23.448 104.682 24.1724C104.851 24.8102 105.87 25.1173 105.732 25.7629C105.609 26.3574 104.63 26.3653 104.397 26.9282C104.232 27.3377 104.551 27.8416 104.354 28.2353C104.153 28.6329 103.584 28.6486 103.225 28.9163C102.98 29.0974 102.842 29.3888 102.617 29.5935C102.388 29.7982 101.977 29.8769 101.812 29.6171C101.65 29.3612 101.863 29.0502 101.981 28.7707C102.341 27.9479 101.823 27.0306 101.322 26.2865C100.307 26.2038 99.7824 28.1172 98.8388 27.7274C98.5743 27.6172 98.4164 27.3495 98.2822 27.0936C97.9111 26.4046 97.5321 25.7039 97.39 24.9322C97.2518 24.1606 97.386 23.2984 97.9269 22.7355C98.6493 21.9835 99.8613 21.9402 100.663 21.2788C101.559 20.5387 101.78 19.1647 102.743 18.5151C103.32 18.1254 104.204 17.9167 104.271 17.2238C103.636 17.275 103 17.3262 102.364 17.3774C102.653 16.8459 103.343 16.5703 103.916 16.7553C103.679 16.2475 104.267 15.6963 104.832 15.6176C105.396 15.5428 105.985 15.7042 106.525 15.5428C106.968 15.4089 107.319 15.0822 107.745 14.8971C108.112 14.7397 108.519 14.7003 108.918 14.6806C109.368 14.6609 109.818 14.6609 110.268 14.6806C109.384 15.464 108.784 16.5703 109.04 17.6884C109.435 19.4049 111.669 20.8458 110.852 22.4048C111.622 22.2315 112.427 22.0622 113.189 22.2552C113.6 22.3536 113.999 22.5977 114.267 22.9205C114.228 23.2197 114.472 23.5031 114.615 23.7827C114.619 23.822 114.619 23.8575 114.615 23.9008C114.603 24.0425 114.575 24.1763 114.528 24.3063C113.865 24.2826 112.309 23.9638 113.055 25.0464C113.387 24.6527 113.541 24.9047 113.924 24.8653C114.082 24.8496 114.232 24.6842 114.172 24.5346C114.259 24.5385 114.346 24.5425 114.433 24.5464C114.295 24.8417 114.109 25.1251 113.979 25.4204C113.43 26.6566 113.829 28.0739 113.876 29.4242C113.896 30.1171 113.738 30.8887 113.395 31.4871C113.478 31.4714 113.561 31.4517 113.643 31.4399C115.179 31.18 116.936 31.5659 117.876 32.806C118.811 34.0264 118.499 36.1602 117.054 36.7428Z" fill="#E6E6E6"/>
<path d="M88.3562 30.8257C88.3523 31.2076 88.7234 31.5501 88.6207 31.9202C88.5181 32.2824 88.0049 32.4477 87.9812 32.8257C87.9575 33.2469 88.5418 33.3965 88.9563 33.3138C89.7222 33.1603 90.417 32.6957 90.8552 32.0501C91.0684 31.7351 91.1513 31.1919 90.7921 31.0659C91.2855 30.8927 91.779 30.7194 92.2725 30.5462C92.6594 30.8769 93.0779 31.432 92.7581 31.8257C92.5528 32.0816 92.0672 32.2588 92.2133 32.5501C92.2725 32.6682 92.4304 32.7312 92.4581 32.8611C92.4857 32.9989 92.3554 33.1131 92.2488 33.2036C91.783 33.5933 91.5066 34.2036 91.5224 34.8138C92.2251 34.1681 93.1884 33.8138 94.1438 33.8571C94.3688 33.865 94.6176 33.8886 94.7873 33.7469C94.9571 33.6012 94.8821 33.2312 94.661 33.2666C94.9294 33.0737 95.194 32.8847 95.4624 32.6918C95.5216 32.6485 95.5848 32.6013 95.6164 32.5343C95.6835 32.3769 95.5295 32.1997 95.3637 32.1446C95.1979 32.0895 95.0163 32.0973 94.8584 32.0225C94.511 31.8611 94.4518 31.4044 94.3294 31.0383C94.2109 30.6722 93.7806 30.3061 93.4845 30.5501C93.5595 30.1998 93.6306 29.8218 93.4924 29.4951C93.3542 29.1644 92.9121 28.94 92.6239 29.1526C92.4581 28.9045 92.845 28.6762 93.0463 28.4597C93.2674 28.2235 93.2634 27.8101 93.0345 27.5778C92.8055 27.3495 92.3831 27.3495 92.158 27.5817C92.1896 26.9085 92.3317 26.0779 92.9792 25.8692C93.1568 25.8141 93.3503 25.818 93.524 25.755C93.7017 25.696 93.8675 25.5346 93.8398 25.3495C93.8714 25.5661 94.2188 25.5739 94.3491 25.4007C94.4794 25.2275 94.4518 24.9873 94.4162 24.7708C93.9148 24.6291 93.6977 25.4716 93.2003 25.6291C92.9713 25.7039 92.7107 25.6172 92.4897 25.7078C91.9646 25.9283 92.1067 26.9007 91.558 27.0542C91.4277 27.0896 91.2856 27.066 91.1592 27.1172C90.9105 27.2235 90.8829 27.5699 90.9421 27.8337C91.0013 28.0975 91.1118 28.3849 90.9934 28.629C90.9302 28.7628 90.8 28.8967 90.8513 29.0384C90.9184 29.2234 91.1908 29.1722 91.3764 29.2392C91.8462 29.4045 91.5895 29.9557 91.3448 30.1722C91.0408 30.4439 90.5276 30.373 90.1683 30.3218C89.6393 30.2549 88.3602 29.7864 88.3562 30.8257Z" fill="#E6E6E6"/>
<path d="M100.098 41.7781C100.035 41.7269 99.9716 41.6718 99.9085 41.6206C100.106 41.5734 100.24 41.3687 100.252 41.164C100.264 40.9592 100.177 40.7624 100.062 40.5971C99.9243 40.3963 99.6874 40.2034 99.4584 40.286C99.1623 40.3884 99.1584 40.8018 99.2571 41.097C99.3558 41.3923 99.4939 41.7348 99.3163 41.9868C99.4268 41.9592 99.5492 41.9946 99.6282 42.0773C99.2018 42.3529 99.0991 43.2229 99.7308 43.2741C100.362 43.3253 100.485 42.5182 99.8492 42.3686C99.8571 42.3293 100.106 41.7821 100.098 41.7781Z" fill="#E6E6E6"/>
<path d="M171.676 48.5968C171.712 48.2582 171.747 47.8606 172.035 47.6755C172.126 47.9117 172.3 48.1125 172.517 48.2424C172.715 48.1283 172.821 47.9117 172.936 47.7188C173.05 47.522 173.208 47.3212 173.429 47.2858C173.65 47.2504 173.907 47.4984 173.788 47.6913C174.373 47.9196 174.76 47.0732 175.304 46.7543C175.593 46.589 175.936 46.5732 176.26 46.4945C176.58 46.4118 176.919 46.2071 176.966 45.8803C176.994 45.6874 176.911 45.4984 176.903 45.3055C176.891 44.8922 177.207 44.5575 177.409 44.1953C177.764 43.5694 177.78 42.7623 177.452 42.1245C177.274 41.7781 176.998 41.471 176.911 41.0931C176.824 40.7112 177.045 40.2152 177.436 40.223C177.543 40.5537 177.689 40.9277 178.017 41.0498C178.344 41.1758 178.782 40.7584 178.546 40.5026C178.913 40.4002 179.3 40.3687 179.679 40.4041C179.84 40.1679 179.801 39.8215 179.592 39.6246C180.792 39.2073 181.822 38.3845 182.616 37.3924C181.522 38.0696 180.429 38.7467 179.335 39.4239C179.205 39.5026 179.051 39.5853 178.909 39.5341C178.778 39.4829 178.715 39.3412 178.652 39.2191C178.356 38.668 177.74 38.3058 177.112 38.3176C177.164 38.8373 177.215 39.3609 177.266 39.8805C176.895 39.8136 176.556 40.164 176.469 40.5301C176.382 40.8962 176.469 41.2821 176.501 41.6561C176.611 42.9788 175.983 44.3371 174.906 45.1166C174.902 44.904 174.898 44.6875 174.894 44.4749C174.325 44.5575 174.586 45.6166 174.073 45.8803C173.927 45.9551 173.757 45.9394 173.595 45.9551C172.79 46.0378 172.805 46.8645 171.937 46.5338C171.85 47.585 170.512 47.4 170.606 48.459C170.685 49.3566 171.53 50.0416 171.676 48.5968Z" fill="#E6E6E6"/>
<path d="M178.725 31.9517C178.74 32.0265 178.752 32.1052 178.74 32.1839C178.717 32.3296 178.602 32.4477 178.563 32.5894C178.492 32.8375 178.65 33.0934 178.839 33.2745C179.025 33.4516 179.254 33.6052 179.372 33.8335C179.573 34.2154 179.431 34.7429 179.715 35.0657C179.625 35.2862 179.289 35.2193 179.096 35.0815C178.902 34.9437 178.661 34.7626 178.452 34.8768C178.203 35.2311 178.342 35.7193 178.539 36.1051C178.732 36.4909 178.985 36.8846 178.95 37.3137C178.93 37.5145 178.776 37.7507 178.578 37.7034C178.503 37.6838 178.44 37.6286 178.385 37.5735C178.117 37.3176 177.836 37.0302 177.785 36.6641C177.749 36.3964 177.844 36.1326 177.911 35.8728C178.049 35.3374 178.077 34.7705 177.99 34.2232C177.955 33.987 177.895 33.7548 177.903 33.5146C177.919 33.0737 178.152 32.5816 177.895 32.2233C177.816 32.1131 177.686 31.9871 177.745 31.8611C177.856 31.6367 178.346 31.2115 178.519 31.0344C178.63 31.3257 178.669 31.6446 178.725 31.9517Z" fill="#E6E6E6"/>
<path d="M150.826 69.2339C151.186 69.4976 151.636 69.6906 151.849 70.0842C152.011 70.3874 152.011 70.785 152.263 71.0252C152.398 71.1511 152.587 71.2141 152.721 71.3362C153.041 71.6314 152.97 72.1432 153.124 72.5487C153.341 73.1235 154.012 73.4621 154.139 74.0644C154.182 74.2691 154.158 74.4896 154.245 74.6825C154.415 75.0447 154.904 75.1195 155.177 75.4148C155.311 75.5604 155.386 75.7494 155.501 75.9069C155.828 76.3596 156.507 76.5132 156.997 76.2454C156.823 75.9777 156.724 75.6628 156.717 75.3478C156.713 75.1589 156.74 74.9699 156.701 74.7849C156.614 74.34 156.188 74.029 156.069 73.5881C156.27 73.4424 156.531 73.655 156.681 73.8518C156.831 74.0487 157.08 74.2731 157.289 74.1392C156.91 73.6432 156.476 73.1904 155.998 72.7889C156.038 72.97 155.793 73.0999 155.619 73.0369C155.445 72.9739 155.343 72.8007 155.252 72.6432C155.185 72.5212 155.114 72.3912 155.126 72.2535C155.137 72.1393 155.205 72.0369 155.224 71.9228C155.268 71.6826 155.094 71.4582 154.901 71.3165C154.703 71.1747 154.474 71.0763 154.304 70.9031C153.965 70.5606 153.906 69.9622 153.479 69.7339C153.274 69.6236 153.029 69.6236 152.82 69.5213C152.18 69.1945 152.054 68.2497 151.324 67.9583C150.293 67.541 150.072 68.6788 150.826 69.2339Z" fill="#E6E6E6"/>
<path d="M157.244 76.395C157.09 76.6076 156.94 76.8202 156.786 77.0328C156.754 77.08 156.719 77.1273 156.719 77.1863C156.719 77.3438 156.948 77.3674 157.102 77.3478C157.599 77.2808 158.104 77.3044 158.594 77.4226C159.415 77.6194 160.197 78.0761 161.038 78.021C161.164 78.0131 161.294 77.9934 161.421 78.0131C161.559 78.0328 161.681 78.0997 161.815 78.1351C162.123 78.2257 162.467 78.1745 162.735 78.0013C162.51 77.7847 162.155 77.8005 161.839 77.7769C161.523 77.7533 161.152 77.6115 161.113 77.2966C161.101 77.2139 161.121 77.1234 161.097 77.0407C161.05 76.8635 160.848 76.7769 160.667 76.7651C160.485 76.7533 160.299 76.7966 160.122 76.7612C159.822 76.7021 159.589 76.4265 159.293 76.3832C158.989 76.3399 158.859 76.5722 158.614 76.584C158.112 76.6037 157.714 75.7376 157.244 76.395Z" fill="#E6E6E6"/>
<path d="M164.374 78.1745C164.638 78.1784 164.899 78.3871 165.143 78.2965C165.207 78.2729 165.262 78.2336 165.329 78.2257C165.412 78.2178 165.487 78.269 165.562 78.3005C166.288 78.6351 167.121 77.6824 167.867 77.9698C167.694 78.6745 166.758 78.8989 166.391 79.5248C167.023 79.4343 167.623 79.1115 168.045 78.6312C168.16 78.5013 168.266 78.3595 168.412 78.265C168.495 78.2099 168.59 78.1784 168.677 78.1233C168.874 77.9973 168.993 77.7572 168.977 77.5249C168.76 77.521 168.543 77.5722 168.353 77.6785C168.211 77.7572 168.085 77.8635 167.927 77.8989C167.666 77.958 167.41 77.8084 167.145 77.7729C166.588 77.6942 166.048 78.2729 165.542 78.1784C165.341 78.1391 165.238 77.9147 164.986 77.8517C164.78 77.8005 164.453 77.8871 164.22 77.8556C163.959 77.8202 163.422 77.5564 163.225 77.832C162.644 78.643 164.231 78.1706 164.374 78.1745Z" fill="#E6E6E6"/>
<path d="M164.231 78.9501C164.341 78.8241 164.559 78.9028 164.669 79.0288C164.78 79.1548 164.851 79.3201 164.993 79.4107C165.135 79.4973 165.336 79.4815 165.463 79.3674C165.538 79.3004 165.581 79.1902 165.546 79.0997C165.506 79.0052 165.403 78.9619 165.309 78.9304C165.218 78.8989 165.123 78.8634 165.032 78.832C164.87 78.7768 164.701 78.7178 164.531 78.7414C164.361 78.765 164.191 78.8949 164.191 79.0682" fill="#B1C7EF"/>
<path d="M159.698 74.0605C159.394 74.092 158.991 74.1195 158.873 73.8361C158.802 73.6707 158.881 73.4818 158.885 73.3007C158.893 73.0054 158.703 72.7456 158.565 72.4857C158.324 72.0251 158.241 71.4897 158.324 70.9779C158.344 70.848 158.379 70.7141 158.47 70.6197C158.529 70.5606 158.604 70.5212 158.676 70.4819C158.96 70.3323 159.244 70.1827 159.528 70.037C159.899 69.8441 160.274 69.6472 160.622 69.415C161.494 68.8323 162.209 68.0174 162.667 67.0765C162.825 66.9072 163.121 67.0647 163.227 67.2733C163.334 67.478 163.362 67.73 163.524 67.8953C163.776 68.1473 164.325 68.2024 164.282 68.5567C164.266 68.6945 164.147 68.7969 164.049 68.8992C163.709 69.2575 163.567 69.7929 163.689 70.2693C163.812 70.7456 164.187 71.1511 164.657 71.3047C164.226 71.344 163.674 71.5133 163.674 71.9424C163.674 72.2141 163.914 72.4975 163.764 72.7259C163.61 72.9621 163.196 72.8519 163.01 73.0644C162.864 73.2377 162.955 73.4975 162.987 73.7219C163.066 74.2849 162.627 74.8636 162.067 74.9502C161.83 74.9856 161.554 74.9227 161.435 74.714C161.372 74.6038 161.364 74.4739 161.313 74.3597C161.107 73.8991 160.796 74.1746 160.492 74.1707C160.278 74.1668 159.982 74.029 159.698 74.0605Z" fill="#E6E6E6"/>
<path d="M168.077 70.7614C168.128 70.7456 168.175 70.7259 168.227 70.7102C168.12 70.6393 167.974 70.6629 167.867 70.7377C167.761 70.8125 167.69 70.9188 167.603 71.0173C167.307 71.348 166.849 71.5291 166.407 71.4897C166.126 71.4661 165.85 71.3598 165.574 71.411C165.238 71.4739 164.982 71.7771 164.883 72.1038C164.832 72.2692 164.879 72.5212 165.053 72.5054C165.147 72.2101 165.416 71.9936 165.712 71.8991C166.008 71.8046 166.328 71.8204 166.636 71.8755C166.877 71.9188 167.117 71.9857 167.358 71.9542C167.599 71.9227 167.848 71.7574 167.875 71.5173C167.895 71.344 167.804 71.1551 167.879 70.9936C167.946 70.8559 168.128 70.7338 168.057 70.596C167.978 70.6118 168.156 70.7456 168.077 70.7614Z" fill="#E6E6E6"/>
<path d="M164.364 74.651C164.475 75.151 164.708 75.6707 164.526 76.147C164.727 76.2376 164.968 76.0683 165.035 75.8596C165.102 75.651 165.051 75.4226 165 75.21C164.948 74.9974 164.897 74.7691 164.972 74.5605C164.988 74.5132 165.019 74.462 165.071 74.4502C165.094 74.4463 165.122 74.4502 165.146 74.4581C165.418 74.5368 165.604 74.7927 165.691 75.0644C165.777 75.3321 165.781 75.6195 165.821 75.899C165.845 76.0722 165.892 76.2651 166.042 76.3596C166.283 76.521 166.626 76.3045 166.717 76.0289C166.808 75.7533 166.733 75.4541 166.697 75.1667C166.642 74.7691 166.614 74.2888 166.259 74.092C166.113 74.0132 165.912 73.9778 165.864 73.8164C165.809 73.6274 166.034 73.4778 166.224 73.4227C166.397 73.3715 166.575 73.3361 166.756 73.3125C166.97 73.2849 167.25 73.2259 167.27 73.0133C167.293 72.7889 167.009 72.6786 166.788 72.6432C166.524 72.5999 166.251 72.5526 165.983 72.5881C165.714 72.6235 165.446 72.7495 165.304 72.9778C165.272 73.0251 165.244 73.0841 165.193 73.1038C165.118 73.1353 165.035 73.0802 164.992 73.0133C164.948 72.9463 164.925 72.8676 164.877 72.8046C164.293 72.096 164.321 74.4581 164.364 74.651Z" fill="#E6E6E6"/>
<path d="M169.183 74.1549C168.887 74.0841 168.575 74.092 168.287 74.1746C168.235 74.1904 168.172 74.2179 168.168 74.2731C168.164 74.3321 168.231 74.3675 168.287 74.3793C168.567 74.4541 168.875 74.4227 169.131 74.2927C169.092 74.1786 168.942 74.1195 168.835 74.1746" fill="#B1C7EF"/>
<path d="M170.443 73.9975C170.297 73.9227 170.104 73.9424 169.977 74.0487C169.851 74.155 169.796 74.34 169.847 74.4975C170.143 74.5723 170.439 74.2258 170.72 74.34C170.905 74.4148 170.996 74.6668 171.197 74.6786C171.367 74.6864 171.486 74.4502 171.379 74.3203C171.288 74.2101 171.114 74.2101 171.004 74.1195C170.803 73.9542 170.929 73.6314 171.063 73.4109C170.838 73.3636 170.672 73.6235 170.641 73.8518C170.629 73.9502 170.625 74.0565 170.581 74.1471C170.534 74.2376 170.424 74.3046 170.333 74.2613" fill="#E6E6E6"/>
<path d="M169.192 72.6196C169.188 72.7023 169.188 72.7849 169.224 72.8597C169.26 72.9306 169.35 72.9857 169.425 72.9503C169.481 72.9267 169.512 72.8637 169.532 72.8085C169.607 72.6275 169.686 72.4149 169.599 72.2377C169.56 72.159 169.492 72.092 169.461 72.0094C169.374 71.7574 169.678 71.6235 169.871 71.6432C169.824 71.3243 169.556 71.5487 169.556 71.2062C169.556 71.1551 170.152 70.9267 169.654 70.844C169.011 70.7299 169.208 72.1983 169.192 72.6196Z" fill="#E6E6E6"/>
<path d="M171.876 72.2259C171.576 72.2495 171.248 72.2416 171.015 72.0527C170.794 72.2377 170.94 72.6196 171.185 72.7731C171.43 72.9267 171.734 72.9542 171.986 73.092C172.239 73.2298 172.428 73.5802 172.247 73.8006C172.448 73.8518 172.653 73.9069 172.855 73.9581C172.902 74.1471 172.685 74.2849 172.523 74.3912C172.357 74.4975 172.227 74.7652 172.397 74.8636C172.476 75.0329 172.728 75.0053 172.894 74.9148C173.06 74.8242 173.234 74.6983 173.411 74.7534C173.526 74.7888 173.605 74.8951 173.692 74.9778C174.051 75.3439 174.596 75.4305 175.058 75.6549C175.516 75.8793 175.934 76.4226 175.685 76.8714C175.591 77.0407 175.421 77.1509 175.295 77.2966C175.168 77.4422 175.081 77.6667 175.192 77.8241C175.595 77.8517 176.009 77.7218 176.325 77.4698C176.649 77.8163 177.036 78.143 177.501 78.2414C177.967 78.3438 178.524 78.1509 178.705 77.71C178.741 77.6233 178.765 77.5249 178.84 77.4659C178.942 77.3832 179.092 77.4108 179.223 77.4462C179.613 77.5564 179.996 77.6981 180.368 77.8714C180.439 77.9029 180.514 77.9422 180.545 78.0131C180.593 78.1155 180.533 78.2296 180.518 78.3438C180.458 78.7572 180.972 78.9934 181.382 79.0642C181.939 79.1627 182.503 79.2138 183.072 79.2178C183.092 78.9343 182.784 78.7414 182.507 78.6784C182.231 78.6154 181.919 78.6076 181.706 78.4186C181.457 78.1942 181.433 77.7887 181.173 77.58C180.976 77.4226 180.632 77.3202 180.683 77.0761C180.739 76.8124 181.201 76.8478 181.291 76.5958C181.347 76.4383 181.208 76.273 181.054 76.2139C180.901 76.1549 180.727 76.1667 180.561 76.1352C180.15 76.0565 179.815 75.6943 179.775 75.2809C179.76 75.1234 179.779 74.9581 179.716 74.8164C179.621 74.5998 179.369 74.5053 179.14 74.4305C177.932 74.0408 176.724 73.655 175.52 73.2652C175.346 73.2101 175.156 73.155 174.987 73.214C174.525 73.3755 174.556 74.2061 174.071 74.2928C173.822 74.34 173.597 74.1392 173.423 73.9542C173.249 73.7731 173.001 73.5133 172.981 73.2534C172.965 73.0723 173.151 72.9148 173.135 72.7534C173.056 72.1314 172.349 72.1905 171.876 72.2259Z" fill="#E6E6E6"/>
<path d="M181.264 76.021C181.295 76.0722 181.359 76.0958 181.418 76.1155C181.899 76.2533 182.428 76.1982 182.871 75.958C183.013 75.8832 183.155 75.7848 183.313 75.7691C183.415 75.7573 183.522 75.7809 183.629 75.7691C183.731 75.7573 183.846 75.6943 183.866 75.588C183.885 75.4817 183.81 75.3596 183.869 75.273C183.933 75.1825 184.087 75.2179 184.154 75.1313C184.233 75.0368 184.138 74.8951 184.051 74.8085C183.696 74.4581 183.348 74.0801 182.969 73.7613C182.934 74.2612 183.285 74.84 182.91 75.2691C182.693 75.5171 181.149 75.836 181.264 76.021Z" fill="#E6E6E6"/>
<path d="M186.214 77.5879C186.396 77.647 186.589 77.6745 186.771 77.7493C186.948 77.8202 187.122 77.9501 187.173 78.1351C187.173 78.1273 187.173 78.1194 187.169 78.1115C187.106 77.6194 186.605 77.3123 186.159 77.08C186.1 77.0486 186.04 77.0171 186.009 76.958C185.989 76.9147 185.393 77.3163 186.214 77.5879Z" fill="#E6E6E6"/>
<path d="M191.451 87.123C191.408 86.9183 191.333 86.7136 191.198 86.5561C191.064 86.3947 190.851 86.2884 190.646 86.316C190.468 86.7057 190.776 87.1506 191.131 87.3947C191.38 87.564 191.664 87.6742 191.948 87.7726C191.593 87.8317 191.51 87.3947 191.451 87.123Z" fill="#E6E6E6"/>
<path d="M192.618 83.5602C192.784 83.9617 192.902 84.379 192.973 84.8042C193.171 84.69 193.226 84.3908 193.084 84.2137C193.226 84.3397 193.226 84.5562 193.261 84.7412C193.348 85.2294 193.735 85.6546 194.217 85.7805C194.292 85.6349 194.229 85.4577 194.126 85.3317C194.023 85.2058 193.881 85.1192 193.763 85.0089C193.542 84.8003 193.407 84.5011 193.396 84.1979C193.384 83.9223 193.435 83.5759 193.194 83.442C193.151 83.5602 193.111 83.6783 193.068 83.7964C192.997 83.7885 192.953 83.7216 192.926 83.6586C192.76 83.2609 192.926 82.6901 192.551 82.4027C192.492 82.5799 192.381 82.761 192.184 82.7846C192.184 83.072 192.507 83.2885 192.618 83.5602Z" fill="#E6E6E6"/>
<path d="M187.792 77.7139C188.068 77.832 188.423 77.7887 188.633 78.0013C188.838 78.2139 188.794 78.5721 188.968 78.8083C189.051 78.9186 189.173 78.9934 189.264 79.0997C189.355 79.206 189.402 79.3752 189.312 79.4776C189.197 79.6115 188.964 79.5288 188.877 79.3792C188.791 79.2296 188.798 79.0445 188.779 78.8713C188.759 78.6981 188.684 78.5091 188.518 78.4501C188.36 78.395 188.151 78.4816 188.036 78.3556C188.001 78.3123 187.985 78.2572 187.965 78.206C187.804 77.7808 187.263 77.5722 187.168 77.143C187.381 77.3163 187.515 77.5958 187.792 77.7139Z" fill="#E6E6E6"/>
<path d="M171.629 77.0052C171.353 77.2415 171.1 77.5052 170.883 77.7966C171.049 77.8792 171.266 77.8359 171.392 77.6981C171.514 77.5603 171.53 77.3399 171.432 77.1824" fill="#B1C7EF"/>
<path d="M173.466 75.8517C173.627 75.9738 173.778 76.147 173.781 76.3517C173.785 76.5564 173.584 76.7651 173.391 76.6982C173.43 76.4068 173.466 76.1155 173.505 75.8242" fill="#B1C7EF"/>
<path d="M171.708 80.2807C171.566 79.9815 171.14 79.8555 170.855 80.0288C171.104 80.2335 171.128 80.6547 170.903 80.887C170.788 81.0051 170.63 81.072 170.5 81.1744C170.07 81.5051 170.05 82.2452 170.465 82.5995C170.263 82.7019 170.066 82.8082 169.864 82.9106C169.722 82.3869 169.32 81.9381 168.814 81.7413C168.123 82.1744 167.606 82.8791 167.405 83.6664C167.326 83.6822 167.243 83.694 167.164 83.7097C167.129 83.942 167.089 84.1743 167.054 84.4105C166.876 84.1743 166.805 83.8593 166.86 83.5719C166.442 83.6546 166.209 84.0955 166.094 84.505C165.98 84.9144 165.913 85.3672 165.609 85.6664C165.388 85.8868 165.076 85.9852 164.78 86.0758C164.322 86.2175 163.864 86.3553 163.406 86.497C163.027 86.6112 162.616 86.7529 162.415 87.0915C162.249 87.3632 162.142 87.8001 161.827 87.7647C161.692 87.749 161.59 87.6387 161.455 87.6072C161.187 87.5403 160.946 87.8356 160.934 88.1112C160.923 88.3867 161.053 88.6505 161.128 88.9182C161.199 89.1859 161.195 89.5166 160.974 89.6898C161.226 89.7056 161.491 89.804 161.641 90.0087C161.791 90.2134 161.791 90.5363 161.598 90.6977C161.404 90.863 161.037 90.7685 160.994 90.5166C161.55 92.0283 161.945 93.6031 162.166 95.1975C162.257 95.851 162.308 96.5518 161.992 97.1305C162.545 97.5439 163.347 97.5872 163.943 97.2368C164.274 97.04 164.539 96.7329 164.886 96.5636C165.49 96.2684 166.225 96.4376 166.872 96.2447C167.464 96.0676 167.942 95.5912 168.554 95.4849C169.012 95.4062 169.525 95.5361 169.924 95.3038C170.113 95.1936 170.251 95.0125 170.437 94.8905C170.642 94.7527 170.891 94.6975 171.136 94.6857C172.111 94.6306 173.11 95.2999 173.331 96.2487C173.386 96.4849 173.394 96.7368 173.489 96.9612C173.583 97.1856 173.797 97.3904 174.037 97.3667C174.097 96.6227 174.807 95.9928 175.553 96.0164C175.589 96.2565 175.415 96.477 175.234 96.6345C175.052 96.792 174.839 96.9376 174.744 97.162C174.649 97.3864 174.756 97.7132 174.997 97.7289C175.119 97.4967 175.289 97.2919 175.49 97.1266C175.869 97.4652 175.692 98.2092 175.198 98.3352C175.672 98.1974 176.339 98.1502 176.501 98.6147C176.544 98.7447 176.532 98.8903 176.544 99.0281C176.615 99.7486 177.369 100.17 178.029 100.465C178.163 100.524 178.309 100.587 178.451 100.563C178.7 100.52 178.834 100.256 178.98 100.052C179.126 99.843 179.422 99.6619 179.616 99.8312C179.782 99.9769 179.711 100.26 179.845 100.434C180.022 100.67 180.417 100.544 180.611 100.319C180.804 100.095 180.919 99.7958 181.171 99.6344C181.637 99.3391 182.486 99.5714 182.624 99.036C182.699 98.7447 182.454 98.4769 182.375 98.1896C182.249 97.7368 182.545 97.2762 182.881 96.9494C183.216 96.6227 183.623 96.3392 183.82 95.914C184.152 95.2054 183.804 94.3629 183.939 93.5913C184.073 92.8157 184.689 92.048 184.365 91.3315C184.239 91.052 183.982 90.8394 183.876 90.5481C183.773 90.2686 183.816 89.93 183.623 89.7017C183.5 89.556 183.311 89.4891 183.161 89.3788C182.652 89.0127 182.636 88.2804 182.442 87.686C182.087 86.6033 181.069 85.8947 180.362 84.9971C180.232 84.8317 180.109 84.6546 180.054 84.4499C179.991 84.2137 180.018 83.9617 179.999 83.7176C179.951 83.1231 179.592 82.5602 179.071 82.2688C178.956 82.2058 178.834 82.1507 178.751 82.0484C178.637 81.9027 178.645 81.7019 178.637 81.5169C178.613 80.8201 178.337 80.1351 177.871 79.6193C177.563 81.1468 177.251 82.6743 176.943 84.2018C176.765 84.3396 176.544 84.4223 176.319 84.442C176.228 84.0522 176.142 83.6625 176.051 83.2727C175.609 83.2964 175.147 83.3121 174.748 83.1192C174.353 82.9263 174.061 82.4381 174.239 82.0366C174.337 81.8161 174.555 81.572 174.412 81.3791C174.807 81.5287 175.151 80.887 174.862 80.5799C174.408 80.0957 173.907 80.7964 173.437 80.7728C172.857 80.7256 172.336 79.9106 171.708 80.2807Z" fill="#E6E6E6"/>
<path d="M180.096 104.091C180.092 104.205 180.088 104.343 180.187 104.398C180.226 104.422 180.274 104.426 180.317 104.43C180.649 104.453 181.071 104.41 181.182 104.095C181.273 103.843 181.099 103.552 181.194 103.304C181.225 103.221 181.28 103.15 181.332 103.079C181.454 102.894 181.525 102.666 181.466 102.453C181.407 102.241 181.19 102.067 180.973 102.111C180.854 102.134 180.755 102.213 180.637 102.245C180.262 102.343 179.188 101.544 179.279 102.441C179.306 102.721 179.697 102.941 179.839 103.174C180.013 103.441 180.108 103.764 180.096 104.091Z" fill="#E6E6E6"/>
<path d="M192.502 105.662C192.253 105.744 191.977 105.78 191.772 105.937C191.562 106.095 191.468 106.449 191.673 106.611C191.831 106.737 192.064 106.685 192.257 106.748C192.687 106.886 192.727 107.469 192.684 107.918C192.984 108.047 193.315 107.784 193.481 107.5C193.647 107.217 193.761 106.878 194.042 106.709C194.223 106.595 194.464 106.567 194.598 106.402C194.788 106.17 194.661 105.819 194.732 105.528C194.91 104.796 195.968 104.733 196.248 104.016C196.446 103.52 196.805 102.548 196.213 102.445C194.736 102.185 193.773 105.241 192.502 105.662Z" fill="#E6E6E6"/>
<path d="M197.13 102.953C197.13 102.993 197.13 103.032 197.15 103.067C197.201 103.15 197.331 103.115 197.406 103.056C197.836 102.701 197.576 101.949 197.908 101.5C198.018 101.351 198.18 101.256 198.326 101.142C198.788 100.776 199.076 100.193 199.08 99.6029C198.867 99.7171 198.646 99.8352 198.405 99.8706C198.164 99.906 197.896 99.8352 197.75 99.6423C197.572 99.4021 197.631 99.0478 197.465 98.8037C197.272 98.5203 196.853 98.4809 196.624 98.225C196.411 97.9927 196.407 97.6463 196.36 97.3353C196.313 97.0242 196.151 96.6699 195.839 96.6266C195.219 97.3353 196.435 98.221 196.593 98.8273C196.743 99.406 196.443 99.5675 196.214 100.056C195.973 100.563 195.811 100.961 196.293 101.355C196.601 101.607 196.857 101.221 197.126 101.689C197.28 101.953 197.134 102.654 197.13 102.953Z" fill="#E6E6E6"/>
<path d="M164.762 60.5688C164.727 60.6672 164.695 60.7696 164.695 60.8719C164.703 61.2302 165.118 61.4743 165.145 61.8286C165.157 61.9703 165.106 62.1121 165.106 62.2538C165.106 62.3955 165.193 62.5609 165.339 62.5609C165.461 62.5609 165.548 62.4467 165.635 62.3601C165.722 62.2735 165.888 62.2184 165.955 62.3207C165.986 62.364 165.982 62.427 165.978 62.4782C165.939 62.8601 165.836 63.2341 165.67 63.5845C165.876 63.6671 166.117 63.5333 166.231 63.3443C166.346 63.1553 166.365 62.9231 166.381 62.7026C166.389 62.5924 166.397 62.4782 166.353 62.3758C166.286 62.2223 166.12 62.1436 166.014 62.0176C165.813 61.7814 165.832 61.427 165.947 61.1397C166.061 60.8523 166.251 60.6003 166.365 60.3129C166.397 60.2381 166.421 60.1594 166.409 60.0767C166.397 59.994 166.346 59.9232 166.31 59.8484C166.219 59.6633 166.211 59.4507 166.172 59.246C165.82 57.4744 164.869 60.2578 164.762 60.5688Z" fill="#E6E6E6"/>
<path d="M168.162 63.3286C168.202 63.6593 168.063 64.0018 167.807 64.2144C167.748 64.2616 167.684 64.3049 167.649 64.3718C167.527 64.5962 167.811 64.8088 168.016 64.9624C168.656 65.4466 168.735 66.5095 168.17 67.0804C168.119 67.1355 168.06 67.1867 168.024 67.2536C167.992 67.3205 167.988 67.3953 167.985 67.4701C167.981 67.8048 168.04 68.1434 168.162 68.4544C167.831 68.6197 167.412 68.3481 167.286 67.9977C167.159 67.6473 167.23 67.2615 167.294 66.8954C167.317 66.7576 167.333 66.608 167.258 66.4938C167.132 66.3088 166.828 66.3481 166.67 66.5056C166.512 66.667 166.461 66.8954 166.397 67.1119C166.334 67.3284 166.243 67.5528 166.046 67.6631C165.896 66.915 166.512 66.1119 167.27 66.0529C167.436 66.0411 167.613 66.0568 167.763 65.982C167.913 65.9072 168 65.6867 167.878 65.5726C167.732 65.5765 167.677 65.3836 167.688 65.2419C167.7 65.1001 167.724 64.923 167.609 64.8364C167.491 64.7498 167.313 64.8403 167.234 64.9663C167.155 65.0923 167.132 65.2458 167.053 65.3718C166.934 65.5608 166.698 65.6671 166.476 65.6277C166.465 65.297 166.662 64.9663 166.958 64.8206C166.694 64.7261 166.421 64.5765 166.319 64.3167C166.216 64.0569 166.397 63.6907 166.674 63.7144C166.773 63.9703 166.871 64.2262 166.974 64.4821C167.191 64.6159 167.495 64.4821 167.621 64.2616C167.748 64.0411 167.736 63.7695 167.7 63.5175C167.981 63.6632 168.308 63.2656 168.19 62.9703C168.123 62.801 167.969 62.6829 167.811 62.6632C167.988 62.8325 168.135 63.0766 168.162 63.3286Z" fill="#E6E6E6"/>
<path d="M125.837 14.4838C126.031 14.346 125.884 14.0153 125.659 13.9405C125.434 13.8657 125.194 13.9405 124.957 13.9444C124.72 13.9523 124.436 13.8381 124.412 13.6058C124.404 13.535 124.424 13.468 124.447 13.4011C124.613 13.0114 125.075 12.8539 125.379 12.5586C125.853 12.098 125.892 11.3382 126.307 10.8264C126.879 10.1178 127.965 10.0863 128.699 9.54298C128.928 9.37369 129.122 9.15323 129.363 8.99575C129.982 8.58632 130.788 8.65325 131.534 8.63356C132.509 8.606 133.48 8.40129 134.38 8.03122C134.191 8.93276 133.109 9.27134 132.213 9.49574C131.609 9.64927 131.013 9.8225 130.425 10.0193C129.674 10.2713 128.924 10.5705 128.312 11.0665C127.701 11.5626 127.235 12.2949 127.223 13.0822C127.219 13.4956 127.712 14.3893 127.44 14.7121C127.112 15.09 126.188 14.6412 125.837 14.4838Z" fill="#E6E6E6"/>
<path d="M148.64 3.96051C148.415 4.03138 148.19 4.10618 147.961 4.17704C148.17 4.49593 148.6 4.6534 148.964 4.54317C149.347 4.42506 149.718 4.05106 150.077 4.22822C150.172 4.40144 149.959 4.57073 149.785 4.66521C149.611 4.7597 149.43 4.98016 149.572 5.11795C149.607 5.14945 149.651 5.16913 149.698 5.18094C150.488 5.4329 151.384 5.22031 152.138 5.55888C152.375 5.66518 152.604 5.83053 152.864 5.81872C153.125 5.8069 153.37 5.48014 153.188 5.29117C153.07 5.16913 152.833 5.16519 152.785 5.00378C152.698 4.70458 153.405 4.58254 153.267 4.30696C152.758 4.3227 152.244 4.33845 151.735 4.3542C151.561 4.35814 151.348 4.34239 151.273 4.18491C151.23 4.0983 151.246 3.98413 151.186 3.90539C151.115 3.81091 150.973 3.81091 150.851 3.82272C150.582 3.85028 150.31 3.87784 150.041 3.90539C150.634 3.84634 151.407 3.53139 152 3.38966C151.218 2.50387 148.948 2.61016 148.64 3.96051Z" fill="#E6E6E6"/>
<path d="M155.774 5.25573C155.762 4.92504 155.304 4.77937 155.004 4.9211C154.704 5.06283 154.523 5.36597 154.321 5.62974C154.077 5.94469 153.78 6.21239 153.488 6.4801C154.262 6.38168 155.036 6.27932 155.81 6.1809C156.11 6.14153 156.469 6.05492 156.556 5.77146C156.256 5.56675 155.904 5.43683 155.545 5.39746" fill="#E6E6E6"/>
<path d="M176.062 9.93274C176.161 9.87369 176.252 9.79495 176.362 9.76346C176.805 9.63748 177.18 10.2831 177.626 10.1808C177.815 10.1375 177.949 9.96424 178.131 9.89731C178.553 9.7359 179.027 10.1768 179.43 9.90518C179.955 9.55087 179.73 9.24379 179.315 9.08238C178.936 8.93671 178.348 9.09025 177.922 8.96821C177.606 8.87766 177.334 8.70444 177.033 8.57452C176.331 8.27532 175.213 7.7714 174.736 8.67688C174.305 9.49181 175.261 10.413 176.062 9.93274Z" fill="#E6E6E6"/>
<path d="M182.311 9.71227C181.999 9.45637 181.636 9.26346 181.249 9.14536C181.194 9.12961 181.138 9.11386 181.079 9.11386C180.874 9.12173 180.744 9.37763 180.811 9.57448C180.878 9.76738 181.079 9.89336 181.281 9.92879C181.482 9.96816 181.691 9.9406 181.896 9.92486C182.331 9.89336 182.765 9.92879 183.187 10.0272C183.266 9.75557 183.002 9.48393 182.722 9.4485C182.441 9.41306 182.169 9.53511 181.912 9.65321" fill="#E6E6E6"/>
<path d="M178.335 11.2792C178.094 11.165 177.837 11.0863 177.577 11.0429C177.439 11.0193 177.233 11.0784 177.265 11.2162C177.281 11.2752 177.336 11.3107 177.391 11.3382C177.751 11.5351 178.134 11.6847 178.528 11.7949C178.71 11.8461 178.963 11.85 179.026 11.6689C179.069 11.5429 178.978 11.413 178.876 11.3303C178.627 11.1256 178.272 11.0548 177.964 11.1453" fill="#E6E6E6"/>
<path d="M101.439 5.62975C101.774 5.82659 102.185 5.86596 102.532 6.04312C102.939 6.25177 103.239 6.65334 103.318 7.10214C103.365 7.37772 103.342 7.68086 103.496 7.91313C103.717 8.25171 104.25 8.27533 104.573 8.03124C104.897 7.78715 105.031 7.35804 105.031 6.95254C105.031 6.63365 104.976 6.26358 105.201 6.04312C105.3 5.94863 105.434 5.90139 105.564 5.85809C105.817 5.77148 106.086 5.69274 106.35 5.73604C106.615 5.77935 106.867 5.99588 106.863 6.26358C106.855 6.58641 106.496 6.88561 106.638 7.173C107.147 7.16513 107.661 7.15725 108.17 7.15332C108.348 6.97616 108.221 6.65333 108.012 6.51554C107.803 6.37775 107.542 6.34626 107.313 6.2439C107.084 6.14154 106.867 5.90927 106.93 5.66912C107.025 5.30299 107.546 5.35023 107.925 5.36204C108.936 5.39747 109.868 4.44869 109.808 3.44478C108.912 3.30699 108.47 4.28727 107.724 4.54317C107.108 4.75576 106.772 4.39751 106.208 4.44869C105.608 4.5038 105.466 4.88568 105.004 4.99591C104.285 5.16913 103.764 4.81088 103.018 4.71246C102.442 4.63372 99.915 4.73608 101.439 5.62975Z" fill="#E6E6E6"/>
<path d="M92.3969 1.36216C91.8284 2.34638 90.8612 3.09832 89.7637 3.40539C89.2465 3.55106 88.6701 3.61799 88.2793 3.98805C88.0385 4.21639 87.9003 4.53134 87.77 4.83842C87.5134 5.44076 87.2528 6.05885 87.241 6.71237C87.2252 7.36589 87.5173 8.07059 88.1056 8.35404C87.2844 8.75954 87.2015 10.1138 87.9713 10.6138C87.6595 11.3933 86.3448 10.9563 85.725 11.5272C85.2433 11.9681 85.4289 12.7633 85.721 13.3499C86.0132 13.9365 86.3803 14.5901 86.1435 15.2003C85.2631 14.8578 84.3827 14.5153 83.4984 14.1727C83.1668 14.8893 84.1222 15.779 84.817 15.3971C84.1498 16.5939 82.3732 16.3577 81.1218 16.9246C79.7874 17.527 79.0689 19.082 77.7226 19.6529C77.0594 19.9324 76.3053 19.9481 75.6421 20.2316C74.9788 20.519 74.4103 21.2788 74.7222 21.9284C74.7854 22.0583 74.8801 22.1843 74.8604 22.326C74.8446 22.4756 74.7104 22.578 74.5959 22.6725C73.5142 23.5937 73.5023 25.2275 73.5773 26.6448C73.1905 26.9322 72.6456 26.5424 72.4325 26.1093C72.2193 25.6763 72.1087 25.1487 71.7021 24.8928C71.2955 24.637 70.7507 24.759 70.3085 24.5779C69.9019 24.4126 69.6452 24.0189 69.4084 23.6527C68.9702 22.9598 68.528 22.267 68.0898 21.5741C67.7187 20.9914 67.3397 20.3851 67.237 19.704C67.1344 19.023 67.3792 18.2356 67.995 17.9206C68.4293 17.6962 69.132 17.3577 68.8201 16.9837C68.7491 16.901 68.6425 16.8616 68.5398 16.8223C67.7424 16.5388 66.9488 16.2593 66.1514 15.9758C66.4633 15.0192 67.5726 14.4011 68.5517 14.6412C68.9109 14.0664 68.0779 13.4365 67.3989 13.4484C66.7199 13.4602 65.9619 13.7043 65.4092 13.3106C65.9224 12.598 65.8948 11.5862 65.4802 10.8107C65.0657 10.0351 64.3235 9.47605 63.5181 9.12174C63.1589 8.96426 62.7759 8.84222 62.3851 8.83434C61.7653 8.82647 61.1691 9.10992 60.5493 9.11386C59.6729 9.1178 58.8715 8.55089 58.3661 7.83438C57.8608 7.11787 57.6042 6.25963 57.3555 5.42107C58.0621 5.81082 58.9938 5.83445 59.6531 5.36596C60.3124 4.89747 60.5809 3.91325 60.1506 3.22824C61.0428 3.02745 61.939 2.83061 62.8312 2.62983C63.0562 2.57865 63.2891 2.52747 63.4826 2.40149C63.7313 2.24402 63.9011 1.98418 64.1261 1.79521C64.5604 1.43302 65.1604 1.35428 65.725 1.29129C67.2331 1.12595 68.7412 0.95666 70.2493 0.791311C70.5375 0.759816 70.8375 0.728321 71.1178 0.803121C71.86 0.999965 72.5312 1.89757 73.1983 1.5157C73.226 1.22437 73.1391 0.925165 72.9575 0.692889C73.8063 0.303139 74.7854 0.421245 75.721 0.436992C77.6042 0.46455 79.4636 0.0314943 81.3468 0.00393623C83.1944 -0.0236219 85.042 0.346444 86.7357 1.08264C86.1711 1.47239 85.5236 1.74797 84.8486 1.88182C85.2907 1.85427 85.7368 1.92907 86.1435 2.10229C85.8197 1.9645 84.3551 3.118 84.1222 3.32666C84.9196 3.94475 86.6725 2.66526 87.4976 2.27551C89.0649 1.52751 90.6559 1.10626 92.3969 1.36216Z" fill="#E6E6E6"/>
<path d="M89.573 21.4166C89.1506 21.5898 88.7558 21.826 88.4084 22.1213C88.0847 22.3929 87.7254 22.7394 87.3109 22.6528C86.8885 22.5701 86.6911 22.1016 86.5055 21.7158C86.32 21.33 85.9449 20.9127 85.5383 21.0505C85.7594 20.7867 85.9805 20.519 86.2016 20.2552C85.6765 20.1804 85.1475 20.1017 84.6224 20.0269C84.4921 20.0072 84.3539 19.9836 84.271 19.8852C84.0736 19.6568 84.3697 19.3143 84.6579 19.2277C85.3133 19.0348 86.0357 19.3301 86.5253 19.7985C86.7306 19.9954 86.9911 20.2474 87.2556 20.1371C87.4293 20.0623 87.5044 19.8615 87.6188 19.7159C87.8991 19.3616 88.4203 19.3143 88.8703 19.3655C89.6323 19.4521 91.1483 18.897 91.4443 19.8064C91.7799 20.8261 90.185 21.1686 89.573 21.4166Z" fill="#E6E6E6"/>
<path d="M24.0567 14.4326C22.067 15.2593 20.0022 16.0821 17.8506 16.0546C16.915 16.0428 15.9912 15.8695 15.0753 15.7003C13.0776 15.3263 11.0603 14.9483 9.20475 14.1294C8.70732 13.909 8.20989 13.657 7.66903 13.6255C7.065 13.5901 6.48071 13.8342 5.9359 14.1019C4.28963 14.9168 2.78154 16.0073 1.49453 17.3183C2.83286 17.527 4.07645 18.2828 4.87787 19.3734C4.24621 19.6804 3.39346 19.397 3.06974 18.775C2.22094 18.5309 1.23002 19.2001 1.14712 20.0781C1.06421 20.956 1.90511 21.7985 2.78549 21.7197C3.09737 21.3064 3.57901 21.0268 4.09619 20.9599C4.33701 21.3654 4.58178 21.7748 4.8226 22.1803C4.40018 22.6882 3.65797 22.7433 3.01052 22.889C2.36307 23.0346 1.63665 23.4874 1.71166 24.1448C1.83405 25.2393 3.94222 25.3298 3.85142 26.4282C3.883 26.0542 8.23752 25.7668 6.12935 28.2589C5.79773 28.6486 5.30424 28.9321 4.79496 28.8888C4.93709 29.2903 4.9055 29.7864 4.58967 30.0698C4.27384 30.3533 3.65402 30.2509 3.55533 29.8376C3.21581 30.558 2.28806 30.7273 1.49453 30.806C1.39978 31.1249 1.30503 31.4399 1.21423 31.7588C1.15106 31.3611 0.625994 31.1289 0.282528 31.3375C-0.0609381 31.5462 -0.0925212 32.1131 0.219362 32.365C0.507558 32.6013 0.93393 32.5422 1.30108 32.4753C1.43926 32.4477 1.59717 32.4083 1.65639 32.2824C1.69192 32.2036 1.68008 32.1131 1.68403 32.0304C1.69587 31.6131 2.06303 31.2824 2.45387 31.1328C2.84471 30.9832 3.27503 30.9674 3.68166 30.873C4.35675 30.7155 4.96472 30.3494 5.50164 29.9163C6.08987 29.4439 6.61494 28.8888 7.28213 28.5345C7.53875 28.4006 7.81115 28.2982 8.05592 28.1447C9.8601 27.0266 8.71127 25.0936 11.38 24.7629C11.4195 25.133 11.1629 25.5109 10.8076 25.6172C11.6643 26.2471 12.5999 24.263 13.6027 24.6173C13.8869 24.7157 14.0686 24.9873 14.3094 25.1606C14.7594 25.4834 15.3635 25.4637 15.9162 25.5109C18.123 25.6999 20.1325 27.3298 20.7681 29.4439C21.7314 29.1604 22.5368 30.1879 23.0145 31.0698C23.808 32.5265 24.6015 33.9792 25.3911 35.4358C25.8925 36.361 26.4018 37.294 26.6623 38.3137C27.0374 39.7703 26.8873 41.3175 27.2348 42.782C27.5822 44.2465 28.7152 45.7347 30.2194 45.6914C30.4641 47.9826 31.1353 50.2306 32.1933 52.2777C31.6761 52.7974 32.5052 53.573 33.2119 53.7777C33.9185 53.9824 34.8463 54.5021 34.5383 55.1674C35.3714 54.2462 34.3094 52.8525 33.2987 52.1321C32.2881 51.4116 31.0997 50.2188 31.7314 49.1479C32.0749 48.8015 32.6828 49.207 32.8447 49.6676C33.0066 50.1282 32.9908 50.6754 33.3185 51.0416C33.6027 51.3605 34.0686 51.4431 34.4357 51.6597C35.774 52.451 35.4937 54.7068 36.7886 55.565C37.2624 55.88 37.8862 55.9508 38.2928 56.3445C38.5889 56.628 38.7231 57.0296 38.9166 57.3878C39.5956 58.6555 40.9655 59.3759 42.2565 60.0176C42.6315 60.2066 43.0105 60.3916 43.3856 60.5806C45.5411 61.6554 47.6967 62.7341 49.8522 63.8089C50.0575 63.9112 50.2983 64.0175 50.5155 63.9309C51.3998 63.5805 49.5916 62.0097 50.3457 61.427C49.2877 60.9192 48.2296 60.4074 47.1716 59.8995C47.8309 59.3129 47.9177 58.1909 47.3571 57.5059C47.748 57.4154 48.0717 57.0847 48.1546 56.6949C47.6888 56.2107 46.836 56.6122 46.4728 57.1752C46.1096 57.7421 45.9635 58.4508 45.4779 58.9114C44.3725 59.9546 42.4183 58.8484 41.992 57.3917C41.5656 55.9351 42.0551 54.3918 42.217 52.8801C42.2841 52.2699 42.3354 51.577 42.8171 51.199C43.9225 50.3329 45.553 52.1557 46.84 51.5888C47.3335 51.3723 47.6217 50.8487 48.0836 50.577C48.881 50.1046 49.9667 50.5416 50.5233 51.2857C51.0761 52.0297 51.23 52.9824 51.3721 53.8997C51.6327 54.3289 52.3591 53.8564 52.3196 53.3564C52.2802 52.8565 51.8656 52.4825 51.5932 52.0612C50.8984 50.9865 51.2142 49.3881 52.2644 48.6558C53.2 48.0062 54.7357 47.7503 54.7989 46.6165C54.8384 45.8843 54.1396 45.2819 54.112 44.5497C54.0883 43.904 54.5778 43.3647 55.0358 42.908C56.3307 41.6128 57.6217 40.3175 58.9166 39.0223C59.2205 38.7192 59.5877 38.3924 60.0141 38.4396C60.4404 38.4869 60.6813 39.1916 60.2746 39.3333C61.7985 39.3924 63.8435 39.0262 63.9659 37.5066C63.35 38.0459 62.6197 38.4514 61.838 38.6916C61.7551 37.9711 61.9683 37.2192 62.4183 36.6444C61.8498 35.6681 60.4918 35.4004 59.41 35.735C58.3283 36.0696 57.4637 36.8649 56.6386 37.6365C57.8822 36.1759 59.5403 34.9516 61.4511 34.7311C62.1696 34.6484 62.9395 34.6957 63.5632 34.3335C64.4318 33.8296 65.2016 32.554 66.078 33.0501C65.4385 34.1681 64.7989 35.2901 64.1594 36.4082C64.8502 36.357 65.5411 36.3058 66.228 36.2547C66.5083 36.731 66.6465 37.2901 66.6149 37.8452C67.4598 37.7861 68.6205 37.231 68.2454 36.4751C68.052 36.0893 67.5545 35.9948 67.2229 35.7232C66.3109 34.9752 67.0216 33.4437 66.5636 32.3572C66.3346 31.8139 65.8333 31.4438 65.3792 31.0698C63.4369 29.4832 61.917 27.3888 61.005 25.0582C60.7839 25.6133 60.5391 26.196 60.0575 26.5503C59.5759 26.9046 58.7863 26.9125 58.4704 26.4046C58.2967 26.1251 58.3086 25.7747 58.2178 25.4637C58.0125 24.7511 57.3295 24.2984 56.6978 23.9126C55.928 23.4401 55.0239 22.952 54.1712 23.2472C53.3185 23.5425 53.1211 25.07 54.0133 25.2117C53.1842 25.2432 53.2119 26.5267 53.6856 27.2077C54.1594 27.8888 54.8226 28.7352 54.3686 29.4281C53.9659 30.0423 52.9473 29.9832 52.5407 30.5974C52.1499 31.1879 52.5762 31.9517 52.8723 32.5934C53.1684 33.2351 53.1605 34.2469 52.4657 34.3847C51.8696 34.5028 51.4393 33.8138 51.3287 33.2193C51.155 32.2824 51.2774 31.2706 50.8392 30.4242C50.401 29.5777 48.9955 29.1801 48.5534 30.0226C48.3125 29.1644 47.6138 28.4439 46.7571 28.1801C46.0622 27.9636 45.2884 28.0305 44.6292 27.7235C43.6422 27.2629 43.2 26.133 42.8487 25.1054C44.1357 24.3692 45.5095 23.5425 46.0859 22.1803C46.2399 21.8142 46.3425 21.4008 46.6347 21.1292C46.8992 20.8851 47.2703 20.7985 47.5624 20.5899C47.8546 20.3812 48.0401 19.9206 47.7796 19.6765C48.1586 19.4442 48.6205 19.3576 49.0587 19.4285C49.8088 20.4402 47.5111 22.1646 48.5928 22.8142C49.1732 23.1646 49.8048 22.4441 50.1049 21.8378C50.5747 22.0268 51.0445 22.2158 51.5182 22.4047C52.1262 21.9126 51.4116 20.9717 50.7168 20.6174C50.022 20.2592 49.1416 19.6174 49.489 18.9206C50.1128 18.9088 50.7326 18.897 51.3563 18.8852C51.3958 18.2907 51.001 17.6962 50.4404 17.5033C50.7602 17.0112 51.08 16.5191 51.3998 16.027C51.1076 15.7081 50.6378 15.5625 50.2154 15.6688C51.4748 15.4837 52.7065 15.0979 53.8475 14.5349C54.7792 15.5979 55.6595 16.7081 56.4768 17.8616C56.607 18.0466 56.7452 18.2513 56.7373 18.4757C56.7255 18.9718 56.1254 19.1805 55.6951 19.4245C55.2608 19.6647 55.0002 20.4324 55.4819 20.5544C55.4148 20.9205 54.866 20.9166 54.5541 20.7119C54.2423 20.5072 53.958 20.1804 53.5869 20.204C52.8842 20.2434 52.9987 21.4835 53.6738 21.6922C54.3489 21.9008 55.0358 21.4678 55.6082 21.0544C56.9229 22.2394 58.4941 23.1409 60.1799 23.6842C59.5008 23.5425 59.0034 22.8063 59.1297 22.1252C59.9193 22.3536 60.6734 22.7079 61.3485 23.1764C61.9209 22.4795 61.1866 21.4678 60.4365 20.9717C59.6864 20.4717 58.7429 19.8537 58.8613 18.96C59.8483 18.9364 60.8273 19.4954 61.3011 20.3576C61.6761 19.8261 62.0472 19.2986 62.4223 18.7671C61.9999 17.3734 59.3034 17.7986 59.0192 16.3695C58.9639 16.0939 59.0192 15.779 58.8455 15.5546C58.577 15.2081 58.0362 15.3774 57.598 15.3656C56.0662 15.3184 55.1345 12.7555 53.7211 13.346C54.3133 12.2397 52.6315 10.8422 51.6485 11.6217C52.1894 11.8224 52.7776 12.102 52.975 12.6413C53.1724 13.1807 52.596 13.9208 52.0946 13.6373C51.5853 13.3539 51.8301 12.5508 51.5498 12.039C51.2103 11.4169 50.1799 11.5429 49.7693 12.1177C49.3548 12.6925 49.4061 13.4759 49.5719 14.1649C49.2324 14.157 48.8889 14.1491 48.5494 14.1413C48.4744 13.1767 48.6639 12.1964 49.0863 11.3264C48.6876 10.7319 47.7756 11.3028 47.3374 11.8697C46.8755 12.4641 46.3978 13.0901 46.2517 13.8302C46.1057 14.5704 46.4096 15.4562 47.1163 15.7199C47.5703 15.8892 48.0914 15.7829 48.5455 15.9601C49.5759 16.3656 49.1692 18.2828 48.0638 18.2395C47.7203 17.6805 47.523 17.0309 47.4874 16.3774C46.9545 16.5349 46.457 16.8105 46.0425 17.1805C45.5016 15.8499 44.7476 14.6019 43.8198 13.4995C44.0409 13.0744 44.262 12.6492 44.4831 12.224C45.3714 12.6098 46.5083 11.661 46.2873 10.724C45.549 10.5193 44.7752 10.3107 44.0251 10.48C43.279 10.6492 42.5841 11.3303 42.6907 12.0862C42.7539 12.5389 43.0776 12.9169 43.1961 13.3618C43.3145 13.8027 43.05 14.4247 42.596 14.3499C42.3591 15.4247 44.6449 15.4522 44.7476 16.5506C44.8186 17.3222 43.7725 17.6214 42.9987 17.6136C43.2237 18.3537 43.1882 19.1726 42.9 19.893C42.3196 18.8064 42.6355 17.3183 43.6145 16.5624C43.0303 15.6648 41.6722 15.3814 40.776 15.968C41.1116 16.4798 41.6445 16.8616 42.2367 17.0152C41.9248 17.3774 41.609 17.7396 41.2971 18.1017C40.6181 17.6136 39.6864 17.9955 38.8534 18.0466C38.0164 18.0939 37.0018 17.1766 37.594 16.5821C37.0926 16.279 36.4096 16.1766 35.932 16.5152C35.4543 16.8577 35.4148 17.7238 35.9477 17.9679C34.8384 18.2513 32.9987 16.216 32.1973 17.775C31.6959 16.1884 30.8866 15.716 29.2956 15.6333C28.2375 15.5782 25.1068 14.7987 24.566 15.6845C24.4791 15.5585 24.037 14.4405 24.0567 14.4326Z" fill="#E6E6E6"/>
<path d="M26.9943 10.2713C26.3942 10.3343 26.0586 11.0075 25.9797 11.6059C25.9047 12.2043 25.96 12.846 25.6639 13.3736C25.5928 13.5035 25.498 13.6255 25.4744 13.7751C25.4072 14.1964 25.956 14.4641 26.3745 14.3972C27.6023 14.2003 28.3761 12.5271 29.5999 12.7358C29.6118 13.0626 29.6236 13.3932 29.6354 13.72C30.4448 13.7279 31.2501 13.6098 32.0239 13.3736C32.2608 13.5271 32.1266 13.9247 31.8778 14.0468C31.6291 14.1688 31.3291 14.1294 31.0488 14.1531C30.7685 14.1806 30.4526 14.3302 30.4211 14.6058C30.9619 14.4483 31.5225 14.2909 32.0752 14.3972C32.6279 14.5034 33.153 14.9601 33.1372 15.5192C32.3555 15.4837 31.5699 15.5113 30.7922 15.6058C31.2185 16.1136 31.9963 16.0546 32.6556 16.1254C33.3149 16.1963 34.1005 16.7238 33.8676 17.3459C34.7637 16.405 36.256 16.09 37.4562 16.5861C37.7562 16.712 38.0405 16.8813 38.3603 16.9443C38.68 17.0073 39.0551 16.9364 39.2328 16.6648C39.4104 16.3931 39.2328 15.9325 38.909 15.9443C39.3314 15.8853 39.6986 15.5507 39.7973 15.1412C39.0748 15.3774 38.2024 14.9759 37.9102 14.2751C37.6457 13.6413 37.8036 12.8224 37.3259 12.3224C37.7405 12.4484 38.151 11.9563 38.0523 11.535C37.9536 11.1138 37.4996 10.854 37.0654 10.8422C36.7811 10.8343 36.4771 10.9288 36.3074 11.1571C36.1376 11.3854 36.1692 11.7634 36.4179 11.9051C36.0863 11.7437 35.7507 11.5823 35.4191 11.4209C35.2849 12.2358 36.8917 12.72 36.5127 13.4562C36.2718 13.9247 35.4546 13.6295 35.3599 13.1137C35.2967 12.7752 35.3757 12.3224 35.0638 12.1689C34.4677 11.8815 34.0334 13.3381 33.4649 13.0035C33.5004 12.6767 33.5359 12.35 33.5715 12.0232C32.8372 11.9642 32.0831 12.2279 31.5462 12.7319C31.6133 12.4169 31.6804 12.098 31.7476 11.7831C30.9501 11.3421 30.1605 12.9051 29.3038 12.6059C30.1329 12.8893 31.9844 11.2791 30.5277 10.5981C30.1802 10.4327 29.4499 10.6886 29.063 10.6611C28.3879 10.6138 27.6773 10.1965 26.9943 10.2713Z" fill="#E6E6E6"/>
<path d="M30.6119 6.89347C30.0473 6.61002 29.3604 6.9171 28.8787 7.32653C28.3971 7.73597 28.0023 8.26351 27.4299 8.52728C27.1575 8.65326 26.8377 8.73199 26.6719 8.97608C27.6233 8.96427 28.5708 8.89734 29.5144 8.78317C29.463 9.10206 29.3012 9.4052 29.0643 9.62567C29.5065 9.78708 29.8736 9.23198 29.9368 8.76743C29.9565 8.62176 29.9723 8.46035 30.0868 8.3698C30.1815 8.29894 30.3079 8.29894 30.4224 8.27925C30.8211 8.21626 31.1764 7.83832 31.1251 7.43676C31.0777 7.0352 30.5487 6.75175 30.221 6.9919" fill="#E6E6E6"/>
<path d="M33.5775 9.53118C33.6959 9.46819 33.7591 9.32253 33.7236 9.19655C33.1314 9.21623 32.5708 8.72806 32.5076 8.14147C32.172 7.92888 31.6588 8.09422 31.5127 8.46429C31.3667 8.83436 31.6312 9.30678 32.022 9.37764C31.4496 9.62173 30.8771 9.86582 30.3047 10.1099C31.3983 10.6965 32.6971 9.41701 33.9091 9.67291C33.9091 9.81857 33.9091 9.96424 33.9091 10.1138C33.384 10.1217 32.8669 10.3619 32.5274 10.7595C33.4314 10.8382 34.3631 10.6138 35.129 10.1296C35.3461 9.9918 35.5593 9.83038 35.8159 9.79495C36.041 9.76346 36.2621 9.83432 36.4871 9.86582C37.0161 9.94062 37.6872 9.64142 37.6675 9.10994C37.3122 8.99183 36.9292 8.94459 36.5542 8.97608C36.4397 8.28319 35.5751 7.83833 34.9395 8.14147C34.9514 8.61783 35.1724 9.08632 35.5356 9.39339C35.1764 9.70834 34.6158 9.76346 34.2013 9.52725C34.0039 9.41701 33.8223 9.23985 33.5972 9.23985C33.3525 9.23985 33.0366 9.41308 32.9142 9.20442" fill="#E6E6E6"/>
<path d="M34.262 6.08248C33.3698 5.97618 32.4499 6.12972 31.6406 6.51553C32.0788 6.71238 32.5131 6.90922 32.9513 7.10607C33.05 7.14937 33.1527 7.19661 33.2632 7.19661C33.358 7.19661 33.4527 7.15725 33.5396 7.11788C33.962 6.93678 34.3805 6.75568 34.8029 6.57459C34.7318 6.46829 34.6568 6.362 34.5857 6.2557C34.7752 6.38168 35.0555 6.19665 35.0713 5.97225C35.0832 5.74784 34.8937 5.54706 34.6765 5.48014C34.4594 5.41321 34.2265 5.44864 34.0054 5.50376C33.7488 5.56281 33.4961 5.64549 33.2514 5.74785C33.3777 6.01555 33.6343 6.22027 33.9225 6.29113C33.9265 6.39743 33.9304 6.50372 33.9383 6.61002" fill="#E6E6E6"/>
<path d="M40.492 6.21633C40.2986 6.22421 40.1841 5.99587 40.1722 5.80296C40.1643 5.61006 40.2038 5.4014 40.1091 5.23212C39.8722 4.81874 39.2366 5.12582 38.7668 5.04708C38.4865 5.00378 38.2575 4.80693 37.989 4.70851C37.7206 4.61009 37.3455 4.66521 37.2705 4.93685C37.1837 5.23999 37.5587 5.48801 37.8746 5.49195C38.1904 5.49982 38.5181 5.38565 38.822 5.48408C38.8773 5.50376 38.9326 5.53132 38.9721 5.57856C39.1971 5.87776 38.3917 6.09429 38.4667 6.46042C38.5023 6.64152 38.7273 6.69663 38.9129 6.71632C39.1853 6.74387 39.4537 6.77537 39.7261 6.80293C40.0064 6.83442 40.3222 6.85411 40.5473 6.68482C40.7723 6.51554 40.7802 6.07461 40.5039 6.00768" fill="#E6E6E6"/>
<path d="M41.9304 9.07055C42.0883 8.88552 41.9936 8.57844 41.7922 8.43671C41.5948 8.29499 41.3343 8.27924 41.0934 8.2753C40.3828 8.27137 39.6722 8.36191 38.9853 8.54695C38.7721 8.60206 38.551 8.66899 38.3378 8.62568C38.1246 8.57844 37.9233 8.37372 37.9707 8.16113C37.6785 8.49183 38.0299 9.03906 38.4563 9.15323C38.8826 9.26739 39.3366 9.13748 39.7788 9.1611C40.221 9.18472 40.7263 9.48786 40.6789 9.92485C40.6671 10.0311 40.6276 10.1414 40.6671 10.2359C40.7184 10.35 40.8645 10.3855 40.9908 10.3776C41.579 10.35 42.0291 9.66108 41.8159 9.11386C41.6738 9.13748 41.5238 9.0548 41.4645 8.92489C41.7212 8.82253 41.9225 8.59025 41.9857 8.32254C41.508 8.14145 40.9474 8.18475 40.5013 8.43671" fill="#E6E6E6"/>
<path d="M41.6819 11.4957C41.9267 11.3185 41.7648 10.8815 41.4766 10.7988C41.1884 10.7122 40.8805 10.8658 40.6436 11.0508C40.6278 11.2988 40.6121 11.5468 40.5963 11.7949C40.3081 11.7358 40.0001 11.7949 39.7554 11.9563C40.1778 12.0705 40.5252 12.4287 40.6239 12.8539C40.2212 13.1295 39.5817 12.9366 39.4001 12.4838C39.3171 12.2752 39.2856 11.9917 39.0684 11.9208C38.7644 11.8224 38.5828 12.3067 38.725 12.5941C39.0961 13.3539 40.2331 13.3066 40.8687 13.8696C41.0976 14.0743 41.4411 14.3617 41.6346 14.1255C41.7885 13.9365 41.5872 13.6728 41.4016 13.5153C41.6267 13.5428 41.8635 13.5625 42.0688 13.4641C42.2741 13.3657 42.4123 13.1058 42.3017 12.909C42.2425 12.8066 42.1359 12.7437 42.0451 12.6728C41.7096 12.4011 41.5872 11.8972 41.7609 11.5075C41.6385 11.4563 41.5201 11.4051 41.3977 11.3539" fill="#E6E6E6"/>
<path d="M52.8043 9.47607C52.0384 9.01545 51.083 8.87372 50.2145 9.09025C49.5868 9.24773 48.9985 9.58236 48.355 9.62567C47.4115 9.69259 46.5074 9.10206 45.9942 8.31075C46.7088 7.82258 47.755 8.77924 48.509 8.35406C48.7261 8.23201 48.8762 8.00761 49.1051 7.90525C49.3381 7.80289 49.6065 7.8462 49.8592 7.88951C51.0672 8.10603 52.2713 8.31863 53.4794 8.53515C53.6215 8.01942 53.1794 7.43283 52.6464 7.42102C53.2781 7.16906 53.9097 6.91316 54.5414 6.6612C54.8612 6.53128 55.2007 6.38562 55.3744 6.09035C55.5481 5.79509 55.4257 5.31479 55.0822 5.27149C56.539 4.76757 57.9484 4.12979 59.2907 3.37785C59.1565 3.14557 59.0222 2.9133 58.8841 2.67709C59.8197 2.77157 60.7869 2.48812 61.5173 1.90152C60.4711 1.81491 59.4052 1.91333 58.3906 2.19285C60.1355 2.41331 61.9397 2.11805 63.5228 1.36217C62.9543 0.866124 61.916 1.51177 61.3554 1.00785C61.1857 0.85825 61.1028 0.629911 60.933 0.48031C60.7238 0.299214 60.4237 0.271656 60.1434 0.259845C57.297 0.106307 54.4387 0.188981 51.6081 0.499994C51.1423 0.551174 50.5501 0.73227 50.5264 1.20076C49.8473 1.1732 49.1683 1.14564 48.4932 1.11808C48.0037 1.7716 47.0443 2.0275 46.2942 1.70074C46.1245 1.96845 45.9547 2.23616 45.785 2.50386C46.2587 2.83062 46.8509 2.98022 47.4233 2.91723C47.7747 3.63375 48.9077 3.79122 49.4407 3.19675C49.6776 4.01169 50.8975 3.85815 51.6239 3.41328C52.3464 2.96841 53.2781 2.4015 53.9571 2.9133C53.057 3.61012 51.9002 3.96838 50.7633 3.90933C51.0475 4.25183 51.3317 4.59434 51.6199 4.93685C50.9212 4.98016 50.3014 4.53529 49.6894 4.19672C49.0775 3.85815 48.2761 3.618 47.7115 4.03137C48.2208 4.44868 48.734 4.86205 49.2433 5.27936C47.8379 4.53923 46.4285 3.79909 45.023 3.0629C44.6124 2.84637 44.1348 2.62591 43.6965 2.78732C43.2583 2.94873 43.128 3.71248 43.5781 3.83453C43.2307 3.89752 42.9306 4.17703 42.8398 4.51561C43.6728 4.58253 44.494 4.81481 45.2402 5.19275C44.8888 5.30692 44.5374 5.41715 44.1861 5.53132C44.9875 5.79115 45.7889 6.05099 46.5903 6.31082C46.7522 6.362 46.9417 6.41712 47.0917 6.3305C47.2417 6.24783 47.297 6.0628 47.3799 5.9132C47.6326 5.46439 48.28 5.29117 48.7222 5.55494C48.6196 5.79509 48.5169 6.03918 48.4182 6.27932C48.7972 6.28326 49.1762 6.28326 49.5552 6.2872C49.5631 6.49585 49.567 6.70057 49.5749 6.90922C50.1237 6.99584 50.6882 6.98009 51.2331 6.86198C51.0357 7.59424 49.9658 7.66117 49.2986 7.2911C48.6314 6.92104 48.1063 6.2872 47.372 6.08248C47.6049 6.62971 47.98 7.11394 48.4498 7.48007C47.4707 7.3226 46.4522 7.42102 45.5205 7.75959C45.4297 7.56274 45.3389 7.36984 45.2481 7.17299C44.4822 7.49188 44.5967 8.59421 44.8454 9.38552C44.9204 9.61779 44.9954 9.85401 45.1494 10.043C45.4968 10.4682 46.1205 10.5193 46.6732 10.5351C47.5023 10.5587 48.3353 10.5823 49.1644 10.6059C50.3171 10.6256 52.8477 11.165 52.8043 9.47607Z" fill="#E6E6E6"/>
<path d="M43.6966 8.58633C43.9256 8.42885 44.3361 8.56271 44.4427 8.30681C44.5217 8.1139 44.3164 7.93281 44.1348 7.83045C43.9532 7.72809 43.7361 7.57061 43.7874 7.36983C43.6255 7.39345 43.4558 7.35802 43.3176 7.27141C43.665 7.18086 44.0124 7.09031 44.3598 6.99977C44.4941 6.96433 44.6599 6.84623 44.5809 6.736C44.5533 6.69663 44.5059 6.68088 44.4585 6.66907C44.2453 6.61395 44.0085 6.60608 43.819 6.49191C43.6295 6.3738 43.5229 6.08247 43.6887 5.93287C43.5703 5.92106 43.4518 5.91319 43.3334 5.90138C43.3294 5.80689 43.3215 5.71241 43.3176 5.61792C42.7017 5.60218 42.0898 5.551 41.4779 5.46832C41.3871 5.87776 41.7858 6.31475 42.2043 6.26751C42.2714 6.25963 42.3464 6.24389 42.4017 6.28326C42.453 6.31869 42.4648 6.38168 42.4925 6.43679C42.5714 6.59821 42.7886 6.67694 42.9544 6.60214C42.907 6.72025 42.8241 6.82654 42.7215 6.90134C42.9189 7.00764 43.1399 7.07457 43.361 7.10213C43.1834 7.23992 42.9781 7.33834 42.757 7.38558C42.8478 7.46038 42.9386 7.53124 43.0294 7.60604C42.7965 7.60998 42.5635 7.61392 42.3346 7.61786C42.2635 7.83438 42.4767 8.04304 42.6899 8.12965C42.9268 8.22413 44.0756 8.95246 43.3847 9.27922C42.9939 9.46425 42.8281 8.8186 42.9662 8.57452C43.1834 9.07844 43.1163 9.78314 43.5031 10.2241C43.7834 10.5469 44.2098 10.6059 44.4783 10.1808C44.9481 9.44456 43.8111 9.2241 43.6966 8.58633Z" fill="#E6E6E6"/>
<path d="M50.574 65.3797C50.3016 66.108 51.182 66.9583 51.9044 66.667C52.1137 66.5804 52.2953 66.4269 52.5164 66.3875C53.1362 66.2773 53.4954 67.0568 53.6257 67.6749C53.7757 68.3796 53.9218 69.1315 53.6612 69.8008C53.3454 70.6039 52.4848 71.1629 52.3821 72.0212C52.2992 72.7219 52.7611 73.4424 52.5243 74.1077C52.4177 74.4069 52.1768 74.6471 52.0624 74.9463C51.861 75.4817 52.1018 76.0722 52.3387 76.5958C53.1283 78.328 53.9218 80.0603 54.7114 81.7925C54.889 82.1822 55.0785 82.5877 55.422 82.8476C55.6944 83.0523 56.0339 83.1468 56.3221 83.3318C56.7919 83.631 57.0801 84.1389 57.3486 84.627C57.846 85.5286 58.3474 86.4459 58.5606 87.4537C58.8488 88.8277 58.5764 90.2489 58.304 91.6268C57.9052 93.6385 57.5065 95.6542 57.1078 97.666C56.6695 99.8824 56.2313 102.095 55.7931 104.311C56.2629 104.028 56.6103 103.552 56.7406 103.02C56.9656 104.461 56.6814 105.973 55.9471 107.233C55.8839 106.689 55.8207 106.146 55.7576 105.603C55.2207 106.76 54.9443 108.032 54.9522 109.307C54.9522 109.536 54.9719 109.788 55.1338 109.953C55.2838 110.11 55.5207 110.146 55.7141 110.244C56.1326 110.465 56.3142 111.047 56.0892 111.465C56.3103 111.516 56.5353 111.567 56.7564 111.618C57.0999 111.89 56.2866 112.272 56.2905 112.709C56.2905 112.886 56.4366 113.028 56.5708 113.146C57.1986 113.697 57.8263 114.252 58.4579 114.803C58.8961 114.933 59.3501 115.063 59.8002 114.992C60.2503 114.921 60.6964 114.591 60.7359 114.138C60.7951 113.516 60.1437 113.099 59.7252 112.634C59.0738 111.914 58.9159 110.854 59.0777 109.898C59.2396 108.941 59.6897 108.059 60.1279 107.197C59.8436 107.091 59.5594 106.985 59.2712 106.874C59.2909 106.237 59.9463 105.839 60.3569 105.351C61.107 104.461 61.0241 102.993 60.1792 102.193C60.4911 101.973 60.803 101.752 61.1188 101.536C61.3754 101.945 61.632 102.355 61.8886 102.764C62.5282 102.252 62.769 101.296 62.4492 100.54C63.9021 100.91 65.5444 99.7249 65.6431 98.2289C65.2838 98.2171 64.9996 97.8038 65.118 97.4652C65.2365 97.1266 65.7141 96.977 66.0063 97.1857C65.8444 97.599 66.3221 98.0518 66.7643 97.9967C67.2064 97.9415 67.5381 97.5479 67.6841 97.1266C67.8342 96.7093 67.846 96.2566 67.9289 95.8196C68.0631 95.1188 68.379 94.4535 68.8409 93.9102C69.2238 93.4574 69.7173 93.0716 69.9423 92.5244C70.1081 92.1228 70.1081 91.678 70.1792 91.2489C70.4082 89.8513 71.4386 88.6151 72.7769 88.1348C72.8322 88.7608 73.8231 88.6308 74.285 88.2057C74.9798 87.5718 75.4457 86.6978 75.5878 85.7727C75.7102 84.9617 75.6036 84.0837 75.9865 83.3554C76.1484 83.0483 76.3971 82.7806 76.4919 82.446C76.5708 82.1586 76.5314 81.8555 76.5471 81.5563C76.6301 79.9579 78.3474 78.6942 78.15 77.1076C78.0197 76.0761 77.1196 75.336 76.2905 74.7101C75.0193 73.7534 73.6691 72.7613 72.09 72.5645C71.0872 72.4385 70.0055 72.6353 69.1054 72.1826C69.5081 72.159 69.7923 71.7417 69.8121 71.3401C69.8318 70.9385 69.6581 70.5567 69.4883 70.1945C69.3738 69.9504 69.2593 69.7023 69.1449 69.4583C68.679 68.4622 67.9131 67.293 66.8235 67.4505C66.4998 67.4977 66.1445 67.6591 65.8681 67.482C65.6155 67.3205 65.5878 66.9702 65.4496 66.7024C64.9127 65.6592 62.8717 66.0844 62.5637 64.9505C62.4848 64.6553 62.5519 64.297 62.3387 64.0766C62.165 63.8994 61.8847 63.8955 61.636 63.9033C60.5069 63.9466 59.3817 63.986 58.2526 64.0293C58.2132 64.4702 57.925 64.8836 57.5223 65.0686C57.5815 65.3285 57.6407 65.5883 57.6999 65.8442C57.6091 66.3048 56.8314 66.2497 56.6301 65.8245C56.4287 65.3993 56.6222 64.8994 56.863 64.4939C57.0999 64.0884 57.392 63.6789 57.388 63.2065C56.8748 62.9624 56.3577 63.4939 55.9866 63.923C55.6155 64.3521 54.893 64.7261 54.5535 64.2695C54.5969 64.738 54.6403 65.2025 54.6837 65.671C53.9573 66.3048 52.6466 66.0253 52.24 65.1553C51.9597 65.5017 51.6478 65.8678 51.2175 65.9899C50.7872 66.1119 50.2226 65.8403 50.2266 65.3954C50.4477 66.3599 51.4031 67.1001 52.394 67.0765" fill="#E6E6E6"/>
<path d="M49.5469 56.1477C49.8903 56.4941 50.4233 55.9745 50.9089 55.9115C51.3787 55.8524 51.7616 56.2461 52.113 56.5611C52.4644 56.876 53.0131 57.1398 53.3803 56.8406C53.554 57.5689 54.5725 57.9311 55.1726 57.4823C55.1173 57.7382 55.4569 57.9154 55.7174 57.8681C55.978 57.8209 56.207 57.6595 56.4715 57.6398C56.8505 57.6122 57.2176 57.9468 57.2216 58.3287C57.2295 58.4665 57.036 58.5177 56.8978 58.4823C56.7636 58.4468 56.6136 58.376 56.4952 58.4508C56.4123 58.5019 56.3807 58.6043 56.3214 58.683C56.1083 58.9704 55.6661 58.8602 55.3266 58.746C54.9871 58.6279 54.5094 58.5964 54.3791 58.9271C55.4411 59.1358 56.5465 59.12 57.6006 58.8799C57.5137 58.9626 57.5769 59.124 57.6874 59.1712C57.798 59.2185 57.9243 59.1909 58.0388 59.1633C58.4888 59.057 58.9389 58.9468 59.389 58.8405C59.6614 59.0059 60.0206 59.0059 60.293 58.8445C60.2733 58.9665 60.2575 59.0925 60.2378 59.2145C60.7668 59.4429 61.4498 59.2224 61.7458 58.7303C60.9957 58.6082 60.2496 58.4823 59.4995 58.3602C58.9626 58.2697 58.4099 58.1791 57.9401 57.9035C57.4782 57.6319 57.111 57.191 56.5978 57.0256C55.8832 56.7933 55.066 57.1555 54.3712 56.8721C53.7001 56.5965 53.2776 55.7619 52.5512 55.7501C52.3143 55.7461 52.0656 55.8327 51.8524 55.7343C51.3076 55.4863 51.3787 54.9706 50.676 55.2383C50.5496 55.2934 49.6653 56.2658 49.5469 56.1477Z" fill="#E6E6E6"/>
<path d="M109.707 41.9868C109.364 42.6875 109.21 43.471 109.344 44.2386C109.577 45.5614 110.603 46.7819 110.315 48.0968C109.865 47.9787 109.419 47.8645 108.969 47.7503" fill="#E6E6E6"/>
<path d="M114.532 24.2866C114.505 24.3692 114.469 24.448 114.438 24.5267Z" fill="#E6E6E6"/>
<path d="M114.617 23.763C114.609 23.448 114.475 23.1488 114.27 22.9008Z" fill="#E6E6E6"/>
</g>
<defs>
<clipPath id="clip0_2373_159">
<rect width="200" height="115" fill="white"/>
</clipPath>
</defs>
</svg>
