<svg width="800" height="120" viewBox="0 0 800 120" fill="none" xmlns="http://www.w3.org/2000/svg">
<rect x="399" width="2" height="120" fill="#D3DDF5"/>
<mask id="path-2-inside-1_2783_144" fill="white">
<path d="M0 16C0 7.16344 7.16344 0 16 0H784C792.837 0 800 7.16345 800 16V120H0V16Z"/>
</mask>
<path d="M-2 16C-2 6.05887 6.05887 -2 16 -2H784C793.941 -2 802 6.05887 802 16H798C798 8.26801 791.732 2 784 2H16C8.26801 2 2 8.26801 2 16H-2ZM800 120H0H800ZM-2 120V16C-2 6.05887 6.05887 -2 16 -2V2C8.26801 2 2 8.26801 2 16V120H-2ZM784 -2C793.941 -2 802 6.05887 802 16V120H798V16C798 8.26801 791.732 2 784 2V-2Z" fill="#D3DDF5" mask="url(#path-2-inside-1_2783_144)"/>
</svg>
