<svg width="30" height="30" viewBox="0 0 30 30" fill="none" xmlns="http://www.w3.org/2000/svg">
<path d="M15 0C17.9667 0 20.8668 0.879735 23.3336 2.52796C25.8003 4.17618 27.7229 6.51886 28.8582 9.25975C29.9935 12.0006 30.2906 15.0166 29.7118 17.9264C29.133 20.8361 27.7044 23.5088 25.6066 25.6066C23.5088 27.7044 20.8361 29.133 17.9264 29.7118C15.0166 30.2906 12.0006 29.9935 9.25975 28.8582C6.51886 27.7229 4.17618 25.8003 2.52796 23.3336C0.879735 20.8668 0 17.9667 0 15C0 11.0218 1.58035 7.20644 4.3934 4.3934C7.20644 1.58035 11.0218 0 15 0ZM15 28C17.5712 28 20.0846 27.2376 22.2224 25.8091C24.3603 24.3806 26.0265 22.3503 27.0104 19.9749C27.9944 17.5994 28.2518 14.9856 27.7502 12.4638C27.2486 9.94207 26.0105 7.62569 24.1924 5.80761C22.3743 3.98953 20.0579 2.7514 17.5362 2.24979C15.0144 1.74818 12.4006 2.00563 10.0251 2.98957C7.64968 3.97351 5.61935 5.63975 4.1909 7.77759C2.76244 9.91543 2 12.4288 2 15C2 18.4478 3.36964 21.7544 5.80761 24.1924C8.24558 26.6304 11.5522 28 15 28Z" fill="white" fill-opacity="0.6"/>
<path d="M9.40978 11.1299L14.9998 16.7099L20.5898 11.1299C20.7771 10.9437 21.0306 10.8391 21.2948 10.8391C21.559 10.8391 21.8124 10.9437 21.9998 11.1299C22.186 11.3173 22.2906 11.5707 22.2906 11.8349C22.2906 12.0991 22.186 12.3525 21.9998 12.5399L15.6398 18.8999C15.4694 19.0685 15.2394 19.163 14.9998 19.163C14.7601 19.163 14.5301 19.0685 14.3598 18.8999L7.99978 12.5399C7.81353 12.3525 7.70898 12.0991 7.70898 11.8349C7.70898 11.5707 7.81353 11.3173 7.99978 11.1299C8.18714 10.9437 8.44059 10.8391 8.70478 10.8391C8.96896 10.8391 9.22241 10.9437 9.40978 11.1299Z" fill="white" fill-opacity="0.6"/>
</svg>
