<svg width="36" height="36" viewBox="0 0 36 36" fill="none" xmlns="http://www.w3.org/2000/svg">
<path d="M18 7.87534C15.6449 7.97475 13.4131 8.95487 11.7463 10.6216C10.0795 12.2884 9.09941 14.5203 9 16.8753C9.01836 19.2614 9.93871 21.5523 11.5762 23.2878C12.1396 23.7369 12.6021 24.2995 12.9335 24.9392C13.265 25.5788 13.458 26.2811 13.5 27.0003C13.5 27.2987 13.6185 27.5849 13.8295 27.7958C14.0405 28.0068 14.3266 28.1253 14.625 28.1253H21.375C21.6734 28.1253 21.9595 28.0068 22.1705 27.7958C22.3815 27.5849 22.5 27.2987 22.5 27.0003C22.5353 26.2852 22.7232 25.586 23.0511 24.9495C23.3791 24.3131 23.8394 23.7541 24.4013 23.3103C25.2455 22.468 25.9108 21.4639 26.3574 20.3581C26.804 19.2523 27.0225 18.0677 27 16.8753C27.0009 15.6546 26.7587 14.4459 26.2874 13.3198C25.8161 12.1937 25.1252 11.1728 24.255 10.3166C23.4284 9.51232 22.449 8.8819 21.3747 8.46259C20.3003 8.04328 19.1528 7.8436 18 7.87534ZM22.8825 21.6903C21.608 22.7745 20.7197 24.2431 20.3513 25.8753H15.6487C15.2836 24.2583 14.4175 22.7977 13.1738 21.7016C11.9551 20.3877 11.2693 18.6672 11.25 16.8753C11.3296 15.1108 12.0664 13.4398 13.3154 12.1907C14.5644 10.9417 16.2354 10.205 18 10.1253C18.8559 10.0957 19.709 10.2399 20.5076 10.5493C21.3062 10.8586 22.0337 11.3268 22.6462 11.9253C23.3091 12.5686 23.8367 13.3379 24.1979 14.1879C24.5592 15.038 24.7469 15.9517 24.75 16.8753C24.7699 17.7641 24.612 18.6479 24.2855 19.4748C23.959 20.3016 23.4705 21.0549 22.8487 21.6903H22.8825Z" fill="#F5A1DE"/>
<path d="M21.375 29.25H14.625C14.3266 29.25 14.0405 29.3685 13.8295 29.5795C13.6185 29.7905 13.5 30.0766 13.5 30.375C13.5 30.6734 13.6185 30.9595 13.8295 31.1705C14.0405 31.3815 14.3266 31.5 14.625 31.5H21.375C21.6734 31.5 21.9595 31.3815 22.1705 31.1705C22.3815 30.9595 22.5 30.6734 22.5 30.375C22.5 30.0766 22.3815 29.7905 22.1705 29.5795C21.9595 29.3685 21.6734 29.25 21.375 29.25Z" fill="#F5A1DE"/>
<path d="M20.25 32.625H15.75C15.4516 32.625 15.1655 32.7435 14.9545 32.9545C14.7435 33.1655 14.625 33.4516 14.625 33.75C14.625 34.0484 14.7435 34.3345 14.9545 34.5455C15.1655 34.7565 15.4516 34.875 15.75 34.875H20.25C20.5484 34.875 20.8345 34.7565 21.0455 34.5455C21.2565 34.3345 21.375 34.0484 21.375 33.75C21.375 33.4516 21.2565 33.1655 21.0455 32.9545C20.8345 32.7435 20.5484 32.625 20.25 32.625Z" fill="#F5A1DE"/>
<path d="M18 5.625C18.2984 5.625 18.5845 5.50647 18.7955 5.29549C19.0065 5.08452 19.125 4.79837 19.125 4.5V2.25C19.125 1.95163 19.0065 1.66548 18.7955 1.4545C18.5845 1.24353 18.2984 1.125 18 1.125C17.7016 1.125 17.4155 1.24353 17.2045 1.4545C16.9935 1.66548 16.875 1.95163 16.875 2.25V4.5C16.875 4.79837 16.9935 5.08452 17.2045 5.29549C17.4155 5.50647 17.7016 5.625 18 5.625Z" fill="#F5A1DE"/>
<path d="M5.625 15.75H3.375C3.07663 15.75 2.79048 15.8685 2.5795 16.0795C2.36853 16.2905 2.25 16.5766 2.25 16.875C2.25 17.1734 2.36853 17.4595 2.5795 17.6705C2.79048 17.8815 3.07663 18 3.375 18H5.625C5.92337 18 6.20952 17.8815 6.42049 17.6705C6.63147 17.4595 6.75 17.1734 6.75 16.875C6.75 16.5766 6.63147 16.2905 6.42049 16.0795C6.20952 15.8685 5.92337 15.75 5.625 15.75Z" fill="#F5A1DE"/>
<path d="M32.625 15.75H30.375C30.0766 15.75 29.7905 15.8685 29.5795 16.0795C29.3685 16.2905 29.25 16.5766 29.25 16.875C29.25 17.1734 29.3685 17.4595 29.5795 17.6705C29.7905 17.8815 30.0766 18 30.375 18H32.625C32.9234 18 33.2095 17.8815 33.4205 17.6705C33.6315 17.4595 33.75 17.1734 33.75 16.875C33.75 16.5766 33.6315 16.2905 33.4205 16.0795C33.2095 15.8685 32.9234 15.75 32.625 15.75Z" fill="#F5A1DE"/>
<path d="M29.1376 5.7373C28.9268 5.52777 28.6417 5.41016 28.3445 5.41016C28.0473 5.41016 27.7621 5.52777 27.5514 5.7373L25.9539 7.32355C25.8484 7.42813 25.7647 7.55256 25.7076 7.68965C25.6505 7.82674 25.6211 7.97378 25.6211 8.1223C25.6211 8.27081 25.6505 8.41785 25.7076 8.55495C25.7647 8.69204 25.8484 8.81646 25.9539 8.92105C26.059 9.02531 26.1837 9.10781 26.3207 9.16379C26.4578 9.21978 26.6046 9.24815 26.7526 9.2473C26.9007 9.24815 27.0474 9.21978 27.1845 9.16379C27.3216 9.10781 27.4462 9.02531 27.5514 8.92105L29.1376 7.32355C29.3471 7.11277 29.4648 6.82763 29.4648 6.53042C29.4648 6.23321 29.3471 5.94808 29.1376 5.7373Z" fill="#F5A1DE"/>
<path d="M10.0461 8.92106C10.1515 8.81648 10.2352 8.69205 10.2923 8.55496C10.3494 8.41787 10.3788 8.27082 10.3788 8.12231C10.3788 7.9738 10.3494 7.82675 10.2923 7.68966C10.2352 7.55257 10.1515 7.42814 10.0461 7.32356L8.44856 5.73731C8.23335 5.55301 7.95651 5.4567 7.67338 5.46764C7.39024 5.47857 7.12166 5.59595 6.9213 5.7963C6.72095 5.99666 6.60357 6.26524 6.59264 6.54838C6.5817 6.83151 6.67801 7.10835 6.86231 7.32356L8.44856 8.92106C8.55368 9.02533 8.67835 9.10782 8.81542 9.1638C8.95248 9.21979 9.09925 9.24817 9.24731 9.24731C9.39537 9.24817 9.54214 9.21979 9.67921 9.1638C9.81627 9.10782 9.94094 9.02533 10.0461 8.92106Z" fill="#F5A1DE"/>
</svg>
