<svg width="583" height="472" viewBox="0 0 583 472" fill="none" xmlns="http://www.w3.org/2000/svg">
<rect x="333" y="40" width="250" height="420" fill="#3300FF"/>
<rect x="53" y="20" width="510" height="420" fill="url(#paint0_linear_4980_16)"/>
<path d="M161.581 292.673C161.083 207.035 215.367 130.715 296.886 130.191C378.404 129.667 456.293 207.035 456.791 292.673C457.29 378.31 394.805 283.869 313.286 284.393C231.768 284.917 162.08 378.31 161.581 292.673Z" fill="#FD491F"/>
<path d="M159.941 287.504C159.442 201.866 213.727 125.546 295.246 125.022C376.764 124.498 454.652 201.866 455.151 287.504C455.65 373.141 393.165 278.7 311.646 279.224C230.128 279.748 160.44 373.141 159.941 287.504Z" fill="white"/>
<path d="M231.688 151.122C232.965 151.122 234 150.087 234 148.81C234 147.532 232.965 146.497 231.688 146.497C230.41 146.497 229.375 147.532 229.375 148.81C229.375 150.087 230.41 151.122 231.688 151.122Z" fill="url(#paint1_linear_4980_16)"/>
<path d="M222.438 151.122C223.715 151.122 224.75 150.087 224.75 148.81C224.75 147.532 223.715 146.497 222.438 146.497C221.16 146.497 220.125 147.532 220.125 148.81C220.125 150.087 221.16 151.122 222.438 151.122Z" fill="url(#paint2_linear_4980_16)"/>
<path d="M213.188 151.122C214.465 151.122 215.5 150.087 215.5 148.81C215.5 147.532 214.465 146.497 213.188 146.497C211.91 146.497 210.875 147.532 210.875 148.81C210.875 150.087 211.91 151.122 213.188 151.122Z" fill="url(#paint3_linear_4980_16)"/>
<path d="M338.062 160.372H203.938C202.661 160.372 201.625 159.336 201.625 158.06C201.625 156.783 202.661 155.747 203.938 155.747H338.062C339.339 155.747 340.375 156.783 340.375 158.06C340.375 159.336 339.339 160.372 338.062 160.372Z" fill="url(#paint4_linear_4980_16)"/>
<path d="M338.062 248.247C336.786 248.247 335.75 247.211 335.75 245.935V144.185C335.75 142.913 334.714 141.872 333.438 141.872H208.562C207.286 141.872 206.25 142.913 206.25 144.185V245.935C206.25 247.211 205.214 248.247 203.938 248.247C202.661 248.247 201.625 247.211 201.625 245.935V144.185C201.625 140.36 204.738 137.247 208.562 137.247H333.438C337.262 137.247 340.375 140.36 340.375 144.185V245.935C340.375 247.211 339.339 248.247 338.062 248.247Z" fill="url(#paint5_linear_4980_16)"/>
<path d="M338.062 262.122C339.34 262.122 340.375 261.087 340.375 259.81C340.375 258.532 339.34 257.497 338.062 257.497C336.785 257.497 335.75 258.532 335.75 259.81C335.75 261.087 336.785 262.122 338.062 262.122Z" fill="url(#paint6_linear_4980_16)"/>
<path d="M203.938 262.122C205.215 262.122 206.25 261.087 206.25 259.81C206.25 258.532 205.215 257.497 203.938 257.497C202.66 257.497 201.625 258.532 201.625 259.81C201.625 261.087 202.66 262.122 203.938 262.122Z" fill="url(#paint7_linear_4980_16)"/>
<path d="M328.812 257.497H279.922C280.116 258.242 280.25 259.005 280.25 259.81C280.25 260.614 280.116 261.377 279.922 262.122H328.812C330.089 262.122 331.125 261.086 331.125 259.81C331.125 258.533 330.089 257.497 328.812 257.497Z" fill="url(#paint8_linear_4980_16)"/>
<path d="M261.75 259.81C261.75 259.005 261.884 258.242 262.078 257.497H213.188C211.911 257.497 210.875 258.533 210.875 259.81C210.875 261.086 211.911 262.122 213.188 262.122H262.078C261.884 261.377 261.75 260.614 261.75 259.81Z" fill="url(#paint9_linear_4980_16)"/>
<path d="M271 271.372C264.627 271.372 259.438 266.187 259.438 259.81C259.438 253.432 264.627 248.247 271 248.247C277.373 248.247 282.562 253.432 282.562 259.81C282.562 266.187 277.373 271.372 271 271.372ZM271 252.872C267.175 252.872 264.062 255.985 264.062 259.81C264.062 263.634 267.175 266.747 271 266.747C274.825 266.747 277.938 263.634 277.938 259.81C277.938 255.985 274.825 252.872 271 252.872Z" fill="url(#paint10_linear_4980_16)"/>
<path d="M271 241.31C250.599 241.31 234 224.71 234 204.31C234 183.909 250.599 167.31 271 167.31C291.401 167.31 308 183.909 308 204.31C308 224.71 291.401 241.31 271 241.31ZM271 171.935C253.152 171.935 238.625 186.462 238.625 204.31C238.625 222.157 253.152 236.685 271 236.685C288.848 236.685 303.375 222.157 303.375 204.31C303.375 186.462 288.848 171.935 271 171.935Z" fill="url(#paint11_linear_4980_16)"/>
<path d="M246.871 231.236C246.016 231.236 245.202 230.76 244.795 229.946C244.235 228.799 244.702 227.411 245.854 226.847C261.681 219.077 280.504 218.43 296.821 225.08C298.005 225.561 298.574 226.912 298.093 228.091C297.612 229.275 296.253 229.839 295.078 229.358C279.973 223.212 262.55 223.808 247.898 230.996C247.565 231.162 247.214 231.236 246.871 231.236Z" fill="url(#paint12_linear_4980_16)"/>
<path d="M273.313 188.122C266.685 188.122 260.159 187.086 253.92 185.051C252.708 184.653 252.042 183.349 252.44 182.132C252.838 180.916 254.133 180.259 255.358 180.652C267.952 184.769 281.947 184.389 294.282 179.575C295.466 179.103 296.812 179.7 297.275 180.888C297.737 182.077 297.154 183.418 295.961 183.881C288.746 186.693 281.124 188.122 273.313 188.122Z" fill="url(#paint13_linear_4980_16)"/>
<path d="M270.995 241.222C270.547 241.222 270.098 241.092 269.71 240.828C257.486 232.642 250.188 218.989 250.188 204.309C250.188 189.62 257.486 175.967 269.71 167.79C270.491 167.268 271.504 167.268 272.286 167.79C284.519 175.977 291.817 189.63 291.817 204.309C291.817 218.989 284.519 232.642 272.286 240.828C271.893 241.092 271.444 241.222 270.995 241.222ZM270.995 172.526C260.834 179.931 254.812 191.692 254.812 204.309C254.812 216.922 260.834 228.688 270.995 236.092C281.161 228.683 287.187 216.917 287.187 204.309C287.187 191.692 281.161 179.931 270.995 172.526Z" fill="url(#paint14_linear_4980_16)"/>
<path d="M303.759 206.812H245.66C244.383 206.812 243.347 205.776 243.347 204.499C243.347 203.223 244.383 202.187 245.66 202.187H303.759C305.035 202.187 306.071 203.223 306.071 204.499C306.071 205.776 305.035 206.812 303.759 206.812Z" fill="url(#paint15_linear_4980_16)"/>
<g clip-path="url(#clip0_4980_16)">
<path d="M417.25 277.497H410.5V259.497C410.5 254.525 406.473 250.497 401.5 250.497H383.5V243.747C383.5 237.537 378.46 232.497 372.25 232.497C366.04 232.497 361 237.537 361 243.747V250.497H343C338.028 250.497 334.045 254.525 334.045 259.497L334.023 276.597H340.75C347.455 276.597 352.9 282.042 352.9 288.747C352.9 295.452 347.455 300.897 340.75 300.897H334.023L334 317.997C334 322.97 338.028 326.997 343 326.997H360.1V320.247C360.1 313.542 365.545 308.097 372.25 308.097C378.955 308.097 384.4 313.542 384.4 320.247V326.997H401.5C406.473 326.997 410.5 322.97 410.5 317.997V299.997H417.25C423.46 299.997 428.5 294.957 428.5 288.747C428.5 282.537 423.46 277.497 417.25 277.497Z" fill="url(#paint16_linear_4980_16)"/>
</g>
<path d="M372.939 229.601C372.711 229.601 372.497 229.489 372.365 229.304L360.412 212.429C360.262 212.214 360.24 211.932 360.361 211.699C360.482 211.466 360.724 211.318 360.986 211.318H364.501V209.209C364.501 202.166 362.904 196.779 359.755 193.197C359.499 192.904 359.529 192.462 359.82 192.204C360.111 191.947 360.554 191.976 360.813 192.267C364.193 196.114 365.908 201.813 365.908 209.207V212.02C365.908 212.408 365.593 212.723 365.205 212.723H362.346L372.939 227.678L383.532 212.723H380.673C380.285 212.723 379.97 212.408 379.97 212.02V210.613C379.97 196.15 372.163 188.817 356.767 188.817L351.845 188.822C351.844 188.825 351.844 188.825 351.844 188.825C351.456 188.825 351.141 188.51 351.141 188.122C351.141 187.734 351.456 187.419 351.842 187.419L356.766 187.413C373.096 187.413 381.376 195.219 381.376 210.616V211.319H384.892C385.155 211.319 385.395 211.466 385.516 211.7C385.637 211.935 385.616 212.215 385.466 212.43L373.513 229.305C373.38 229.489 373.167 229.601 372.939 229.601Z" fill="#272727"/>
<path d="M358.172 191.638C357.785 191.638 357.469 191.321 357.469 190.935C357.469 190.548 357.785 190.231 358.172 190.231C358.559 190.231 358.875 190.548 358.875 190.935C358.875 191.321 358.559 191.638 358.172 191.638Z" fill="#272727"/>
<path d="M352.547 188.825H344.109C343.721 188.825 343.406 188.51 343.406 188.122C343.406 187.734 343.721 187.419 344.109 187.419H352.547C352.935 187.419 353.25 187.734 353.25 188.122C353.25 188.51 352.935 188.825 352.547 188.825Z" fill="#272727"/>
<path d="M53.7741 404.132C57.6761 400.23 64.0026 400.233 67.9041 404.135C71.8061 408.037 71.8096 414.363 67.9071 418.265C64.0051 422.167 57.6791 422.164 53.7771 418.262C49.8753 414.36 49.872 408.034 53.7741 404.132ZM64.3686 407.671C62.4176 405.719 59.2571 405.72 57.3096 407.668C55.3621 409.615 55.3616 412.776 57.3126 414.727C59.2636 416.678 62.4241 416.677 64.3716 414.73C66.3191 412.782 66.3201 409.622 64.3686 407.671Z" fill="#282727"/>
<path d="M58.744 444.525C55.9595 445.845 52.53 445.354 50.2265 443.05L47.18 440.004L43.5198 446.104C43.1238 446.765 42.4456 447.205 41.6815 447.3C40.9175 447.394 40.1526 447.13 39.6083 446.586L25.4548 432.433C24.9103 431.888 24.6471 431.123 24.7414 430.359C24.8357 429.595 25.2769 428.916 25.9374 428.52L32.0396 424.863L28.9904 421.814C26.6867 419.51 26.195 416.081 27.5152 413.296L21.9168 407.698C20.9405 406.722 20.9405 405.139 21.9168 404.162L27.2161 398.863C31.8312 394.248 38.7039 393.266 44.2792 395.918L48.9665 391.231C57.2475 382.95 69.4415 379.952 80.6185 383.449C84.4225 384.639 87.401 387.618 88.5915 391.422C92.088 402.598 89.09 414.793 80.809 423.074L76.122 427.761C78.775 433.336 77.7935 440.21 73.178 444.825L67.8785 450.124C66.9025 451.101 65.3195 451.101 64.343 450.124L58.744 444.525ZM79.1255 388.221C69.7245 385.279 59.4675 387.801 52.502 394.767L48.4245 398.844L48.4434 398.863L44.9079 402.399L44.889 402.38L34.2794 412.989L34.2982 413.008L32.2858 415.021C31.5576 415.999 31.6377 417.39 32.526 418.278L53.762 439.514C54.652 440.405 56.0465 440.483 57.026 439.75L59.033 437.743L59.051 437.761L69.6605 427.151L69.6425 427.133L73.178 423.598L73.196 423.616L77.2735 419.538C84.239 412.573 86.7605 402.316 83.8195 392.915C83.119 390.675 81.365 388.921 79.1255 388.221ZM62.5865 441.296L66.111 444.821L69.6425 441.289C72.2565 438.675 73.1225 434.976 72.2405 431.642L62.5865 441.296ZM40.3977 399.8C37.0645 398.919 33.3652 399.785 30.7516 402.399L27.2201 405.93L30.7438 409.454L40.3977 399.8ZM43.5356 436.359L35.6844 428.508L31.2556 431.162L40.8796 440.786L43.5356 436.359Z" fill="#282727"/>
<path d="M29.0134 446.561C29.9897 445.585 29.9897 444.002 29.0134 443.026C28.0371 442.05 26.4542 442.05 25.4779 443.026L16.637 451.867C15.6607 452.843 15.6607 454.426 16.637 455.402C17.6133 456.379 19.1962 456.379 20.1725 455.402L29.0134 446.561Z" fill="#282727"/>
<path d="M21.937 435.949C22.9133 436.926 22.9133 438.509 21.937 439.485L18.3925 443.029C17.4162 444.006 15.8333 444.006 14.857 443.029C13.8807 442.053 13.8807 440.47 14.857 439.494L18.4014 435.949C19.3778 434.973 20.9607 434.973 21.937 435.949Z" fill="#282727"/>
<path d="M36.0903 453.639C37.0666 452.663 37.0666 451.08 36.0903 450.103C35.114 449.127 33.5311 449.127 32.5548 450.103L29.0103 453.648C28.034 454.624 28.034 456.207 29.0103 457.183C29.9866 458.16 31.5695 458.16 32.5458 457.183L36.0903 453.639Z" fill="#282727"/>
<path d="M30.3124 5.8335C25.0772 5.8335 20.8333 10.0775 20.8333 15.3127V38.646C20.8333 38.9382 20.8465 39.2276 20.8724 39.5134C21.0082 41.0108 21.4923 42.4076 22.2429 43.6221C22.3105 43.7315 22.3803 43.8394 22.4521 43.9459C23.2055 45.0609 24.1899 46.0071 25.3366 46.7158C26.5513 47.4663 27.9483 47.9505 29.4458 48.0861L29.4629 48.0875C29.7428 48.1123 30.0261 48.1252 30.3124 48.1252H36.8749V54.6877C36.8749 59.9228 41.1189 64.1668 46.3541 64.1668H69.6874C74.9225 64.1668 79.1666 59.9228 79.1666 54.6877V31.3543C79.1666 26.1191 74.9225 21.8752 69.6874 21.8752H63.1249V15.3127C63.1249 15.0205 63.1118 14.7314 63.0858 14.446C62.9502 12.9485 62.466 11.5516 61.7156 10.3368C61.6479 10.2273 61.5779 10.1193 61.5062 10.0128C60.7528 8.8978 59.7684 7.95173 58.6219 7.24318C57.4074 6.49252 56.0106 6.00847 54.5132 5.87264C54.507 5.87211 54.5012 5.87156 54.4951 5.87103C54.2154 5.84618 53.9322 5.8335 53.6458 5.8335H30.3124ZM32.3233 10.2085L25.2083 17.3236V15.3127C25.2083 12.4937 27.4935 10.2085 30.3124 10.2085H32.3233ZM25.2083 23.5107L38.5105 10.2085H43.99L25.2083 28.9902V23.5107ZM50.1772 10.2085H53.6458C54.2475 10.2085 54.825 10.3127 55.3613 10.5039L43.5766 22.2886C40.575 23.2071 38.2068 25.5753 37.2884 28.5768L25.5037 40.3616C25.3124 39.8252 25.2083 39.2477 25.2083 38.646V35.1775L50.1772 10.2085ZM58.4548 13.5977C58.6458 14.1337 58.7499 14.711 58.7499 15.3127V18.7819L55.6568 21.8752H50.1772L58.4548 13.5977ZM36.8749 35.1775V40.657L33.7816 43.7502H30.3124C29.7108 43.7502 29.1334 43.646 28.5974 43.455L36.8749 35.1775ZM41.2499 31.3543C41.2499 28.5354 43.5351 26.2502 46.3541 26.2502H69.6874C72.5064 26.2502 74.7916 28.5354 74.7916 31.3543V54.6877C74.7916 57.5066 72.5064 59.7918 69.6874 59.7918H46.3541C43.5351 59.7918 41.2499 57.5066 41.2499 54.6877V31.3543Z" fill="#212121"/>
<defs>
<linearGradient id="paint0_linear_4980_16" x1="53" y1="20" x2="608.572" y2="100.644" gradientUnits="userSpaceOnUse">
<stop stop-color="#FFE500"/>
<stop offset="0.494792" stop-color="#FFE500"/>
<stop offset="1" stop-color="#F1DD28"/>
</linearGradient>
<linearGradient id="paint1_linear_4980_16" x1="231.688" y1="146.497" x2="231.688" y2="151.122" gradientUnits="userSpaceOnUse">
<stop stop-color="#2F2F2F"/>
<stop offset="1" stop-color="#171717"/>
</linearGradient>
<linearGradient id="paint2_linear_4980_16" x1="222.438" y1="146.497" x2="222.438" y2="151.122" gradientUnits="userSpaceOnUse">
<stop stop-color="#2F2F2F"/>
<stop offset="1" stop-color="#171717"/>
</linearGradient>
<linearGradient id="paint3_linear_4980_16" x1="213.188" y1="146.497" x2="213.188" y2="151.122" gradientUnits="userSpaceOnUse">
<stop stop-color="#2F2F2F"/>
<stop offset="1" stop-color="#171717"/>
</linearGradient>
<linearGradient id="paint4_linear_4980_16" x1="271" y1="155.747" x2="271" y2="160.372" gradientUnits="userSpaceOnUse">
<stop stop-color="#2F2F2F"/>
<stop offset="1" stop-color="#171717"/>
</linearGradient>
<linearGradient id="paint5_linear_4980_16" x1="271" y1="137.247" x2="271" y2="248.247" gradientUnits="userSpaceOnUse">
<stop stop-color="#2F2F2F"/>
<stop offset="1" stop-color="#171717"/>
</linearGradient>
<linearGradient id="paint6_linear_4980_16" x1="338.062" y1="257.497" x2="338.062" y2="262.122" gradientUnits="userSpaceOnUse">
<stop stop-color="#2F2F2F"/>
<stop offset="1" stop-color="#171717"/>
</linearGradient>
<linearGradient id="paint7_linear_4980_16" x1="203.938" y1="257.497" x2="203.938" y2="262.122" gradientUnits="userSpaceOnUse">
<stop stop-color="#2F2F2F"/>
<stop offset="1" stop-color="#171717"/>
</linearGradient>
<linearGradient id="paint8_linear_4980_16" x1="305.523" y1="257.497" x2="305.523" y2="262.122" gradientUnits="userSpaceOnUse">
<stop stop-color="#2F2F2F"/>
<stop offset="1" stop-color="#171717"/>
</linearGradient>
<linearGradient id="paint9_linear_4980_16" x1="236.477" y1="257.497" x2="236.477" y2="262.122" gradientUnits="userSpaceOnUse">
<stop stop-color="#2F2F2F"/>
<stop offset="1" stop-color="#171717"/>
</linearGradient>
<linearGradient id="paint10_linear_4980_16" x1="271" y1="248.247" x2="271" y2="271.372" gradientUnits="userSpaceOnUse">
<stop stop-color="#2F2F2F"/>
<stop offset="1" stop-color="#171717"/>
</linearGradient>
<linearGradient id="paint11_linear_4980_16" x1="271" y1="167.31" x2="271" y2="241.31" gradientUnits="userSpaceOnUse">
<stop stop-color="#2F2F2F"/>
<stop offset="1" stop-color="#171717"/>
</linearGradient>
<linearGradient id="paint12_linear_4980_16" x1="271.411" y1="220.518" x2="271.411" y2="231.236" gradientUnits="userSpaceOnUse">
<stop stop-color="#2F2F2F"/>
<stop offset="1" stop-color="#171717"/>
</linearGradient>
<linearGradient id="paint13_linear_4980_16" x1="274.879" y1="179.413" x2="274.879" y2="188.122" gradientUnits="userSpaceOnUse">
<stop stop-color="#2F2F2F"/>
<stop offset="1" stop-color="#171717"/>
</linearGradient>
<linearGradient id="paint14_linear_4980_16" x1="271.002" y1="167.398" x2="271.002" y2="241.222" gradientUnits="userSpaceOnUse">
<stop stop-color="#2F2F2F"/>
<stop offset="1" stop-color="#171717"/>
</linearGradient>
<linearGradient id="paint15_linear_4980_16" x1="274.709" y1="202.187" x2="274.709" y2="206.812" gradientUnits="userSpaceOnUse">
<stop stop-color="#2F2F2F"/>
<stop offset="1" stop-color="#171717"/>
</linearGradient>
<linearGradient id="paint16_linear_4980_16" x1="381.25" y1="232.497" x2="381.25" y2="326.997" gradientUnits="userSpaceOnUse">
<stop stop-color="#1B1B1B"/>
<stop offset="1" stop-color="#171717"/>
</linearGradient>
<clipPath id="clip0_4980_16">
<rect width="108" height="108" fill="white" transform="translate(325 227.997)"/>
</clipPath>
</defs>
</svg>
