<svg width="57" height="21" viewBox="0 0 57 21" fill="none" xmlns="http://www.w3.org/2000/svg">
<rect width="3" height="3" fill="#373636"/>
<rect x="6" width="3" height="3" fill="#373636"/>
<rect x="12" width="3" height="3" fill="#373636"/>
<rect x="18" width="3" height="3" fill="#373636"/>
<rect x="24" width="3" height="3" fill="#373636"/>
<rect x="30" width="3" height="3" fill="#373636"/>
<rect x="36" width="3" height="3" fill="#373636"/>
<rect x="42" width="3" height="3" fill="#373636"/>
<rect x="48" width="3" height="3" fill="#373636"/>
<rect x="54" width="3" height="3" fill="#373636"/>
<rect y="6" width="3" height="3" fill="#373636"/>
<rect x="6" y="6" width="3" height="3" fill="#373636"/>
<rect x="12" y="6" width="3" height="3" fill="#373636"/>
<rect x="18" y="6" width="3" height="3" fill="#373636"/>
<rect x="24" y="6" width="3" height="3" fill="#373636"/>
<rect x="30" y="6" width="3" height="3" fill="#373636"/>
<rect x="36" y="6" width="3" height="3" fill="#373636"/>
<rect x="42" y="6" width="3" height="3" fill="#373636"/>
<rect x="48" y="6" width="3" height="3" fill="#373636"/>
<rect x="54" y="6" width="3" height="3" fill="#373636"/>
<rect y="12" width="3" height="3" fill="#373636"/>
<rect x="6" y="12" width="3" height="3" fill="#373636"/>
<rect x="12" y="12" width="3" height="3" fill="#373636"/>
<rect x="18" y="12" width="3" height="3" fill="#373636"/>
<rect x="24" y="12" width="3" height="3" fill="#373636"/>
<rect x="30" y="12" width="3" height="3" fill="#373636"/>
<rect x="36" y="12" width="3" height="3" fill="#373636"/>
<rect x="42" y="12" width="3" height="3" fill="#373636"/>
<rect x="48" y="12" width="3" height="3" fill="#373636"/>
<rect x="54" y="12" width="3" height="3" fill="#373636"/>
<rect y="18" width="3" height="3" fill="#373636"/>
<rect x="6" y="18" width="3" height="3" fill="#373636"/>
<rect x="12" y="18" width="3" height="3" fill="#373636"/>
<rect x="18" y="18" width="3" height="3" fill="#373636"/>
<rect x="24" y="18" width="3" height="3" fill="#373636"/>
<rect x="30" y="18" width="3" height="3" fill="#373636"/>
<rect x="36" y="18" width="3" height="3" fill="#373636"/>
<rect x="42" y="18" width="3" height="3" fill="#373636"/>
<rect x="48" y="18" width="3" height="3" fill="#373636"/>
<rect x="54" y="18" width="3" height="3" fill="#373636"/>
</svg>
