<svg width="36" height="36" viewBox="0 0 36 36" fill="none" xmlns="http://www.w3.org/2000/svg">
<path d="M13.9492 31.9502L14.6992 32.4002C15.2992 32.7002 16.0492 32.8502 16.7992 32.8502H27.1492C29.8492 32.8502 32.0992 30.9002 32.5492 28.3502L34.7992 16.6502C35.2492 14.5502 33.5992 12.7502 31.4992 12.7502H25.4992L28.0492 5.7002C28.1992 5.4002 28.1992 5.1002 28.1992 4.8002C28.1992 3.3002 26.9992 1.9502 25.3492 1.9502C24.4492 1.9502 23.6992 2.4002 23.0992 3.0002L14.2492 14.7002H13.9492" stroke="#FEA25F" stroke-width="1.5" stroke-miterlimit="10" stroke-linecap="round" stroke-linejoin="round"/>
<path d="M12.2992 34.0498H2.69922C1.79922 34.0498 1.19922 33.4498 1.19922 32.5498V13.7998C1.19922 12.8998 1.79922 12.2998 2.69922 12.2998H12.4492C13.3492 12.2998 13.9492 12.8998 13.9492 13.7998V32.6998C13.7992 33.4498 13.1992 34.0498 12.2992 34.0498Z" stroke="#FEA25F" stroke-width="1.5" stroke-miterlimit="10" stroke-linecap="round" stroke-linejoin="round"/>
</svg>
