<svg width="36" height="36" viewBox="0 0 36 36" fill="none" xmlns="http://www.w3.org/2000/svg">
<path d="M18.0069 7.5C13.7747 7.5 10.1227 9.62369 7.5128 11.8535C6.20785 12.9684 5.1557 14.1189 4.40147 15.123C4.02436 15.6251 3.72382 16.0886 3.49327 16.5234C2.84222 17.6233 2.90983 18.4937 3.48727 19.4941C3.71869 19.9402 4.02292 20.4114 4.40132 20.918C5.15815 21.9312 6.20915 23.0815 7.51559 24.1904C10.1285 26.4083 13.7819 28.5 18.0068 28.5C22.2317 28.5 25.8851 26.4083 28.498 24.1904C29.8044 23.0815 30.8554 21.9312 31.6123 20.918C31.9907 20.4114 32.2949 19.9402 32.5263 19.4941C33.1632 18.3888 33.0722 17.479 32.5203 16.5234C32.2898 16.0886 31.9892 15.6251 31.6121 15.123C30.8579 14.1189 29.8058 12.9684 28.5008 11.8535C25.891 9.62369 22.2391 7.5 18.0069 7.5ZM18.0069 10.5C21.21 10.5 24.2902 12.2026 26.5528 14.1357C27.6841 15.1023 28.6047 16.115 29.213 16.9248C29.5171 17.3297 29.7441 17.688 29.7401 18.0238C29.7356 18.3596 29.5129 18.7167 29.2101 19.1222C28.6044 19.933 27.6856 20.9434 26.5558 21.9024C24.2961 23.8205 21.2173 25.5001 18.0069 25.5001C14.7966 25.5001 11.7178 23.8205 9.45811 21.9024C8.32828 20.9433 7.40948 19.9329 6.80381 19.1221C6.50098 18.7167 6.27773 18.3595 6.27377 18.0237C6.26927 17.6879 6.49675 17.3296 6.80089 16.9247C7.40915 16.1149 8.32973 15.1022 9.46105 14.1357C11.7237 12.2026 14.8039 10.5 18.0069 10.5Z" fill="#714EFF"/>
<path d="M18.0449 13.4619C15.5774 13.4619 13.5449 15.4944 13.5449 17.9619C13.5449 20.4294 15.5774 22.4619 18.0449 22.4619C20.5124 22.4619 22.5449 20.4294 22.5449 17.9619C22.5449 15.4944 20.5124 13.4619 18.0449 13.4619ZM18.0449 16.4619C18.8911 16.4619 19.5449 17.1157 19.5449 17.9619C19.5449 18.8081 18.8911 19.4619 18.0449 19.4619C17.1987 19.4619 16.5449 18.8081 16.5449 17.9619C16.5449 17.1157 17.1987 16.4619 18.0449 16.4619Z" fill="#714EFF"/>
</svg>
