<svg width="30" height="30" viewBox="0 0 30 30" fill="none" xmlns="http://www.w3.org/2000/svg">
<path d="M5 5.00003H10.7C10.9621 4.99935 11.2177 5.08105 11.4308 5.23358C11.6439 5.38611 11.8036 5.60175 11.8875 5.85003L12.5625 7.90003C12.6464 8.1483 12.8061 8.36395 13.0192 8.51648C13.2323 8.669 13.4879 8.75071 13.75 8.75003H22.5C22.8315 8.75003 23.1495 8.88172 23.3839 9.11615C23.6183 9.35057 23.75 9.66851 23.75 10C23.75 10.3315 23.8817 10.6495 24.1161 10.8839C24.3505 11.1183 24.6685 11.25 25 11.25C25.3315 11.25 25.6495 11.1183 25.8839 10.8839C26.1183 10.6495 26.25 10.3315 26.25 10C26.25 9.00547 25.8549 8.05164 25.1517 7.34838C24.4484 6.64512 23.4946 6.25003 22.5 6.25003H14.65L14.25 5.00003C13.9907 4.26657 13.5097 3.63191 12.8736 3.18398C12.2376 2.73605 11.4779 2.49703 10.7 2.50003H5C4.00544 2.50003 3.05161 2.89512 2.34835 3.59838C1.64509 4.30164 1.25 5.25547 1.25 6.25003V22.5C1.25 23.4946 1.64509 24.4484 2.34835 25.1517C3.05161 25.8549 4.00544 26.25 5 26.25H12.5C12.8315 26.25 13.1495 26.1183 13.3839 25.8839C13.6183 25.6495 13.75 25.3316 13.75 25C13.75 24.6685 13.6183 24.3506 13.3839 24.1161C13.1495 23.8817 12.8315 23.75 12.5 23.75H5C4.66848 23.75 4.35054 23.6183 4.11612 23.3839C3.8817 23.1495 3.75 22.8316 3.75 22.5V6.25003C3.75 5.91851 3.8817 5.60057 4.11612 5.36615C4.35054 5.13172 4.66848 5.00003 5 5.00003ZM26.25 18.975V17.5C26.25 16.5055 25.8549 15.5516 25.1517 14.8484C24.4484 14.1451 23.4946 13.75 22.5 13.75C21.5054 13.75 20.5516 14.1451 19.8483 14.8484C19.1451 15.5516 18.75 16.5055 18.75 17.5V18.975C18.0206 19.2329 17.3887 19.7101 16.9412 20.3412C16.4936 20.9723 16.2522 21.7264 16.25 22.5V25C16.25 25.9946 16.6451 26.9484 17.3483 27.6517C18.0516 28.3549 19.0054 28.75 20 28.75H25C25.9946 28.75 26.9484 28.3549 27.6517 27.6517C28.3549 26.9484 28.75 25.9946 28.75 25V22.5C28.7478 21.7264 28.5064 20.9723 28.0588 20.3412C27.6113 19.7101 26.9794 19.2329 26.25 18.975ZM21.25 17.5C21.25 17.1685 21.3817 16.8506 21.6161 16.6161C21.8505 16.3817 22.1685 16.25 22.5 16.25C22.8315 16.25 23.1495 16.3817 23.3839 16.6161C23.6183 16.8506 23.75 17.1685 23.75 17.5V18.75H21.25V17.5ZM26.25 25C26.25 25.3316 26.1183 25.6495 25.8839 25.8839C25.6495 26.1183 25.3315 26.25 25 26.25H20C19.6685 26.25 19.3505 26.1183 19.1161 25.8839C18.8817 25.6495 18.75 25.3316 18.75 25V22.5C18.75 22.1685 18.8817 21.8506 19.1161 21.6161C19.3505 21.3817 19.6685 21.25 20 21.25H25C25.3315 21.25 25.6495 21.3817 25.8839 21.6161C26.1183 21.8506 26.25 22.1685 26.25 22.5V25Z" fill="#FF63AF"/>
</svg>
