<svg width="38" height="30" viewBox="0 0 38 30" fill="none" xmlns="http://www.w3.org/2000/svg">
<path d="M6.27457 18.7502C6.35749 18.762 6.44166 18.762 6.52458 18.7502C6.69141 18.722 6.85078 18.6602 6.99303 18.5685C7.13527 18.4769 7.25743 18.3573 7.3521 18.2171C7.44677 18.0768 7.51197 17.9188 7.54377 17.7526C7.57557 17.5864 7.57329 17.4155 7.53707 17.2502C7.39388 16.5088 7.32271 15.7553 7.32457 15.0002C7.3261 13.245 7.72765 11.5132 8.49873 9.93635C9.26981 8.35954 10.3901 6.97921 11.7746 5.90023C11.8622 6.23039 12.0189 6.53819 12.2344 6.80324C12.4499 7.06829 12.7192 7.28456 13.0246 7.43773L13.3246 7.56273C13.9487 7.84613 14.6267 7.99112 15.3121 7.98773C15.5968 8.14618 15.8407 8.36872 16.0246 8.63773C16.1436 9.24484 16.2271 9.85839 16.2746 10.4752C16.3056 11.0179 16.3809 11.5572 16.4996 12.0877C16.4996 12.3127 16.5746 12.5252 16.5996 12.7252C16.6224 12.9582 16.7143 13.1791 16.8636 13.3595C17.0128 13.5399 17.2125 13.6716 17.4371 13.7377C17.5406 13.7522 17.6453 13.7564 17.7496 13.7502C18.4621 13.7502 18.9996 13.0377 19.7746 12.0502C19.9246 11.8502 20.1121 11.6002 20.1996 11.5002L20.3871 11.3877C20.759 11.2245 21.0899 10.9805 21.3558 10.6735C21.6217 10.3665 21.816 10.0041 21.9246 9.61273C21.9593 9.09665 21.9593 8.57881 21.9246 8.06273C21.9246 7.66273 21.9246 7.02523 21.9246 6.70023C22.2799 6.428 22.6514 6.17754 23.0371 5.95023L25.2496 5.37523C27.5272 6.87921 29.1972 9.14272 29.9621 11.7627C30.0566 12.0942 30.2789 12.3747 30.5801 12.5423C30.8813 12.7099 31.2368 12.751 31.5683 12.6565C31.8998 12.562 32.1803 12.3397 32.3479 12.0385C32.5155 11.7372 32.5566 11.3817 32.4621 11.0502C31.5202 7.77413 29.4253 4.94916 26.5639 3.09648C23.7025 1.2438 20.2676 0.488392 16.893 0.969618C13.5183 1.45084 10.4315 3.13624 8.20197 5.71488C5.97248 8.29352 4.75072 11.5914 4.76207 15.0002C4.76351 15.9018 4.8472 16.8014 5.01208 17.6877C5.05756 17.988 5.21077 18.2614 5.4431 18.4569C5.67543 18.6524 5.97099 18.7567 6.27457 18.7502ZM22.3371 4.00023L22.1246 4.10023C20.2621 5.15023 20.0371 5.70023 19.9621 5.90023C19.7849 6.64489 19.7384 7.41465 19.8246 8.17523C19.8246 8.52523 19.8246 9.01273 19.8246 9.26273C19.6554 9.39777 19.4757 9.519 19.2871 9.62523L18.8996 9.87523C18.7314 10.0106 18.5803 10.1659 18.4496 10.3377C18.3793 9.56546 18.2666 8.79763 18.1121 8.03773C18.0871 7.90998 18.0406 7.78741 17.9746 7.67523C17.7871 7.37523 16.7246 5.87523 15.3746 5.87523C14.9416 5.8881 14.5122 5.79362 14.1246 5.60023L13.8746 5.50023C13.7494 5.25502 13.657 4.99447 13.5996 4.72523C15.2221 3.9004 17.017 3.47202 18.8371 3.47523C20.0227 3.45825 21.2036 3.62696 22.3371 3.97523V4.00023ZM37.2496 10.8002C37.0246 9.82523 36.1871 9.12523 34.7496 8.70023C34.4761 8.619 34.1815 8.64976 33.9307 8.78572C33.6798 8.92169 33.4933 9.15172 33.4121 9.42523C33.3309 9.69873 33.3616 9.9933 33.4976 10.2441C33.6335 10.495 33.8636 10.6815 34.1371 10.7627C35.0121 11.0127 35.1496 11.2752 35.1496 11.2752C35.1496 12.1627 30.5746 15.6002 19.6996 18.1252C8.82457 20.6502 3.14958 19.6127 2.82458 18.7877C2.82458 18.7877 2.82457 18.4252 3.69957 17.7002C3.80793 17.6111 3.89731 17.5011 3.96244 17.3768C4.02758 17.2525 4.06714 17.1165 4.07879 16.9766C4.09045 16.8368 4.07395 16.696 4.03029 16.5627C3.98663 16.4293 3.91668 16.3061 3.82457 16.2002C3.73531 16.0924 3.62563 16.0033 3.50183 15.938C3.37802 15.8727 3.24254 15.8325 3.10315 15.8197C2.96377 15.807 2.82323 15.8219 2.68962 15.8636C2.55601 15.9053 2.43195 15.9729 2.32457 16.0627C1.07457 17.1502 0.499575 18.2377 0.737075 19.2752C1.09958 20.8377 2.98707 21.6752 6.51207 21.7752V21.8502C7.99536 24.5395 10.3148 26.6721 13.1189 27.9249C15.923 29.1777 19.0591 29.4824 22.0519 28.7928C25.0448 28.1032 27.7313 26.457 29.7045 24.1035C31.6778 21.75 32.8301 18.8175 32.9871 15.7502C36.2246 14.0252 37.6246 12.4002 37.2496 10.8002ZM18.3621 26.5377L19.3746 25.7127L21.1496 25.5002C21.3227 25.4812 21.4884 25.42 21.6323 25.3219C21.7761 25.2238 21.8937 25.0919 21.9746 24.9377L22.3621 24.2127L22.7496 25.0002L22.4996 26.0252C21.3403 26.3981 20.1299 26.5879 18.9121 26.5877L18.3621 26.5377ZM24.9246 24.8627C24.9243 24.6952 24.8902 24.5294 24.8246 24.3752L23.3621 21.3877C23.2738 21.2114 23.1381 21.0632 22.9704 20.9595C22.8026 20.8559 22.6093 20.8011 22.4121 20.8011C22.2149 20.8011 22.0216 20.8559 21.8538 20.9595C21.686 21.0632 21.5504 21.2114 21.4621 21.3877L20.3496 23.4752L18.8121 23.6627C18.6035 23.6778 18.4058 23.7613 18.2496 23.9002L15.9121 25.8377C15.8121 25.9226 15.7275 26.0241 15.6621 26.1377C13.2073 25.4221 11.0582 23.9146 9.54957 21.8502C13.1568 21.6142 16.7369 21.0664 20.2496 20.2127C23.6665 19.4384 27.0118 18.3763 30.2496 17.0377C29.965 18.6441 29.3433 20.172 28.4254 21.5207C27.5076 22.8695 26.3145 24.0085 24.9246 24.8627Z" fill="white"/>
</svg>
