<svg width="28" height="28" viewBox="0 0 28 28" fill="none" xmlns="http://www.w3.org/2000/svg">
<g clip-path="url(#clip0_5104_55)">
<path d="M4.375 10.5H6.125V8.75H4.375V10.5ZM11.375 8.75H13.125V7H11.375V8.75ZM14.875 8.75H16.625V7H14.875V8.75ZM18.375 8.75H20.125V7H18.375V8.75ZM11.375 5.25H13.125V3.5H11.375V5.25ZM14.875 5.25H16.625V3.5H14.875V5.25ZM18.375 5.25H20.125V3.5H18.375V5.25ZM11.375 15.75H13.125V14H11.375V15.75ZM14.875 15.75H16.625V14H14.875V15.75ZM18.375 15.75H20.125V14H18.375V15.75ZM11.375 19.25H13.125V17.5H11.375V19.25ZM18.375 19.25H20.125V17.5H18.375V19.25ZM11.375 22.75H13.125V21H11.375V22.75ZM18.375 22.75H20.125V21H18.375V22.75ZM23.625 21H25.375V19.25H23.625V21ZM23.625 15.75V17.5H25.375V15.75H23.625ZM23.625 24.5H25.375V22.75H23.625V24.5ZM11.375 12.25H13.125V10.5H11.375V12.25ZM14.875 12.25H16.625V10.5H14.875V12.25ZM18.375 12.25H20.125V10.5H18.375V12.25ZM4.375 14H6.125V12.25H4.375V14ZM4.375 17.5H6.125V15.75H4.375V17.5ZM4.375 21H6.125V19.25H4.375V21ZM4.375 24.5H6.125V22.75H4.375V24.5ZM14.875 19.25H16.625V17.5H14.875V19.25Z" fill="#E0DFDF"/>
<path fill-rule="evenodd" clip-rule="evenodd" d="M27.125 26.25C27.125 27.2173 26.3423 28 25.375 28H2.625C1.65769 28 0.875 27.2173 0.875 26.25V7C0.875 6.03269 1.65769 5.25 2.625 5.25H7.875V1.75C7.875 0.782688 8.65769 0 9.625 0H21.875C22.8423 0 23.625 0.782688 23.625 1.75V12.25H25.375C26.3423 12.25 27.125 13.0327 27.125 14V26.25ZM7.875 7H2.625V26.25H7.875V7ZM21.875 1.75H9.625V26.25H14.875V21H16.625V26.25H21.875V1.75ZM25.375 14H23.625V26.25H25.375V14Z" fill="white"/>
</g>
<defs>
<clipPath id="clip0_5104_55">
<rect width="28" height="28" fill="white"/>
</clipPath>
</defs>
</svg>
