<svg width="30" height="30" viewBox="0 0 30 30" fill="none" xmlns="http://www.w3.org/2000/svg">
<g clip-path="url(#clip0_5103_597)">
<path d="M28.125 22.5V20.625H26.1552C26.0343 20.0382 25.8014 19.4802 25.4691 18.9817L26.8659 17.5848L25.5403 16.2592L24.1434 17.656C23.6449 17.3237 23.0869 17.0907 22.5 16.9698V15H20.625V16.9698C20.0382 17.0907 19.4802 17.3236 18.9817 17.6559L17.5848 16.2591L16.2592 17.5847L17.656 18.9816C17.3237 19.4801 17.0907 20.0381 16.9698 20.625H15V22.5H16.9698C17.0907 23.0868 17.3236 23.6448 17.6559 24.1433L16.2591 25.5402L17.5847 26.8658L18.9816 25.469C19.4801 25.8013 20.0381 26.0343 20.625 26.1552V28.125H22.5V26.1552C23.0868 26.0343 23.6448 25.8014 24.1433 25.4691L25.5402 26.8659L26.8658 25.5403L25.469 24.1434C25.8013 23.6449 26.0343 23.0869 26.1552 22.5H28.125ZM21.5625 24.375C21.0062 24.375 20.4625 24.2101 20 23.901C19.5374 23.592 19.177 23.1527 18.9641 22.6388C18.7512 22.1249 18.6955 21.5594 18.804 21.0138C18.9126 20.4682 19.1804 19.9671 19.5738 19.5738C19.9671 19.1804 20.4682 18.9126 21.0138 18.804C21.5594 18.6955 22.1249 18.7512 22.6388 18.9641C23.1527 19.177 23.592 19.5374 23.901 20C24.2101 20.4625 24.375 21.0062 24.375 21.5625C24.3742 22.3082 24.0776 23.0231 23.5503 23.5503C23.0231 24.0776 22.3082 24.3742 21.5625 24.375Z" fill="#FF8E57"/>
<path d="M23.4375 4.6875H20.625V3.75C20.6236 3.25316 20.4256 2.77708 20.0742 2.42576C19.7229 2.07444 19.2468 1.87643 18.75 1.875H11.25C10.7532 1.87643 10.2771 2.07444 9.92576 2.42576C9.57444 2.77708 9.37643 3.25316 9.375 3.75V4.6875H6.5625C6.06566 4.68893 5.58958 4.88694 5.23826 5.23826C4.88694 5.58958 4.68893 6.06566 4.6875 6.5625V26.25C4.68893 26.7468 4.88694 27.2229 5.23826 27.5742C5.58958 27.9256 6.06566 28.1236 6.5625 28.125H13.125V26.25H6.5625V6.5625H9.375V9.375H20.625V6.5625H23.4375V12.1875H25.3125V6.5625C25.3111 6.06566 25.1131 5.58958 24.7617 5.23826C24.4104 4.88694 23.9343 4.68893 23.4375 4.6875ZM18.75 7.5H11.25V3.75H18.75V7.5Z" fill="#FF8E57"/>
</g>
<defs>
<clipPath id="clip0_5103_597">
<rect width="30" height="30" fill="white"/>
</clipPath>
</defs>
</svg>
