<svg width="32" height="32" viewBox="0 0 32 32" fill="none" xmlns="http://www.w3.org/2000/svg">
<g clip-path="url(#clip0_5104_37)">
<path d="M25.8218 10.1242C25.3855 7.83886 24.166 5.77718 22.3732 4.29426C20.5804 2.81133 18.3266 2 16 2C13.6734 2 11.4196 2.81133 9.62685 4.29426C7.83407 5.77718 6.61453 7.83886 6.17827 10.1242C4.33353 10.4537 2.6791 11.4622 1.54098 12.9509C0.402859 14.4396 -0.136412 16.3007 0.0294295 18.1672C0.195271 20.0338 1.0542 21.7706 2.43696 23.0353C3.81972 24.3001 5.62604 25.0011 7.49997 25.0002H7.99997V23.0002H7.49997C6.07436 23.0011 4.70417 22.448 3.67865 21.4578C2.65312 20.4675 2.05252 19.1174 2.00361 17.6927C1.9547 16.2679 2.46132 14.8799 3.41651 13.8216C4.37171 12.7633 5.70075 12.1176 7.12307 12.0207L7.95947 11.9636L8.04947 11.1301C8.26339 9.17088 9.19318 7.35962 10.6605 6.04381C12.1278 4.728 14.0293 4.00029 16.0001 4.00029C17.971 4.00029 19.8725 4.728 21.3398 6.04381C22.8071 7.35962 23.7369 9.17088 23.9508 11.1301L24.0408 11.9636L24.8772 12.0207C26.2995 12.1176 27.6286 12.7633 28.5838 13.8216C29.539 14.8799 30.0456 16.268 29.9966 17.6928C29.9477 19.1176 29.347 20.4676 28.3214 21.4579C27.2959 22.4482 25.9256 23.0012 24.5 23.0002H24V25.0002H24.5C26.3739 25.0011 28.1802 24.3001 29.563 23.0354C30.9458 21.7707 31.8048 20.0339 31.9706 18.1673C32.1365 16.3007 31.5972 14.4397 30.4591 12.9509C29.321 11.4622 27.6665 10.4537 25.8218 10.1242Z" fill="white"/>
<path d="M23 22V20H20.8989C20.77 19.3741 20.5214 18.7789 20.167 18.2471L21.657 16.7571L20.243 15.3431L18.753 16.8331C18.2212 16.4786 17.626 16.2301 17 16.1011V14H15V16.1011C14.3741 16.23 13.7789 16.4786 13.2471 16.833L11.7571 15.343L10.3431 16.757L11.8331 18.247C11.4786 18.7788 11.2301 19.374 11.1011 20H9V22H11.1011C11.23 22.6259 11.4786 23.2211 11.833 23.7529L10.343 25.2429L11.757 26.6569L13.247 25.1669C13.7788 25.5214 14.374 25.7699 15 25.8989V28H17V25.8989C17.6259 25.77 18.2211 25.5214 18.7529 25.167L20.2429 26.657L21.6569 25.243L20.1669 23.753C20.5214 23.2212 20.7699 22.626 20.8989 22H23ZM16 24C15.4067 24 14.8266 23.8241 14.3333 23.4944C13.8399 23.1648 13.4554 22.6962 13.2284 22.1481C13.0013 21.5999 12.9419 20.9967 13.0576 20.4147C13.1734 19.8328 13.4591 19.2982 13.8787 18.8787C14.2982 18.4591 14.8328 18.1734 15.4147 18.0576C15.9967 17.9419 16.5999 18.0013 17.1481 18.2284C17.6962 18.4554 18.1648 18.8399 18.4944 19.3333C18.8241 19.8266 19 20.4067 19 21C18.9991 21.7954 18.6828 22.5579 18.1204 23.1204C17.5579 23.6828 16.7954 23.9991 16 24Z" fill="white"/>
</g>
<defs>
<clipPath id="clip0_5104_37">
<rect width="32" height="32" fill="white"/>
</clipPath>
</defs>
</svg>
