<svg width="36" height="36" viewBox="0 0 36 36" fill="none" xmlns="http://www.w3.org/2000/svg">
<path d="M9 36H27C28.5913 36 30.1174 35.3679 31.2426 34.2426C32.3679 33.1174 33 31.5913 33 30V18C33 16.4087 32.3679 14.8826 31.2426 13.7574C30.1174 12.6321 28.5913 12 27 12V9C27 6.61305 26.0518 4.32387 24.364 2.63604C22.6761 0.948211 20.3869 0 18 0C15.6131 0 13.3239 0.948211 11.636 2.63604C9.94821 4.32387 9 6.61305 9 9V12C7.4087 12 5.88258 12.6321 4.75736 13.7574C3.63214 14.8826 3 16.4087 3 18V30C3 31.5913 3.63214 33.1174 4.75736 34.2426C5.88258 35.3679 7.4087 36 9 36ZM12 9C12 7.4087 12.6321 5.88258 13.7574 4.75736C14.8826 3.63214 16.4087 3 18 3C19.5913 3 21.1174 3.63214 22.2426 4.75736C23.3679 5.88258 24 7.4087 24 9V12H12V9ZM6 18C6 17.2044 6.31607 16.4413 6.87868 15.8787C7.44129 15.3161 8.20435 15 9 15H27C27.7956 15 28.5587 15.3161 29.1213 15.8787C29.6839 16.4413 30 17.2044 30 18V30C30 30.7956 29.6839 31.5587 29.1213 32.1213C28.5587 32.6839 27.7956 33 27 33H9C8.20435 33 7.44129 32.6839 6.87868 32.1213C6.31607 31.5587 6 30.7956 6 30V18Z" fill="white"/>
<path d="M16.5 26.724V28.5C16.5 28.8978 16.658 29.2794 16.9393 29.5607C17.2207 29.842 17.6022 30 18 30C18.3978 30 18.7794 29.842 19.0607 29.5607C19.342 29.2794 19.5 28.8978 19.5 28.5V26.724C20.5008 26.3702 21.3443 25.6739 21.8815 24.7583C22.4186 23.8427 22.6147 22.7666 22.4352 21.7204C22.2557 20.6742 21.7121 19.725 20.9005 19.0408C20.0889 18.3566 19.0615 17.9814 18 17.9814C16.9385 17.9814 15.9111 18.3566 15.0995 19.0408C14.2879 19.725 13.7443 20.6742 13.5648 21.7204C13.3853 22.7666 13.5814 23.8427 14.1186 24.7583C14.6557 25.6739 15.4992 26.3702 16.5 26.724ZM18 21C18.2967 21 18.5867 21.088 18.8334 21.2528C19.08 21.4176 19.2723 21.6519 19.3858 21.926C19.4994 22.2001 19.5291 22.5017 19.4712 22.7926C19.4133 23.0836 19.2704 23.3509 19.0607 23.5607C18.8509 23.7704 18.5836 23.9133 18.2926 23.9712C18.0017 24.0291 17.7001 23.9993 17.426 23.8858C17.1519 23.7723 16.9176 23.58 16.7528 23.3334C16.588 23.0867 16.5 22.7967 16.5 22.5C16.5 22.1022 16.658 21.7206 16.9393 21.4393C17.2207 21.158 17.6022 21 18 21Z" fill="white"/>
</svg>
