<svg width="36" height="36" viewBox="0 0 36 36" fill="none" xmlns="http://www.w3.org/2000/svg">
<g clip-path="url(#clip0_4645_108)">
<path d="M29.907 12H31.5C32.2956 12 33.0587 12.3161 33.6213 12.8787C34.1839 13.4413 34.5 14.2044 34.5 15V21C34.5 21.7957 34.1839 22.5587 33.6213 23.1213C33.0587 23.6839 32.2956 24 31.5 24H29.907C29.5413 26.9 28.1299 29.5668 25.9376 31.5C23.7453 33.4332 20.9229 34.5 18 34.5V31.5C20.3869 31.5 22.6761 30.5518 24.364 28.864C26.0518 27.1761 27 24.887 27 22.5V13.5C27 11.1131 26.0518 8.82387 24.364 7.13604C22.6761 5.44821 20.3869 4.5 18 4.5C15.6131 4.5 13.3239 5.44821 11.636 7.13604C9.94821 8.82387 9 11.1131 9 13.5V24H4.5C3.70435 24 2.94129 23.6839 2.37868 23.1213C1.81607 22.5587 1.5 21.7957 1.5 21V15C1.5 14.2044 1.81607 13.4413 2.37868 12.8787C2.94129 12.3161 3.70435 12 4.5 12H6.093C6.45905 9.10035 7.87062 6.43391 10.0629 4.50102C12.2551 2.56812 15.0773 1.50162 18 1.50162C20.9227 1.50162 23.7449 2.56812 25.9371 4.50102C28.1294 6.43391 29.541 9.10035 29.907 12ZM4.5 15V21H6V15H4.5ZM30 15V21H31.5V15H30ZM11.64 23.6775L13.23 21.1335C14.6596 22.0291 16.313 22.5027 18 22.5C19.687 22.5027 21.3404 22.0291 22.77 21.1335L24.36 23.6775C22.4539 24.8717 20.2493 25.5035 18 25.5C15.7507 25.5035 13.5461 24.8717 11.64 23.6775Z" fill="white"/>
</g>
<defs>
<clipPath id="clip0_4645_108">
<rect width="36" height="36" fill="white"/>
</clipPath>
</defs>
</svg>
