<svg width="36" height="36" viewBox="0 0 36 36" fill="none" xmlns="http://www.w3.org/2000/svg">
<path d="M23.25 29.625H12.75C8.64 29.625 6.375 27.36 6.375 23.25V12.75C6.375 8.64 8.64 6.375 12.75 6.375H23.25C27.36 6.375 29.625 8.64 29.625 12.75V23.25C29.625 27.36 27.36 29.625 23.25 29.625ZM12.75 8.625C9.855 8.625 8.625 9.855 8.625 12.75V23.25C8.625 26.145 9.855 27.375 12.75 27.375H23.25C26.145 27.375 27.375 26.145 27.375 23.25V12.75C27.375 9.855 26.145 8.625 23.25 8.625H12.75Z" fill="white"/>
<path d="M24 4.125H12C11.385 4.125 10.875 3.615 10.875 3C10.875 2.385 11.385 1.875 12 1.875H24C24.615 1.875 25.125 2.385 25.125 3C25.125 3.615 24.615 4.125 24 4.125Z" fill="white"/>
<path d="M24 34.125H12C11.385 34.125 10.875 33.615 10.875 33C10.875 32.385 11.385 31.875 12 31.875H24C24.615 31.875 25.125 32.385 25.125 33C25.125 33.615 24.615 34.125 24 34.125Z" fill="white"/>
<path d="M21.75 19.875H17.25C16.635 19.875 16.125 19.365 16.125 18.75V14.25C16.125 13.635 16.635 13.125 17.25 13.125C17.865 13.125 18.375 13.635 18.375 14.25V17.625H21.75C22.365 17.625 22.875 18.135 22.875 18.75C22.875 19.365 22.365 19.875 21.75 19.875Z" fill="white"/>
</svg>
