<svg width="36" height="36" viewBox="0 0 36 36" fill="none" xmlns="http://www.w3.org/2000/svg">
<g clip-path="url(#clip0_4643_14)">
<path d="M25.538 31.5H10.463C9.21504 31.5086 7.98731 31.1848 6.90585 30.5621C5.8244 29.9393 4.92818 29.0399 4.30922 27.9562C3.68725 26.8952 3.35938 25.6874 3.35938 24.4575C3.35938 23.2275 3.68725 22.0198 4.30922 20.9587L11.8805 8.00999C12.5049 6.94094 13.3985 6.05411 14.4722 5.43779C15.546 4.82147 16.7624 4.49716 18.0005 4.49716C19.2385 4.49716 20.455 4.82147 21.5287 5.43779C22.6025 6.05411 23.496 6.94094 24.1205 8.00999L31.6692 20.9587C32.2912 22.0198 32.6191 23.2275 32.6191 24.4575C32.6191 25.6874 32.2912 26.8952 31.6692 27.9562C31.0521 29.0366 30.1595 29.9338 29.0823 30.5564C28.0052 31.1789 26.7821 31.5046 25.538 31.5ZM18.0005 6.74999C17.1559 6.74243 16.3245 6.95925 15.5912 7.37828C14.8579 7.79732 14.249 8.40354 13.8267 9.13499L6.27797 22.095C5.85555 22.8127 5.6328 23.6303 5.6328 24.4631C5.6328 25.2959 5.85555 26.1135 6.27797 26.8312C6.69593 27.5714 7.30453 28.1862 8.0405 28.6115C8.77647 29.0369 9.61295 29.2574 10.463 29.25H25.538C26.3899 29.2594 27.2287 29.0399 27.9668 28.6144C28.705 28.189 29.3153 27.5731 29.7342 26.8312C30.1566 26.1135 30.3794 25.2959 30.3794 24.4631C30.3794 23.6303 30.1566 22.8127 29.7342 22.095L22.1742 9.13499C21.752 8.40354 21.1431 7.79732 20.4097 7.37828C19.6764 6.95925 18.845 6.74243 18.0005 6.74999Z" fill="white"/>
<path d="M20.2505 12.375C19.9807 12.0373 19.6384 11.7647 19.2489 11.5774C18.8594 11.39 18.4327 11.2928 18.0005 11.2928C17.5683 11.2928 17.1416 11.39 16.7521 11.5774C16.3626 11.7647 16.0203 12.0373 15.7505 12.375C15.4788 12.7172 15.2905 13.1181 15.2007 13.5457C15.1109 13.9734 15.1219 14.4161 15.233 14.8388L16.8755 21.645C16.9365 21.8883 17.077 22.1042 17.2747 22.2584C17.4724 22.4127 17.716 22.4965 17.9667 22.4965C18.2175 22.4965 18.4611 22.4127 18.6588 22.2584C18.8565 22.1042 18.997 21.8883 19.058 21.645L20.7567 14.8275C20.8675 14.4074 20.8795 13.9673 20.7916 13.5418C20.7038 13.1163 20.5186 12.7169 20.2505 12.375ZM18.608 14.2875L18.0005 16.74L17.393 14.2875C17.3659 14.1952 17.362 14.0976 17.3816 14.0034C17.4012 13.9092 17.4438 13.8213 17.5055 13.7475C17.5631 13.6707 17.6379 13.6083 17.7238 13.5653C17.8097 13.5224 17.9044 13.5 18.0005 13.5C18.0966 13.5 18.1913 13.5224 18.2772 13.5653C18.3631 13.6083 18.4379 13.6707 18.4955 13.7475C18.5572 13.8213 18.5998 13.9092 18.6194 14.0034C18.639 14.0976 18.6351 14.1952 18.608 14.2875Z" fill="white"/>
<path d="M18 27C18.932 27 19.6875 26.2445 19.6875 25.3125C19.6875 24.3805 18.932 23.625 18 23.625C17.068 23.625 16.3125 24.3805 16.3125 25.3125C16.3125 26.2445 17.068 27 18 27Z" fill="white"/>
</g>
<defs>
<clipPath id="clip0_4643_14">
<rect width="36" height="36" fill="white"/>
</clipPath>
</defs>
</svg>
